%
M48
M72
T01C0.0236
T02C0.0320
T03C0.0394
T04C0.0400
T05C0.0433
T06C0.0520
T07C0.0984
%
T01
X3430Y7930
X5930Y11930
X9742Y11868
X14492Y18368
X17555Y20618
X9742Y27493
X5930Y27555
X3430Y23555
X17555Y4993
X14492Y2743
T02
X15055Y1368
X15930Y1368
X16805Y2618
X17555Y3118
X17555Y2118
X19805Y2368
X20305Y1618
X20805Y2368
X20180Y3993
X20930Y4493
X20180Y4993
X18805Y5618
X19055Y6618
X20305Y7118
X21305Y7118
X23180Y6868
X23180Y7868
X23055Y9118
X23805Y9368
X24555Y9868
X24555Y8868
X25405Y7243
X26205Y7243
X28055Y7555
X28055Y6555
X28555Y5868
X29555Y7993
X30555Y7993
X28555Y2868
X25242Y4368
X24242Y4368
X20055Y9118
X19930Y9930
X17180Y10930
X16930Y9930
X14430Y9618
X13430Y9618
X12430Y9618
X11430Y9618
X10430Y9618
X9430Y9618
X8430Y9618
X7430Y9618
X6430Y9618
X5430Y9618
X4430Y9618
X3430Y9618
X2430Y9618
X1430Y9618
X1430Y6618
X2430Y6618
X3430Y6618
X4430Y6618
X5430Y6618
X5430Y5618
X4430Y5618
X3430Y5618
X2430Y5618
X2430Y2618
X3430Y2618
X4430Y2618
X5430Y2618
X6430Y2618
X7430Y2618
X8555Y4243
X8555Y5243
X7430Y5618
X7430Y6618
X8430Y6618
X9430Y6618
X10430Y6618
X11430Y6618
X12430Y6618
X13430Y6618
X14430Y6618
X15805Y5618
X16055Y6618
X15930Y4368
X15055Y4368
X14055Y5118
X14055Y1118
X6430Y5618
X6430Y6618
X6305Y13180
X7305Y13180
X9055Y13118
X12055Y13118
X14180Y10930
X14055Y16743
X15055Y16993
X15930Y16993
X16805Y18243
X17555Y18743
X17555Y17743
X19805Y17993
X20305Y17243
X20805Y17993
X20180Y19618
X20930Y20118
X20180Y20618
X18805Y21243
X19055Y22243
X20305Y22743
X21305Y22743
X23180Y22493
X23180Y23493
X23055Y24743
X23805Y24993
X24555Y25493
X24555Y24493
X25405Y22868
X26205Y22868
X28055Y23180
X28055Y22180
X28555Y21493
X29555Y23618
X30555Y23618
X28555Y18493
X25242Y19993
X24242Y19993
X20055Y24743
X19930Y25555
X17180Y26555
X16930Y25555
X14430Y25243
X13430Y25243
X12430Y25243
X11430Y25243
X10430Y25243
X9430Y25243
X8430Y25243
X7430Y25243
X6430Y25243
X5430Y25243
X4430Y25243
X3430Y25243
X2430Y25243
X1430Y25243
X1430Y22243
X2430Y22243
X3430Y22243
X4430Y22243
X5430Y22243
X5430Y21243
X4430Y21243
X3430Y21243
X2430Y21243
X2430Y18243
X3430Y18243
X4430Y18243
X5430Y18243
X6430Y18243
X7430Y18243
X8555Y19868
X8555Y20868
X7430Y21243
X7430Y22243
X8430Y22243
X9430Y22243
X10430Y22243
X11430Y22243
X12430Y22243
X13430Y22243
X14430Y22243
X15805Y21243
X16055Y22243
X15930Y19993
X15055Y19993
X14055Y20743
X14180Y26555
X12055Y28743
X9055Y28743
X7305Y28805
X6305Y28805
X6430Y22243
X6430Y21243
T03
X13653Y13470
X14653Y13470
X15653Y13470
X16653Y13470
X17653Y13470
X18653Y13470
X19653Y13470
X20653Y13470
X21653Y13470
X22653Y13470
X23653Y13470
X24653Y13470
X25653Y13470
X26653Y13470
X27653Y13470
X28653Y13470
X28653Y29095
X27653Y29095
X26653Y29095
X25653Y29095
X24653Y29095
X23653Y29095
X22653Y29095
X21653Y29095
X20653Y29095
X19653Y29095
X18653Y29095
X17653Y29095
X16653Y29095
X15653Y29095
X14653Y29095
X13653Y29095
T04
X16743Y24305
X17743Y24305
X18743Y24305
X11742Y20617
X11742Y19617
X11742Y18617
X5805Y16743
X4805Y16743
X3805Y16743
X3742Y13305
X2742Y13305
X2742Y12305
X3742Y12305
X4742Y12305
X4742Y13305
X5805Y10993
X6805Y10993
X7805Y10993
X11742Y4992
X11742Y3992
X11742Y2992
X5805Y1118
X4805Y1118
X3805Y1118
X16743Y8680
X17743Y8680
X18743Y8680
X22430Y1118
X23430Y1118
X25430Y1118
X26430Y1118
X28305Y1118
X29305Y1118
X30492Y4368
X30492Y5368
X29305Y16743
X28305Y16743
X26430Y16743
X25430Y16743
X23430Y16743
X22430Y16743
X30492Y19993
X30492Y20993
X7805Y26618
X6805Y26618
X5805Y26618
X4742Y27930
X3742Y27930
X2742Y27930
X2742Y28930
X3742Y28930
X4742Y28930
T05
X23055Y21368
X26055Y21368
X26055Y5743
X23055Y5743
T06
X26180Y10743
X30180Y11743
X30180Y9743
X30180Y25368
X30180Y27368
X26180Y26368
T07
X1291Y1265
X1291Y13470
X1291Y16890
X1291Y29095
X30819Y29095
X30819Y16890
X30819Y13470
X30819Y1265
M30
