G75*
G70*
%OFA0B0*%
%FSLAX24Y24*%
%IPPOS*%
%LPD*%
%AMOC8*
5,1,8,0,0,1.08239X$1,22.5*
%
%ADD10C,0.0000*%
%ADD11C,0.0030*%
%ADD12C,0.0060*%
%ADD13C,0.0160*%
%ADD14C,0.0040*%
%ADD15R,0.0200X0.0150*%
%ADD16R,0.0150X0.0200*%
%ADD17C,0.0100*%
%ADD18R,0.0200X0.0736*%
%ADD19R,0.0250X0.0335*%
%ADD20R,0.0800X0.0200*%
%ADD21R,0.0200X0.0750*%
%ADD22C,0.0050*%
%ADD23R,0.0400X0.1250*%
%ADD24R,0.1050X0.0600*%
D10*
X000305Y000243D02*
X000305Y030114D01*
X031675Y030114D01*
X031675Y000243D01*
X000305Y000243D01*
X000799Y001265D02*
X000801Y001309D01*
X000807Y001353D01*
X000817Y001396D01*
X000830Y001438D01*
X000848Y001478D01*
X000869Y001517D01*
X000893Y001554D01*
X000920Y001589D01*
X000951Y001621D01*
X000984Y001650D01*
X001020Y001676D01*
X001058Y001698D01*
X001098Y001717D01*
X001139Y001733D01*
X001182Y001745D01*
X001225Y001753D01*
X001269Y001757D01*
X001313Y001757D01*
X001357Y001753D01*
X001400Y001745D01*
X001443Y001733D01*
X001484Y001717D01*
X001524Y001698D01*
X001562Y001676D01*
X001598Y001650D01*
X001631Y001621D01*
X001662Y001589D01*
X001689Y001554D01*
X001713Y001517D01*
X001734Y001478D01*
X001752Y001438D01*
X001765Y001396D01*
X001775Y001353D01*
X001781Y001309D01*
X001783Y001265D01*
X001781Y001221D01*
X001775Y001177D01*
X001765Y001134D01*
X001752Y001092D01*
X001734Y001052D01*
X001713Y001013D01*
X001689Y000976D01*
X001662Y000941D01*
X001631Y000909D01*
X001598Y000880D01*
X001562Y000854D01*
X001524Y000832D01*
X001484Y000813D01*
X001443Y000797D01*
X001400Y000785D01*
X001357Y000777D01*
X001313Y000773D01*
X001269Y000773D01*
X001225Y000777D01*
X001182Y000785D01*
X001139Y000797D01*
X001098Y000813D01*
X001058Y000832D01*
X001020Y000854D01*
X000984Y000880D01*
X000951Y000909D01*
X000920Y000941D01*
X000893Y000976D01*
X000869Y001013D01*
X000848Y001052D01*
X000830Y001092D01*
X000817Y001134D01*
X000807Y001177D01*
X000801Y001221D01*
X000799Y001265D01*
X000799Y013470D02*
X000801Y013514D01*
X000807Y013558D01*
X000817Y013601D01*
X000830Y013643D01*
X000848Y013683D01*
X000869Y013722D01*
X000893Y013759D01*
X000920Y013794D01*
X000951Y013826D01*
X000984Y013855D01*
X001020Y013881D01*
X001058Y013903D01*
X001098Y013922D01*
X001139Y013938D01*
X001182Y013950D01*
X001225Y013958D01*
X001269Y013962D01*
X001313Y013962D01*
X001357Y013958D01*
X001400Y013950D01*
X001443Y013938D01*
X001484Y013922D01*
X001524Y013903D01*
X001562Y013881D01*
X001598Y013855D01*
X001631Y013826D01*
X001662Y013794D01*
X001689Y013759D01*
X001713Y013722D01*
X001734Y013683D01*
X001752Y013643D01*
X001765Y013601D01*
X001775Y013558D01*
X001781Y013514D01*
X001783Y013470D01*
X001781Y013426D01*
X001775Y013382D01*
X001765Y013339D01*
X001752Y013297D01*
X001734Y013257D01*
X001713Y013218D01*
X001689Y013181D01*
X001662Y013146D01*
X001631Y013114D01*
X001598Y013085D01*
X001562Y013059D01*
X001524Y013037D01*
X001484Y013018D01*
X001443Y013002D01*
X001400Y012990D01*
X001357Y012982D01*
X001313Y012978D01*
X001269Y012978D01*
X001225Y012982D01*
X001182Y012990D01*
X001139Y013002D01*
X001098Y013018D01*
X001058Y013037D01*
X001020Y013059D01*
X000984Y013085D01*
X000951Y013114D01*
X000920Y013146D01*
X000893Y013181D01*
X000869Y013218D01*
X000848Y013257D01*
X000830Y013297D01*
X000817Y013339D01*
X000807Y013382D01*
X000801Y013426D01*
X000799Y013470D01*
X000799Y016890D02*
X000801Y016934D01*
X000807Y016978D01*
X000817Y017021D01*
X000830Y017063D01*
X000848Y017103D01*
X000869Y017142D01*
X000893Y017179D01*
X000920Y017214D01*
X000951Y017246D01*
X000984Y017275D01*
X001020Y017301D01*
X001058Y017323D01*
X001098Y017342D01*
X001139Y017358D01*
X001182Y017370D01*
X001225Y017378D01*
X001269Y017382D01*
X001313Y017382D01*
X001357Y017378D01*
X001400Y017370D01*
X001443Y017358D01*
X001484Y017342D01*
X001524Y017323D01*
X001562Y017301D01*
X001598Y017275D01*
X001631Y017246D01*
X001662Y017214D01*
X001689Y017179D01*
X001713Y017142D01*
X001734Y017103D01*
X001752Y017063D01*
X001765Y017021D01*
X001775Y016978D01*
X001781Y016934D01*
X001783Y016890D01*
X001781Y016846D01*
X001775Y016802D01*
X001765Y016759D01*
X001752Y016717D01*
X001734Y016677D01*
X001713Y016638D01*
X001689Y016601D01*
X001662Y016566D01*
X001631Y016534D01*
X001598Y016505D01*
X001562Y016479D01*
X001524Y016457D01*
X001484Y016438D01*
X001443Y016422D01*
X001400Y016410D01*
X001357Y016402D01*
X001313Y016398D01*
X001269Y016398D01*
X001225Y016402D01*
X001182Y016410D01*
X001139Y016422D01*
X001098Y016438D01*
X001058Y016457D01*
X001020Y016479D01*
X000984Y016505D01*
X000951Y016534D01*
X000920Y016566D01*
X000893Y016601D01*
X000869Y016638D01*
X000848Y016677D01*
X000830Y016717D01*
X000817Y016759D01*
X000807Y016802D01*
X000801Y016846D01*
X000799Y016890D01*
X000799Y029095D02*
X000801Y029139D01*
X000807Y029183D01*
X000817Y029226D01*
X000830Y029268D01*
X000848Y029308D01*
X000869Y029347D01*
X000893Y029384D01*
X000920Y029419D01*
X000951Y029451D01*
X000984Y029480D01*
X001020Y029506D01*
X001058Y029528D01*
X001098Y029547D01*
X001139Y029563D01*
X001182Y029575D01*
X001225Y029583D01*
X001269Y029587D01*
X001313Y029587D01*
X001357Y029583D01*
X001400Y029575D01*
X001443Y029563D01*
X001484Y029547D01*
X001524Y029528D01*
X001562Y029506D01*
X001598Y029480D01*
X001631Y029451D01*
X001662Y029419D01*
X001689Y029384D01*
X001713Y029347D01*
X001734Y029308D01*
X001752Y029268D01*
X001765Y029226D01*
X001775Y029183D01*
X001781Y029139D01*
X001783Y029095D01*
X001781Y029051D01*
X001775Y029007D01*
X001765Y028964D01*
X001752Y028922D01*
X001734Y028882D01*
X001713Y028843D01*
X001689Y028806D01*
X001662Y028771D01*
X001631Y028739D01*
X001598Y028710D01*
X001562Y028684D01*
X001524Y028662D01*
X001484Y028643D01*
X001443Y028627D01*
X001400Y028615D01*
X001357Y028607D01*
X001313Y028603D01*
X001269Y028603D01*
X001225Y028607D01*
X001182Y028615D01*
X001139Y028627D01*
X001098Y028643D01*
X001058Y028662D01*
X001020Y028684D01*
X000984Y028710D01*
X000951Y028739D01*
X000920Y028771D01*
X000893Y028806D01*
X000869Y028843D01*
X000848Y028882D01*
X000830Y028922D01*
X000817Y028964D01*
X000807Y029007D01*
X000801Y029051D01*
X000799Y029095D01*
X030327Y029095D02*
X030329Y029139D01*
X030335Y029183D01*
X030345Y029226D01*
X030358Y029268D01*
X030376Y029308D01*
X030397Y029347D01*
X030421Y029384D01*
X030448Y029419D01*
X030479Y029451D01*
X030512Y029480D01*
X030548Y029506D01*
X030586Y029528D01*
X030626Y029547D01*
X030667Y029563D01*
X030710Y029575D01*
X030753Y029583D01*
X030797Y029587D01*
X030841Y029587D01*
X030885Y029583D01*
X030928Y029575D01*
X030971Y029563D01*
X031012Y029547D01*
X031052Y029528D01*
X031090Y029506D01*
X031126Y029480D01*
X031159Y029451D01*
X031190Y029419D01*
X031217Y029384D01*
X031241Y029347D01*
X031262Y029308D01*
X031280Y029268D01*
X031293Y029226D01*
X031303Y029183D01*
X031309Y029139D01*
X031311Y029095D01*
X031309Y029051D01*
X031303Y029007D01*
X031293Y028964D01*
X031280Y028922D01*
X031262Y028882D01*
X031241Y028843D01*
X031217Y028806D01*
X031190Y028771D01*
X031159Y028739D01*
X031126Y028710D01*
X031090Y028684D01*
X031052Y028662D01*
X031012Y028643D01*
X030971Y028627D01*
X030928Y028615D01*
X030885Y028607D01*
X030841Y028603D01*
X030797Y028603D01*
X030753Y028607D01*
X030710Y028615D01*
X030667Y028627D01*
X030626Y028643D01*
X030586Y028662D01*
X030548Y028684D01*
X030512Y028710D01*
X030479Y028739D01*
X030448Y028771D01*
X030421Y028806D01*
X030397Y028843D01*
X030376Y028882D01*
X030358Y028922D01*
X030345Y028964D01*
X030335Y029007D01*
X030329Y029051D01*
X030327Y029095D01*
X030327Y016890D02*
X030329Y016934D01*
X030335Y016978D01*
X030345Y017021D01*
X030358Y017063D01*
X030376Y017103D01*
X030397Y017142D01*
X030421Y017179D01*
X030448Y017214D01*
X030479Y017246D01*
X030512Y017275D01*
X030548Y017301D01*
X030586Y017323D01*
X030626Y017342D01*
X030667Y017358D01*
X030710Y017370D01*
X030753Y017378D01*
X030797Y017382D01*
X030841Y017382D01*
X030885Y017378D01*
X030928Y017370D01*
X030971Y017358D01*
X031012Y017342D01*
X031052Y017323D01*
X031090Y017301D01*
X031126Y017275D01*
X031159Y017246D01*
X031190Y017214D01*
X031217Y017179D01*
X031241Y017142D01*
X031262Y017103D01*
X031280Y017063D01*
X031293Y017021D01*
X031303Y016978D01*
X031309Y016934D01*
X031311Y016890D01*
X031309Y016846D01*
X031303Y016802D01*
X031293Y016759D01*
X031280Y016717D01*
X031262Y016677D01*
X031241Y016638D01*
X031217Y016601D01*
X031190Y016566D01*
X031159Y016534D01*
X031126Y016505D01*
X031090Y016479D01*
X031052Y016457D01*
X031012Y016438D01*
X030971Y016422D01*
X030928Y016410D01*
X030885Y016402D01*
X030841Y016398D01*
X030797Y016398D01*
X030753Y016402D01*
X030710Y016410D01*
X030667Y016422D01*
X030626Y016438D01*
X030586Y016457D01*
X030548Y016479D01*
X030512Y016505D01*
X030479Y016534D01*
X030448Y016566D01*
X030421Y016601D01*
X030397Y016638D01*
X030376Y016677D01*
X030358Y016717D01*
X030345Y016759D01*
X030335Y016802D01*
X030329Y016846D01*
X030327Y016890D01*
X030327Y013470D02*
X030329Y013514D01*
X030335Y013558D01*
X030345Y013601D01*
X030358Y013643D01*
X030376Y013683D01*
X030397Y013722D01*
X030421Y013759D01*
X030448Y013794D01*
X030479Y013826D01*
X030512Y013855D01*
X030548Y013881D01*
X030586Y013903D01*
X030626Y013922D01*
X030667Y013938D01*
X030710Y013950D01*
X030753Y013958D01*
X030797Y013962D01*
X030841Y013962D01*
X030885Y013958D01*
X030928Y013950D01*
X030971Y013938D01*
X031012Y013922D01*
X031052Y013903D01*
X031090Y013881D01*
X031126Y013855D01*
X031159Y013826D01*
X031190Y013794D01*
X031217Y013759D01*
X031241Y013722D01*
X031262Y013683D01*
X031280Y013643D01*
X031293Y013601D01*
X031303Y013558D01*
X031309Y013514D01*
X031311Y013470D01*
X031309Y013426D01*
X031303Y013382D01*
X031293Y013339D01*
X031280Y013297D01*
X031262Y013257D01*
X031241Y013218D01*
X031217Y013181D01*
X031190Y013146D01*
X031159Y013114D01*
X031126Y013085D01*
X031090Y013059D01*
X031052Y013037D01*
X031012Y013018D01*
X030971Y013002D01*
X030928Y012990D01*
X030885Y012982D01*
X030841Y012978D01*
X030797Y012978D01*
X030753Y012982D01*
X030710Y012990D01*
X030667Y013002D01*
X030626Y013018D01*
X030586Y013037D01*
X030548Y013059D01*
X030512Y013085D01*
X030479Y013114D01*
X030448Y013146D01*
X030421Y013181D01*
X030397Y013218D01*
X030376Y013257D01*
X030358Y013297D01*
X030345Y013339D01*
X030335Y013382D01*
X030329Y013426D01*
X030327Y013470D01*
X030327Y001265D02*
X030329Y001309D01*
X030335Y001353D01*
X030345Y001396D01*
X030358Y001438D01*
X030376Y001478D01*
X030397Y001517D01*
X030421Y001554D01*
X030448Y001589D01*
X030479Y001621D01*
X030512Y001650D01*
X030548Y001676D01*
X030586Y001698D01*
X030626Y001717D01*
X030667Y001733D01*
X030710Y001745D01*
X030753Y001753D01*
X030797Y001757D01*
X030841Y001757D01*
X030885Y001753D01*
X030928Y001745D01*
X030971Y001733D01*
X031012Y001717D01*
X031052Y001698D01*
X031090Y001676D01*
X031126Y001650D01*
X031159Y001621D01*
X031190Y001589D01*
X031217Y001554D01*
X031241Y001517D01*
X031262Y001478D01*
X031280Y001438D01*
X031293Y001396D01*
X031303Y001353D01*
X031309Y001309D01*
X031311Y001265D01*
X031309Y001221D01*
X031303Y001177D01*
X031293Y001134D01*
X031280Y001092D01*
X031262Y001052D01*
X031241Y001013D01*
X031217Y000976D01*
X031190Y000941D01*
X031159Y000909D01*
X031126Y000880D01*
X031090Y000854D01*
X031052Y000832D01*
X031012Y000813D01*
X030971Y000797D01*
X030928Y000785D01*
X030885Y000777D01*
X030841Y000773D01*
X030797Y000773D01*
X030753Y000777D01*
X030710Y000785D01*
X030667Y000797D01*
X030626Y000813D01*
X030586Y000832D01*
X030548Y000854D01*
X030512Y000880D01*
X030479Y000909D01*
X030448Y000941D01*
X030421Y000976D01*
X030397Y001013D01*
X030376Y001052D01*
X030358Y001092D01*
X030345Y001134D01*
X030335Y001177D01*
X030329Y001221D01*
X030327Y001265D01*
D11*
X029058Y002167D02*
X029058Y002360D01*
X029058Y002167D02*
X028961Y002070D01*
X028865Y002167D01*
X028865Y002360D01*
X028763Y002360D02*
X028570Y002360D01*
X028570Y002215D01*
X028667Y002264D01*
X028715Y002264D01*
X028763Y002215D01*
X028763Y002118D01*
X028715Y002070D01*
X028618Y002070D01*
X028570Y002118D01*
X028648Y003499D02*
X028648Y003644D01*
X028600Y003692D01*
X028503Y003692D01*
X028455Y003644D01*
X028455Y003499D01*
X028745Y003499D01*
X028648Y003595D02*
X028745Y003692D01*
X028745Y003793D02*
X028551Y003987D01*
X028503Y003987D01*
X028455Y003938D01*
X028455Y003842D01*
X028503Y003793D01*
X028745Y003793D02*
X028745Y003987D01*
X028745Y004088D02*
X028551Y004281D01*
X028503Y004281D01*
X028455Y004233D01*
X028455Y004136D01*
X028503Y004088D01*
X028745Y004088D02*
X028745Y004281D01*
X030132Y003624D02*
X030132Y003431D01*
X030181Y003383D01*
X030278Y003383D01*
X030326Y003431D01*
X030326Y003528D01*
X030229Y003528D01*
X030132Y003624D02*
X030181Y003673D01*
X030278Y003673D01*
X030326Y003624D01*
X030427Y003576D02*
X030427Y003383D01*
X030427Y003576D02*
X030572Y003576D01*
X030621Y003528D01*
X030621Y003383D01*
X030722Y003431D02*
X030722Y003528D01*
X030770Y003576D01*
X030915Y003576D01*
X030915Y003673D02*
X030915Y003383D01*
X030770Y003383D01*
X030722Y003431D01*
X030124Y006633D02*
X030124Y006826D01*
X030220Y006826D02*
X030269Y006826D01*
X030220Y006826D02*
X030124Y006729D01*
X030022Y006729D02*
X029829Y006729D01*
X029829Y006681D02*
X029829Y006778D01*
X029877Y006826D01*
X029974Y006826D01*
X030022Y006778D01*
X030022Y006729D01*
X029974Y006633D02*
X029877Y006633D01*
X029829Y006681D01*
X029728Y006681D02*
X029728Y006826D01*
X029728Y006681D02*
X029679Y006633D01*
X029631Y006681D01*
X029583Y006633D01*
X029534Y006681D01*
X029534Y006826D01*
X029433Y006778D02*
X029385Y006826D01*
X029288Y006826D01*
X029240Y006778D01*
X029240Y006681D01*
X029288Y006633D01*
X029385Y006633D01*
X029433Y006681D01*
X029433Y006778D01*
X029138Y006778D02*
X029138Y006874D01*
X029090Y006923D01*
X028945Y006923D01*
X028945Y006633D01*
X028945Y006729D02*
X029090Y006729D01*
X029138Y006778D01*
X028090Y008008D02*
X027945Y008104D01*
X028090Y008201D01*
X027945Y008298D02*
X027945Y008008D01*
X027844Y009038D02*
X027650Y009038D01*
X027747Y009038D02*
X027747Y009328D01*
X027650Y009231D01*
X027549Y009038D02*
X027356Y009038D01*
X027452Y009038D02*
X027452Y009328D01*
X027356Y009231D01*
X027255Y009183D02*
X027206Y009134D01*
X027061Y009134D01*
X027061Y009038D02*
X027061Y009328D01*
X027206Y009328D01*
X027255Y009279D01*
X027255Y009183D01*
X027158Y009134D02*
X027255Y009038D01*
X026308Y007948D02*
X026211Y007899D01*
X026115Y007803D01*
X026260Y007803D01*
X026308Y007754D01*
X026308Y007706D01*
X026260Y007658D01*
X026163Y007658D01*
X026115Y007706D01*
X026115Y007803D01*
X026013Y007899D02*
X025965Y007948D01*
X025868Y007948D01*
X025820Y007899D01*
X025820Y007706D01*
X025868Y007658D01*
X025965Y007658D01*
X026013Y007706D01*
X024686Y006548D02*
X024686Y006258D01*
X024590Y006258D02*
X024783Y006258D01*
X024590Y006451D02*
X024686Y006548D01*
X024488Y006499D02*
X024440Y006548D01*
X024295Y006548D01*
X024295Y006258D01*
X024440Y006258D01*
X024488Y006306D01*
X024488Y006499D01*
X024133Y007375D02*
X024133Y007665D01*
X023988Y007520D01*
X024181Y007520D01*
X023887Y007423D02*
X023838Y007375D01*
X023742Y007375D01*
X023693Y007423D01*
X023693Y007617D01*
X023742Y007665D01*
X023838Y007665D01*
X023887Y007617D01*
X024779Y009250D02*
X024731Y009298D01*
X024731Y009492D01*
X024779Y009540D01*
X024876Y009540D01*
X024924Y009492D01*
X024924Y009298D01*
X024876Y009250D01*
X024779Y009250D01*
X024827Y009347D02*
X024924Y009250D01*
X025025Y009250D02*
X025219Y009250D01*
X025122Y009250D02*
X025122Y009540D01*
X025025Y009444D01*
X024338Y011758D02*
X024215Y011881D01*
X024277Y011881D02*
X024091Y011881D01*
X024091Y011758D02*
X024091Y012128D01*
X024277Y012128D01*
X024338Y012066D01*
X024338Y011943D01*
X024277Y011881D01*
X023970Y011758D02*
X023723Y012128D01*
X023602Y012066D02*
X023602Y012004D01*
X023540Y011943D01*
X023355Y011943D01*
X023233Y012004D02*
X023109Y012004D01*
X023171Y012066D02*
X023171Y011819D01*
X023233Y011758D01*
X023355Y011758D02*
X023540Y011758D01*
X023602Y011819D01*
X023602Y011881D01*
X023540Y011943D01*
X023602Y012066D02*
X023540Y012128D01*
X023355Y012128D01*
X023355Y011758D01*
X023723Y011758D02*
X023970Y012128D01*
X022988Y011943D02*
X022988Y011758D01*
X022988Y011943D02*
X022926Y012004D01*
X022741Y012004D01*
X022741Y011758D01*
X022620Y011881D02*
X022373Y011881D01*
X022373Y011943D02*
X022434Y012004D01*
X022558Y012004D01*
X022620Y011943D01*
X022620Y011881D01*
X022558Y011758D02*
X022434Y011758D01*
X022373Y011819D01*
X022373Y011943D01*
X022251Y012004D02*
X022189Y012004D01*
X022066Y011881D01*
X021944Y011881D02*
X021944Y011819D01*
X021883Y011758D01*
X021697Y011758D01*
X021697Y012128D01*
X021883Y012128D01*
X021944Y012066D01*
X021944Y012004D01*
X021883Y011943D01*
X021697Y011943D01*
X021883Y011943D02*
X021944Y011881D01*
X022066Y011758D02*
X022066Y012004D01*
X021576Y012128D02*
X021329Y011758D01*
X021208Y011758D02*
X021208Y012128D01*
X021084Y012004D01*
X020961Y012128D01*
X020961Y011758D01*
X020839Y011758D02*
X020654Y011881D01*
X020839Y012004D01*
X020654Y012128D02*
X020654Y011758D01*
X020532Y011758D02*
X020347Y011758D01*
X020286Y011819D01*
X020286Y011943D01*
X020347Y012004D01*
X020532Y012004D01*
X020163Y011758D02*
X020040Y011758D01*
X020102Y011758D02*
X020102Y012004D01*
X020040Y012004D01*
X020102Y012128D02*
X020102Y012190D01*
X019919Y012128D02*
X019919Y011758D01*
X019672Y011758D02*
X019672Y012128D01*
X019795Y012004D01*
X019919Y012128D01*
X019182Y011943D02*
X018935Y011943D01*
X018445Y012004D02*
X018383Y012004D01*
X018260Y011881D01*
X018138Y011881D02*
X017892Y011881D01*
X017892Y011943D02*
X017953Y012004D01*
X018077Y012004D01*
X018138Y011943D01*
X018138Y011881D01*
X018077Y011758D02*
X017953Y011758D01*
X017892Y011819D01*
X017892Y011943D01*
X017769Y012004D02*
X017646Y012004D01*
X017708Y012066D02*
X017708Y011819D01*
X017769Y011758D01*
X017525Y011819D02*
X017463Y011881D01*
X017339Y011881D01*
X017278Y011943D01*
X017339Y012004D01*
X017525Y012004D01*
X017525Y011819D02*
X017463Y011758D01*
X017278Y011758D01*
X017156Y011881D02*
X016909Y011881D01*
X016909Y011943D02*
X016971Y012004D01*
X017095Y012004D01*
X017156Y011943D01*
X017156Y011881D01*
X017095Y011758D02*
X016971Y011758D01*
X016909Y011819D01*
X016909Y011943D01*
X016788Y012128D02*
X016541Y012128D01*
X016664Y012128D02*
X016664Y011758D01*
X016051Y011758D02*
X015989Y011819D01*
X015989Y012066D01*
X015927Y012004D02*
X016051Y012004D01*
X015806Y011943D02*
X015806Y011758D01*
X015806Y011943D02*
X015744Y012004D01*
X015559Y012004D01*
X015559Y011758D01*
X015437Y011881D02*
X015191Y011881D01*
X015191Y011943D02*
X015252Y012004D01*
X015376Y012004D01*
X015437Y011943D01*
X015437Y011881D01*
X015376Y011758D02*
X015252Y011758D01*
X015191Y011819D01*
X015191Y011943D01*
X015069Y011943D02*
X015069Y011758D01*
X015069Y011943D02*
X015007Y012004D01*
X014822Y012004D01*
X014822Y011758D01*
X014701Y011819D02*
X014701Y011943D01*
X014639Y012004D01*
X014516Y012004D01*
X014454Y011943D01*
X014454Y011819D01*
X014516Y011758D01*
X014639Y011758D01*
X014701Y011819D01*
X014332Y011819D02*
X014271Y011758D01*
X014086Y011758D01*
X013964Y011758D02*
X013964Y011943D01*
X013902Y012004D01*
X013841Y011943D01*
X013841Y011758D01*
X013717Y011758D02*
X013717Y012004D01*
X013779Y012004D01*
X013841Y011943D01*
X013596Y011943D02*
X013534Y012004D01*
X013411Y012004D01*
X013349Y011943D01*
X013349Y011819D01*
X013411Y011758D01*
X013534Y011758D01*
X013596Y011819D01*
X013596Y011943D01*
X013228Y012066D02*
X013166Y012128D01*
X013042Y012128D01*
X012981Y012066D01*
X012981Y011819D01*
X013042Y011758D01*
X013166Y011758D01*
X013228Y011819D01*
X012491Y011758D02*
X012367Y011881D01*
X012429Y011881D02*
X012244Y011881D01*
X012123Y011881D02*
X011999Y011758D01*
X011876Y011881D01*
X011876Y012128D01*
X011754Y012004D02*
X011754Y011758D01*
X011754Y011943D02*
X011507Y011943D01*
X011507Y012004D02*
X011631Y012128D01*
X011754Y012004D01*
X011507Y012004D02*
X011507Y011758D01*
X012123Y011881D02*
X012123Y012128D01*
X012244Y012128D02*
X012429Y012128D01*
X012491Y012066D01*
X012491Y011943D01*
X012429Y011881D01*
X012244Y011758D02*
X012244Y012128D01*
X010969Y013101D02*
X010920Y013053D01*
X010824Y013053D01*
X010775Y013101D01*
X010775Y013198D02*
X010872Y013246D01*
X010920Y013246D01*
X010969Y013198D01*
X010969Y013101D01*
X010775Y013198D02*
X010775Y013343D01*
X010969Y013343D01*
X010577Y013343D02*
X010577Y013053D01*
X010481Y013053D02*
X010674Y013053D01*
X010481Y013246D02*
X010577Y013343D01*
X010380Y013294D02*
X010380Y013198D01*
X010331Y013149D01*
X010186Y013149D01*
X010186Y013053D02*
X010186Y013343D01*
X010331Y013343D01*
X010380Y013294D01*
X010283Y013149D02*
X010380Y013053D01*
X010406Y011173D02*
X010213Y011173D01*
X010112Y011124D02*
X010063Y011173D01*
X009918Y011173D01*
X009918Y010883D01*
X010063Y010883D01*
X010112Y010931D01*
X010112Y010979D01*
X010063Y011028D01*
X009918Y011028D01*
X009817Y011028D02*
X009769Y010979D01*
X009624Y010979D01*
X009624Y010883D02*
X009624Y011173D01*
X009769Y011173D01*
X009817Y011124D01*
X009817Y011028D01*
X010063Y011028D02*
X010112Y011076D01*
X010112Y011124D01*
X010213Y010931D02*
X010213Y010883D01*
X010213Y010931D02*
X010406Y011124D01*
X010406Y011173D01*
X009522Y011028D02*
X009329Y011028D01*
X009228Y010979D02*
X009179Y011028D01*
X009034Y011028D01*
X009034Y010931D01*
X009083Y010883D01*
X009179Y010883D01*
X009228Y010931D01*
X009228Y010979D01*
X009131Y011124D02*
X009034Y011028D01*
X008933Y011076D02*
X008885Y011028D01*
X008740Y011028D01*
X008638Y011028D02*
X008590Y010979D01*
X008445Y010979D01*
X008445Y010883D02*
X008445Y011173D01*
X008590Y011173D01*
X008638Y011124D01*
X008638Y011028D01*
X008740Y010883D02*
X008740Y011173D01*
X008885Y011173D01*
X008933Y011124D01*
X008933Y011076D01*
X008885Y011028D02*
X008933Y010979D01*
X008933Y010931D01*
X008885Y010883D01*
X008740Y010883D01*
X009131Y011124D02*
X009228Y011173D01*
X006945Y013813D02*
X006849Y013813D01*
X006800Y013861D01*
X006699Y013861D02*
X006651Y013813D01*
X006554Y013813D01*
X006506Y013861D01*
X006506Y014054D01*
X006554Y014103D01*
X006651Y014103D01*
X006699Y014054D01*
X006800Y014054D02*
X006849Y014103D01*
X006945Y014103D01*
X006994Y014054D01*
X006994Y014006D01*
X006945Y013958D01*
X006994Y013909D01*
X006994Y013861D01*
X006945Y013813D01*
X006945Y013958D02*
X006897Y013958D01*
X004005Y011499D02*
X004005Y011403D01*
X003956Y011354D01*
X003811Y011354D01*
X003811Y011258D02*
X003811Y011548D01*
X003956Y011548D01*
X004005Y011499D01*
X003710Y011499D02*
X003662Y011548D01*
X003565Y011548D01*
X003516Y011499D01*
X003516Y011451D01*
X003565Y011403D01*
X003662Y011403D01*
X003710Y011354D01*
X003710Y011306D01*
X003662Y011258D01*
X003565Y011258D01*
X003516Y011306D01*
X003417Y011258D02*
X003320Y011258D01*
X003368Y011258D02*
X003368Y011548D01*
X003320Y011548D02*
X003417Y011548D01*
X002013Y011758D02*
X001820Y011758D01*
X001917Y011758D02*
X001917Y012048D01*
X001820Y011951D01*
X004945Y011004D02*
X005068Y011128D01*
X005068Y010758D01*
X004945Y010758D02*
X005192Y010758D01*
X005699Y008298D02*
X005796Y008298D01*
X005844Y008249D01*
X005844Y008201D01*
X005796Y008153D01*
X005844Y008104D01*
X005844Y008056D01*
X005796Y008008D01*
X005699Y008008D01*
X005650Y008056D01*
X005549Y008104D02*
X005404Y008104D01*
X005356Y008056D01*
X005404Y008008D01*
X005549Y008008D01*
X005549Y008153D01*
X005501Y008201D01*
X005404Y008201D01*
X005255Y008201D02*
X005109Y008201D01*
X005061Y008153D01*
X005061Y008056D01*
X005109Y008008D01*
X005255Y008008D01*
X005255Y007959D02*
X005255Y008201D01*
X005255Y007959D02*
X005206Y007911D01*
X005158Y007911D01*
X004912Y008008D02*
X004815Y008008D01*
X004766Y008056D01*
X004766Y008153D01*
X004815Y008201D01*
X004912Y008201D01*
X004960Y008153D01*
X004960Y008104D01*
X004766Y008104D01*
X004665Y008008D02*
X004665Y008298D01*
X004569Y008201D01*
X004472Y008298D01*
X004472Y008008D01*
X004274Y008008D02*
X004274Y008298D01*
X004177Y008298D02*
X004371Y008298D01*
X004076Y008201D02*
X004076Y008008D01*
X004076Y008153D02*
X003882Y008153D01*
X003882Y008201D02*
X003979Y008298D01*
X004076Y008201D01*
X003882Y008201D02*
X003882Y008008D01*
X005650Y008249D02*
X005699Y008298D01*
X005747Y008153D02*
X005796Y008153D01*
X005945Y008249D02*
X005993Y008298D01*
X006090Y008298D01*
X006139Y008249D01*
X006139Y008201D01*
X005945Y008008D01*
X006139Y008008D01*
X006240Y008056D02*
X006240Y008104D01*
X006288Y008153D01*
X006385Y008153D01*
X006433Y008104D01*
X006433Y008056D01*
X006385Y008008D01*
X006288Y008008D01*
X006240Y008056D01*
X006288Y008153D02*
X006240Y008201D01*
X006240Y008249D01*
X006288Y008298D01*
X006385Y008298D01*
X006433Y008249D01*
X006433Y008201D01*
X006385Y008153D01*
X006534Y008104D02*
X006679Y008104D01*
X006728Y008153D01*
X006728Y008249D01*
X006679Y008298D01*
X006534Y008298D01*
X006534Y008008D01*
X009343Y004923D02*
X009295Y004874D01*
X009295Y004681D01*
X009343Y004633D01*
X009440Y004633D01*
X009488Y004681D01*
X009590Y004633D02*
X009783Y004633D01*
X009686Y004633D02*
X009686Y004923D01*
X009590Y004826D01*
X009488Y004874D02*
X009440Y004923D01*
X009343Y004923D01*
X007557Y003969D02*
X007557Y003775D01*
X007364Y003969D01*
X007316Y003969D01*
X007267Y003921D01*
X007267Y003824D01*
X007316Y003775D01*
X007316Y003674D02*
X007412Y003674D01*
X007461Y003626D01*
X007461Y003481D01*
X007557Y003481D02*
X007267Y003481D01*
X007267Y003626D01*
X007316Y003674D01*
X007461Y003577D02*
X007557Y003674D01*
X006557Y003650D02*
X006557Y003844D01*
X006557Y003747D02*
X006267Y003747D01*
X006364Y003650D01*
X006316Y003549D02*
X006412Y003549D01*
X006461Y003501D01*
X006461Y003356D01*
X006557Y003356D02*
X006267Y003356D01*
X006267Y003501D01*
X006316Y003549D01*
X006461Y003452D02*
X006557Y003549D01*
X005557Y003481D02*
X005267Y003481D01*
X005267Y003626D01*
X005316Y003674D01*
X005412Y003674D01*
X005461Y003626D01*
X005461Y003481D01*
X005461Y003577D02*
X005557Y003674D01*
X005509Y003775D02*
X005412Y003775D01*
X005412Y003921D01*
X005461Y003969D01*
X005509Y003969D01*
X005557Y003921D01*
X005557Y003824D01*
X005509Y003775D01*
X005412Y003775D02*
X005316Y003872D01*
X005267Y003969D01*
X004620Y003920D02*
X004620Y003824D01*
X004572Y003775D01*
X004475Y003775D02*
X004426Y003872D01*
X004426Y003920D01*
X004475Y003969D01*
X004572Y003969D01*
X004620Y003920D01*
X004475Y003775D02*
X004330Y003775D01*
X004330Y003969D01*
X004378Y003674D02*
X004475Y003674D01*
X004523Y003626D01*
X004523Y003481D01*
X004523Y003577D02*
X004620Y003674D01*
X004620Y003481D02*
X004330Y003481D01*
X004330Y003626D01*
X004378Y003674D01*
X003557Y003674D02*
X003461Y003577D01*
X003461Y003626D02*
X003461Y003481D01*
X003557Y003481D02*
X003267Y003481D01*
X003267Y003626D01*
X003316Y003674D01*
X003412Y003674D01*
X003461Y003626D01*
X003412Y003775D02*
X003412Y003969D01*
X003267Y003920D02*
X003412Y003775D01*
X003557Y003920D02*
X003267Y003920D01*
X002557Y003886D02*
X002509Y003838D01*
X002557Y003886D02*
X002557Y003983D01*
X002509Y004031D01*
X002461Y004031D01*
X002412Y003983D01*
X002412Y003935D01*
X002412Y003983D02*
X002364Y004031D01*
X002316Y004031D01*
X002267Y003983D01*
X002267Y003886D01*
X002316Y003838D01*
X002316Y003737D02*
X002412Y003737D01*
X002461Y003688D01*
X002461Y003543D01*
X002557Y003543D02*
X002267Y003543D01*
X002267Y003688D01*
X002316Y003737D01*
X002461Y003640D02*
X002557Y003737D01*
X003945Y002110D02*
X004090Y002110D01*
X004138Y002062D01*
X004138Y001965D01*
X004090Y001917D01*
X003945Y001917D01*
X003945Y001820D02*
X003945Y002110D01*
X004240Y002013D02*
X004240Y001820D01*
X004240Y001917D02*
X004336Y002013D01*
X004385Y002013D01*
X004485Y001965D02*
X004485Y001868D01*
X004534Y001820D01*
X004630Y001820D01*
X004679Y001868D01*
X004679Y001965D01*
X004630Y002013D01*
X004534Y002013D01*
X004485Y001965D01*
X004780Y002013D02*
X004925Y002013D01*
X004973Y001965D01*
X004973Y001868D01*
X004925Y001820D01*
X004780Y001820D01*
X004780Y002110D01*
X005074Y001965D02*
X005123Y002013D01*
X005220Y002013D01*
X005268Y001965D01*
X005268Y001917D01*
X005074Y001917D01*
X005074Y001965D02*
X005074Y001868D01*
X005123Y001820D01*
X005220Y001820D01*
X005369Y001820D02*
X005514Y001820D01*
X005563Y001868D01*
X005514Y001917D01*
X005417Y001917D01*
X005369Y001965D01*
X005417Y002013D01*
X005563Y002013D01*
X010757Y002063D02*
X010757Y002353D01*
X010903Y002353D01*
X010951Y002304D01*
X010951Y002208D01*
X010903Y002159D01*
X010757Y002159D01*
X011052Y002111D02*
X011052Y002304D01*
X011100Y002353D01*
X011197Y002353D01*
X011246Y002304D01*
X011347Y002304D02*
X011395Y002353D01*
X011492Y002353D01*
X011540Y002304D01*
X011540Y002256D01*
X011492Y002208D01*
X011540Y002159D01*
X011540Y002111D01*
X011492Y002063D01*
X011395Y002063D01*
X011347Y002111D01*
X011246Y002111D02*
X011197Y002063D01*
X011100Y002063D01*
X011052Y002111D01*
X011443Y002208D02*
X011492Y002208D01*
X011641Y002208D02*
X011835Y002208D01*
X011936Y002159D02*
X012081Y002159D01*
X012130Y002208D01*
X012130Y002304D01*
X012081Y002353D01*
X011936Y002353D01*
X011936Y002063D01*
X012231Y002111D02*
X012231Y002304D01*
X012279Y002353D01*
X012376Y002353D01*
X012424Y002304D01*
X012525Y002208D02*
X012719Y002208D01*
X012670Y002353D02*
X012525Y002208D01*
X012424Y002111D02*
X012376Y002063D01*
X012279Y002063D01*
X012231Y002111D01*
X012670Y002063D02*
X012670Y002353D01*
X012692Y002758D02*
X012445Y002758D01*
X012568Y002758D02*
X012568Y003128D01*
X012445Y003004D01*
X014257Y004258D02*
X014257Y004628D01*
X014443Y004504D02*
X014257Y004381D01*
X014443Y004258D01*
X015182Y002844D02*
X015182Y002650D01*
X015182Y002747D02*
X014892Y002747D01*
X014989Y002650D01*
X014989Y002549D02*
X014941Y002549D01*
X014892Y002501D01*
X014892Y002404D01*
X014941Y002356D01*
X014941Y002255D02*
X015037Y002255D01*
X015086Y002206D01*
X015086Y002061D01*
X015182Y002061D02*
X014892Y002061D01*
X014892Y002206D01*
X014941Y002255D01*
X015086Y002158D02*
X015182Y002255D01*
X015182Y002356D02*
X014989Y002549D01*
X015182Y002549D02*
X015182Y002356D01*
X015677Y002399D02*
X015967Y002399D01*
X015967Y002302D02*
X015967Y002496D01*
X015967Y002597D02*
X015774Y002790D01*
X015726Y002790D01*
X015677Y002742D01*
X015677Y002645D01*
X015726Y002597D01*
X015677Y002399D02*
X015774Y002302D01*
X015822Y002201D02*
X015871Y002153D01*
X015871Y002008D01*
X015871Y002104D02*
X015967Y002201D01*
X015822Y002201D02*
X015726Y002201D01*
X015677Y002153D01*
X015677Y002008D01*
X015967Y002008D01*
X015967Y002597D02*
X015967Y002790D01*
X017856Y002679D02*
X017904Y002728D01*
X018001Y002728D01*
X018049Y002679D01*
X018049Y002486D01*
X018001Y002438D01*
X017904Y002438D01*
X017856Y002486D01*
X017856Y002679D01*
X017952Y002534D02*
X018049Y002438D01*
X018150Y002486D02*
X018199Y002438D01*
X018295Y002438D01*
X018344Y002486D01*
X018344Y002534D01*
X018295Y002583D01*
X018247Y002583D01*
X018295Y002583D02*
X018344Y002631D01*
X018344Y002679D01*
X018295Y002728D01*
X018199Y002728D01*
X018150Y002679D01*
X019882Y002633D02*
X019979Y002633D01*
X019931Y002633D02*
X019931Y002923D01*
X019979Y002923D02*
X019882Y002923D01*
X020079Y002874D02*
X020079Y002681D01*
X020127Y002633D01*
X020224Y002633D01*
X020272Y002681D01*
X020374Y002633D02*
X020567Y002826D01*
X020567Y002874D01*
X020519Y002923D01*
X020422Y002923D01*
X020374Y002874D01*
X020272Y002874D02*
X020224Y002923D01*
X020127Y002923D01*
X020079Y002874D01*
X020374Y002633D02*
X020567Y002633D01*
X022195Y002628D02*
X022442Y002628D01*
X022318Y002628D02*
X022318Y002258D01*
X022340Y002173D02*
X022243Y002173D01*
X022195Y002124D01*
X022195Y002076D01*
X022243Y002028D01*
X022340Y002028D01*
X022388Y001979D01*
X022388Y001931D01*
X022340Y001883D01*
X022243Y001883D01*
X022195Y001931D01*
X022388Y002124D02*
X022340Y002173D01*
X022490Y002076D02*
X022490Y001931D01*
X022538Y001883D01*
X022586Y001931D01*
X022635Y001883D01*
X022683Y001931D01*
X022683Y002076D01*
X022784Y002076D02*
X022833Y002076D01*
X022833Y001883D01*
X022881Y001883D02*
X022784Y001883D01*
X023029Y001931D02*
X023077Y001883D01*
X023029Y001931D02*
X023029Y002124D01*
X022981Y002076D02*
X023077Y002076D01*
X023177Y002028D02*
X023177Y001931D01*
X023226Y001883D01*
X023371Y001883D01*
X023472Y001883D02*
X023472Y002173D01*
X023423Y002258D02*
X023362Y002319D01*
X023362Y002566D01*
X023423Y002504D02*
X023300Y002504D01*
X023178Y002504D02*
X022993Y002504D01*
X022932Y002443D01*
X022993Y002381D01*
X023117Y002381D01*
X023178Y002319D01*
X023117Y002258D01*
X022932Y002258D01*
X022833Y002221D02*
X022833Y002173D01*
X022748Y002258D02*
X022625Y002258D01*
X022563Y002319D01*
X022563Y002443D01*
X022625Y002504D01*
X022748Y002504D01*
X022810Y002443D01*
X022810Y002381D01*
X022563Y002381D01*
X023177Y002028D02*
X023226Y002076D01*
X023371Y002076D01*
X023472Y002028D02*
X023520Y002076D01*
X023617Y002076D01*
X023665Y002028D01*
X023665Y001883D01*
X024382Y003158D02*
X024576Y003158D01*
X024677Y003158D02*
X024677Y003448D01*
X024871Y003448D01*
X024972Y003448D02*
X024972Y003158D01*
X025117Y003158D01*
X025165Y003206D01*
X025165Y003399D01*
X025117Y003448D01*
X024972Y003448D01*
X024774Y003303D02*
X024677Y003303D01*
X024677Y003158D02*
X024871Y003158D01*
X025266Y003158D02*
X025460Y003158D01*
X025363Y003158D02*
X025363Y003448D01*
X025266Y003351D01*
X024382Y003448D02*
X024382Y003158D01*
X025570Y002374D02*
X025570Y002326D01*
X025618Y002278D01*
X025763Y002278D01*
X025763Y002374D02*
X025715Y002423D01*
X025618Y002423D01*
X025570Y002374D01*
X025570Y002181D02*
X025618Y002133D01*
X025715Y002133D01*
X025763Y002181D01*
X025763Y002374D01*
X025865Y002423D02*
X025865Y002229D01*
X025961Y002133D01*
X026058Y002229D01*
X026058Y002423D01*
X025715Y004070D02*
X025570Y004167D01*
X025715Y004264D01*
X025570Y004360D02*
X025570Y004070D01*
X022528Y005508D02*
X022382Y005604D01*
X022528Y005701D01*
X022382Y005798D02*
X022382Y005508D01*
X021119Y007938D02*
X020925Y007938D01*
X021119Y008131D01*
X021119Y008179D01*
X021070Y008228D01*
X020974Y008228D01*
X020925Y008179D01*
X020824Y008179D02*
X020776Y008228D01*
X020679Y008228D01*
X020631Y008179D01*
X020631Y007986D01*
X020679Y007938D01*
X020776Y007938D01*
X020824Y007986D01*
X020757Y008955D02*
X020757Y009245D01*
X020903Y009245D01*
X020951Y009197D01*
X020951Y009100D01*
X020903Y009052D01*
X020757Y009052D01*
X020854Y009052D02*
X020951Y008955D01*
X021052Y009003D02*
X021100Y008955D01*
X021197Y008955D01*
X021246Y009003D01*
X021246Y009052D01*
X021197Y009100D01*
X021100Y009100D01*
X021052Y009148D01*
X021052Y009197D01*
X021100Y009245D01*
X021197Y009245D01*
X021246Y009197D01*
X021246Y009148D01*
X021197Y009100D01*
X021100Y009100D02*
X021052Y009052D01*
X021052Y009003D01*
X019567Y008383D02*
X019320Y008383D01*
X019443Y008383D02*
X019443Y008753D01*
X019320Y008629D01*
X018522Y007923D02*
X018329Y007923D01*
X018426Y007923D02*
X018426Y007633D01*
X018228Y007633D02*
X018131Y007729D01*
X018179Y007729D02*
X018034Y007729D01*
X018034Y007633D02*
X018034Y007923D01*
X018179Y007923D01*
X018228Y007874D01*
X018228Y007778D01*
X018179Y007729D01*
X017933Y007778D02*
X017740Y007778D01*
X017740Y007826D02*
X017836Y007923D01*
X017933Y007826D01*
X017933Y007633D01*
X017740Y007633D02*
X017740Y007826D01*
X017638Y007923D02*
X017638Y007681D01*
X017590Y007633D01*
X017493Y007633D01*
X017445Y007681D01*
X017445Y007923D01*
X017219Y006780D02*
X017219Y006732D01*
X017025Y006538D01*
X017025Y006490D01*
X016924Y006490D02*
X016827Y006587D01*
X016876Y006587D02*
X016731Y006587D01*
X016731Y006490D02*
X016731Y006780D01*
X016876Y006780D01*
X016924Y006732D01*
X016924Y006635D01*
X016876Y006587D01*
X017025Y006780D02*
X017219Y006780D01*
X017270Y005870D02*
X017367Y005870D01*
X017415Y005822D01*
X017222Y005628D01*
X017270Y005580D01*
X017367Y005580D01*
X017415Y005628D01*
X017415Y005822D01*
X017270Y005870D02*
X017222Y005822D01*
X017222Y005628D01*
X017121Y005580D02*
X016927Y005580D01*
X017024Y005580D02*
X017024Y005870D01*
X016927Y005774D01*
X016826Y005822D02*
X016826Y005725D01*
X016778Y005677D01*
X016632Y005677D01*
X016632Y005580D02*
X016632Y005870D01*
X016778Y005870D01*
X016826Y005822D01*
X016729Y005677D02*
X016826Y005580D01*
X013880Y007943D02*
X013686Y007943D01*
X013783Y007943D02*
X013783Y008233D01*
X013686Y008136D01*
X013585Y008184D02*
X013537Y008233D01*
X013440Y008233D01*
X013391Y008184D01*
X013391Y007991D01*
X013440Y007943D01*
X013537Y007943D01*
X013585Y007991D01*
X013292Y007943D02*
X013195Y007943D01*
X013243Y007943D02*
X013243Y008233D01*
X013195Y008233D02*
X013292Y008233D01*
X015070Y009508D02*
X015317Y009508D01*
X015193Y009508D02*
X015193Y009878D01*
X015070Y009754D01*
X015106Y010740D02*
X015299Y010740D01*
X015202Y010740D02*
X015202Y011030D01*
X015106Y010933D01*
X015004Y010885D02*
X014956Y010837D01*
X014811Y010837D01*
X014908Y010837D02*
X015004Y010740D01*
X015004Y010885D02*
X015004Y010982D01*
X014956Y011030D01*
X014811Y011030D01*
X014811Y010740D01*
X015400Y010788D02*
X015449Y010740D01*
X015545Y010740D01*
X015594Y010788D01*
X015594Y010837D01*
X015545Y010885D01*
X015497Y010885D01*
X015545Y010885D02*
X015594Y010933D01*
X015594Y010982D01*
X015545Y011030D01*
X015449Y011030D01*
X015400Y010982D01*
X014332Y011819D02*
X014332Y011943D01*
X014271Y012004D01*
X014086Y012004D01*
X014086Y011634D01*
X017632Y010058D02*
X017632Y009767D01*
X017632Y009864D02*
X017778Y009864D01*
X017826Y009913D01*
X017826Y010009D01*
X017778Y010058D01*
X017632Y010058D01*
X017729Y009864D02*
X017826Y009767D01*
X017927Y009816D02*
X017975Y009767D01*
X018072Y009767D01*
X018121Y009816D01*
X018121Y010009D01*
X018072Y010058D01*
X017975Y010058D01*
X017927Y010009D01*
X017927Y009961D01*
X017975Y009913D01*
X018121Y009913D01*
X018260Y011758D02*
X018260Y012004D01*
X015967Y017633D02*
X015677Y017633D01*
X015677Y017778D01*
X015726Y017826D01*
X015822Y017826D01*
X015871Y017778D01*
X015871Y017633D01*
X015871Y017729D02*
X015967Y017826D01*
X015967Y017927D02*
X015774Y018121D01*
X015726Y018121D01*
X015677Y018072D01*
X015677Y017976D01*
X015726Y017927D01*
X015967Y017927D02*
X015967Y018121D01*
X015919Y018222D02*
X015967Y018270D01*
X015967Y018367D01*
X015919Y018415D01*
X015726Y018415D01*
X015677Y018367D01*
X015677Y018270D01*
X015726Y018222D01*
X015774Y018222D01*
X015822Y018270D01*
X015822Y018415D01*
X015182Y018421D02*
X015182Y018324D01*
X015134Y018275D01*
X014941Y018469D01*
X015134Y018469D01*
X015182Y018421D01*
X015134Y018275D02*
X014941Y018275D01*
X014892Y018324D01*
X014892Y018421D01*
X014941Y018469D01*
X014941Y018174D02*
X014989Y018174D01*
X015037Y018126D01*
X015086Y018174D01*
X015134Y018174D01*
X015182Y018126D01*
X015182Y018029D01*
X015134Y017981D01*
X015182Y017880D02*
X015086Y017783D01*
X015086Y017831D02*
X015086Y017686D01*
X015182Y017686D02*
X014892Y017686D01*
X014892Y017831D01*
X014941Y017880D01*
X015037Y017880D01*
X015086Y017831D01*
X014941Y017981D02*
X014892Y018029D01*
X014892Y018126D01*
X014941Y018174D01*
X015037Y018126D02*
X015037Y018077D01*
X014443Y019883D02*
X014257Y020006D01*
X014443Y020129D01*
X014257Y020253D02*
X014257Y019883D01*
X012568Y018753D02*
X012568Y018383D01*
X012445Y018383D02*
X012692Y018383D01*
X012445Y018629D02*
X012568Y018753D01*
X012670Y017978D02*
X012525Y017833D01*
X012719Y017833D01*
X012670Y017688D02*
X012670Y017978D01*
X012424Y017929D02*
X012376Y017978D01*
X012279Y017978D01*
X012231Y017929D01*
X012231Y017736D01*
X012279Y017688D01*
X012376Y017688D01*
X012424Y017736D01*
X012130Y017833D02*
X012081Y017784D01*
X011936Y017784D01*
X011936Y017688D02*
X011936Y017978D01*
X012081Y017978D01*
X012130Y017929D01*
X012130Y017833D01*
X011835Y017833D02*
X011641Y017833D01*
X011540Y017881D02*
X011492Y017833D01*
X011540Y017784D01*
X011540Y017736D01*
X011492Y017688D01*
X011395Y017688D01*
X011347Y017736D01*
X011246Y017736D02*
X011197Y017688D01*
X011100Y017688D01*
X011052Y017736D01*
X011052Y017929D01*
X011100Y017978D01*
X011197Y017978D01*
X011246Y017929D01*
X011347Y017929D02*
X011395Y017978D01*
X011492Y017978D01*
X011540Y017929D01*
X011540Y017881D01*
X011492Y017833D02*
X011443Y017833D01*
X010951Y017833D02*
X010903Y017784D01*
X010757Y017784D01*
X010757Y017688D02*
X010757Y017978D01*
X010903Y017978D01*
X010951Y017929D01*
X010951Y017833D01*
X009590Y020258D02*
X009590Y020306D01*
X009783Y020499D01*
X009783Y020548D01*
X009590Y020548D01*
X009488Y020499D02*
X009440Y020548D01*
X009343Y020548D01*
X009295Y020499D01*
X009295Y020306D01*
X009343Y020258D01*
X009440Y020258D01*
X009488Y020306D01*
X007557Y019546D02*
X007557Y019449D01*
X007509Y019400D01*
X007412Y019400D01*
X007412Y019546D01*
X007461Y019594D01*
X007509Y019594D01*
X007557Y019546D01*
X007412Y019400D02*
X007316Y019497D01*
X007267Y019594D01*
X007557Y019299D02*
X007557Y019106D01*
X007557Y019202D02*
X007267Y019202D01*
X007364Y019106D01*
X007412Y019005D02*
X007461Y018956D01*
X007461Y018811D01*
X007557Y018811D02*
X007267Y018811D01*
X007267Y018956D01*
X007316Y019005D01*
X007412Y019005D01*
X007461Y018908D02*
X007557Y019005D01*
X006557Y018981D02*
X006557Y019174D01*
X006557Y019077D02*
X006267Y019077D01*
X006364Y018981D01*
X006316Y018880D02*
X006412Y018880D01*
X006461Y018831D01*
X006461Y018686D01*
X006557Y018686D02*
X006267Y018686D01*
X006267Y018831D01*
X006316Y018880D01*
X006461Y018783D02*
X006557Y018880D01*
X006412Y019275D02*
X006267Y019421D01*
X006557Y019421D01*
X006412Y019469D02*
X006412Y019275D01*
X005557Y019299D02*
X005557Y019106D01*
X005364Y019299D01*
X005316Y019299D01*
X005267Y019251D01*
X005267Y019154D01*
X005316Y019106D01*
X005316Y019005D02*
X005412Y019005D01*
X005461Y018956D01*
X005461Y018811D01*
X005557Y018811D02*
X005267Y018811D01*
X005267Y018956D01*
X005316Y019005D01*
X005461Y018908D02*
X005557Y019005D01*
X005509Y019400D02*
X005316Y019400D01*
X005267Y019449D01*
X005267Y019546D01*
X005316Y019594D01*
X005509Y019400D01*
X005557Y019449D01*
X005557Y019546D01*
X005509Y019594D01*
X005316Y019594D01*
X004620Y019545D02*
X004620Y019449D01*
X004572Y019400D01*
X004475Y019449D02*
X004475Y019594D01*
X004572Y019594D02*
X004378Y019594D01*
X004330Y019545D01*
X004330Y019449D01*
X004378Y019400D01*
X004426Y019400D01*
X004475Y019449D01*
X004620Y019545D02*
X004572Y019594D01*
X004620Y019299D02*
X004620Y019106D01*
X004620Y019202D02*
X004330Y019202D01*
X004426Y019106D01*
X004378Y019005D02*
X004475Y019005D01*
X004523Y018956D01*
X004523Y018811D01*
X004523Y018908D02*
X004620Y019005D01*
X004620Y018811D02*
X004330Y018811D01*
X004330Y018956D01*
X004378Y019005D01*
X003557Y019005D02*
X003461Y018908D01*
X003461Y018956D02*
X003461Y018811D01*
X003557Y018811D02*
X003267Y018811D01*
X003267Y018956D01*
X003316Y019005D01*
X003412Y019005D01*
X003461Y018956D01*
X003557Y019106D02*
X003557Y019299D01*
X003557Y019202D02*
X003267Y019202D01*
X003364Y019106D01*
X003364Y019400D02*
X003316Y019400D01*
X003267Y019449D01*
X003267Y019545D01*
X003316Y019594D01*
X003364Y019594D01*
X003412Y019545D01*
X003412Y019449D01*
X003364Y019400D01*
X003412Y019449D02*
X003461Y019400D01*
X003509Y019400D01*
X003557Y019449D01*
X003557Y019545D01*
X003509Y019594D01*
X003461Y019594D01*
X003412Y019545D01*
X002557Y019463D02*
X002509Y019463D01*
X002316Y019656D01*
X002267Y019656D01*
X002267Y019463D01*
X002267Y019265D02*
X002557Y019265D01*
X002557Y019168D02*
X002557Y019362D01*
X002364Y019168D02*
X002267Y019265D01*
X002316Y019067D02*
X002412Y019067D01*
X002461Y019019D01*
X002461Y018874D01*
X002461Y018970D02*
X002557Y019067D01*
X002557Y018874D02*
X002267Y018874D01*
X002267Y019019D01*
X002316Y019067D01*
X003945Y017735D02*
X003945Y017445D01*
X003945Y017542D02*
X004090Y017542D01*
X004138Y017590D01*
X004138Y017687D01*
X004090Y017735D01*
X003945Y017735D01*
X004240Y017638D02*
X004240Y017445D01*
X004240Y017542D02*
X004336Y017638D01*
X004385Y017638D01*
X004485Y017590D02*
X004485Y017493D01*
X004534Y017445D01*
X004630Y017445D01*
X004679Y017493D01*
X004679Y017590D01*
X004630Y017638D01*
X004534Y017638D01*
X004485Y017590D01*
X004780Y017638D02*
X004925Y017638D01*
X004973Y017590D01*
X004973Y017493D01*
X004925Y017445D01*
X004780Y017445D01*
X004780Y017735D01*
X005074Y017590D02*
X005123Y017638D01*
X005220Y017638D01*
X005268Y017590D01*
X005268Y017542D01*
X005074Y017542D01*
X005074Y017590D02*
X005074Y017493D01*
X005123Y017445D01*
X005220Y017445D01*
X005369Y017445D02*
X005514Y017445D01*
X005563Y017493D01*
X005514Y017542D01*
X005417Y017542D01*
X005369Y017590D01*
X005417Y017638D01*
X005563Y017638D01*
X005206Y023536D02*
X005255Y023584D01*
X005255Y023826D01*
X005109Y023826D01*
X005061Y023778D01*
X005061Y023681D01*
X005109Y023633D01*
X005255Y023633D01*
X005206Y023536D02*
X005158Y023536D01*
X005356Y023681D02*
X005404Y023729D01*
X005549Y023729D01*
X005549Y023778D02*
X005549Y023633D01*
X005404Y023633D01*
X005356Y023681D01*
X005404Y023826D02*
X005501Y023826D01*
X005549Y023778D01*
X005650Y023874D02*
X005699Y023923D01*
X005796Y023923D01*
X005844Y023874D01*
X005844Y023826D01*
X005796Y023778D01*
X005844Y023729D01*
X005844Y023681D01*
X005796Y023633D01*
X005699Y023633D01*
X005650Y023681D01*
X005747Y023778D02*
X005796Y023778D01*
X005945Y023874D02*
X005993Y023923D01*
X006090Y023923D01*
X006139Y023874D01*
X006139Y023826D01*
X005945Y023633D01*
X006139Y023633D01*
X006240Y023681D02*
X006240Y023729D01*
X006288Y023778D01*
X006385Y023778D01*
X006433Y023729D01*
X006433Y023681D01*
X006385Y023633D01*
X006288Y023633D01*
X006240Y023681D01*
X006288Y023778D02*
X006240Y023826D01*
X006240Y023874D01*
X006288Y023923D01*
X006385Y023923D01*
X006433Y023874D01*
X006433Y023826D01*
X006385Y023778D01*
X006534Y023729D02*
X006679Y023729D01*
X006728Y023778D01*
X006728Y023874D01*
X006679Y023923D01*
X006534Y023923D01*
X006534Y023633D01*
X004960Y023729D02*
X004766Y023729D01*
X004766Y023681D02*
X004766Y023778D01*
X004815Y023826D01*
X004912Y023826D01*
X004960Y023778D01*
X004960Y023729D01*
X004912Y023633D02*
X004815Y023633D01*
X004766Y023681D01*
X004665Y023633D02*
X004665Y023923D01*
X004569Y023826D01*
X004472Y023923D01*
X004472Y023633D01*
X004274Y023633D02*
X004274Y023923D01*
X004177Y023923D02*
X004371Y023923D01*
X004076Y023826D02*
X004076Y023633D01*
X004076Y023778D02*
X003882Y023778D01*
X003882Y023826D02*
X003979Y023923D01*
X004076Y023826D01*
X003882Y023826D02*
X003882Y023633D01*
X004945Y026383D02*
X005192Y026383D01*
X005068Y026383D02*
X005068Y026753D01*
X004945Y026629D01*
X004005Y027028D02*
X003956Y026979D01*
X003811Y026979D01*
X003811Y026883D02*
X003811Y027173D01*
X003956Y027173D01*
X004005Y027124D01*
X004005Y027028D01*
X003710Y026979D02*
X003710Y026931D01*
X003662Y026883D01*
X003565Y026883D01*
X003516Y026931D01*
X003565Y027028D02*
X003516Y027076D01*
X003516Y027124D01*
X003565Y027173D01*
X003662Y027173D01*
X003710Y027124D01*
X003662Y027028D02*
X003710Y026979D01*
X003662Y027028D02*
X003565Y027028D01*
X003417Y027173D02*
X003320Y027173D01*
X003368Y027173D02*
X003368Y026883D01*
X003320Y026883D02*
X003417Y026883D01*
X002013Y027383D02*
X001820Y027383D01*
X001917Y027383D02*
X001917Y027673D01*
X001820Y027576D01*
X006506Y029486D02*
X006554Y029438D01*
X006651Y029438D01*
X006699Y029486D01*
X006800Y029486D02*
X006849Y029438D01*
X006945Y029438D01*
X006994Y029486D01*
X006994Y029679D01*
X006945Y029728D01*
X006849Y029728D01*
X006800Y029679D01*
X006800Y029631D01*
X006849Y029583D01*
X006994Y029583D01*
X006699Y029679D02*
X006651Y029728D01*
X006554Y029728D01*
X006506Y029679D01*
X006506Y029486D01*
X008445Y026798D02*
X008590Y026798D01*
X008638Y026749D01*
X008638Y026653D01*
X008590Y026604D01*
X008445Y026604D01*
X008445Y026508D02*
X008445Y026798D01*
X008740Y026798D02*
X008740Y026508D01*
X008885Y026508D01*
X008933Y026556D01*
X008933Y026604D01*
X008885Y026653D01*
X008740Y026653D01*
X008885Y026653D02*
X008933Y026701D01*
X008933Y026749D01*
X008885Y026798D01*
X008740Y026798D01*
X009034Y026653D02*
X009179Y026653D01*
X009228Y026604D01*
X009228Y026556D01*
X009179Y026508D01*
X009083Y026508D01*
X009034Y026556D01*
X009034Y026653D01*
X009131Y026749D01*
X009228Y026798D01*
X009329Y026653D02*
X009522Y026653D01*
X009624Y026604D02*
X009769Y026604D01*
X009817Y026653D01*
X009817Y026749D01*
X009769Y026798D01*
X009624Y026798D01*
X009624Y026508D01*
X009918Y026508D02*
X009918Y026798D01*
X010063Y026798D01*
X010112Y026749D01*
X010112Y026701D01*
X010063Y026653D01*
X009918Y026653D01*
X010063Y026653D02*
X010112Y026604D01*
X010112Y026556D01*
X010063Y026508D01*
X009918Y026508D01*
X010213Y026508D02*
X010213Y026556D01*
X010406Y026749D01*
X010406Y026798D01*
X010213Y026798D01*
X011507Y027383D02*
X011507Y027629D01*
X011631Y027753D01*
X011754Y027629D01*
X011754Y027383D01*
X011876Y027506D02*
X011876Y027753D01*
X011754Y027568D02*
X011507Y027568D01*
X011876Y027506D02*
X011999Y027383D01*
X012123Y027506D01*
X012123Y027753D01*
X012244Y027753D02*
X012244Y027383D01*
X012244Y027506D02*
X012429Y027506D01*
X012491Y027568D01*
X012491Y027691D01*
X012429Y027753D01*
X012244Y027753D01*
X012367Y027506D02*
X012491Y027383D01*
X012981Y027444D02*
X012981Y027691D01*
X013042Y027753D01*
X013166Y027753D01*
X013228Y027691D01*
X013349Y027568D02*
X013411Y027629D01*
X013534Y027629D01*
X013596Y027568D01*
X013596Y027444D01*
X013534Y027383D01*
X013411Y027383D01*
X013349Y027444D01*
X013349Y027568D01*
X013228Y027444D02*
X013166Y027383D01*
X013042Y027383D01*
X012981Y027444D01*
X013717Y027383D02*
X013717Y027629D01*
X013779Y027629D01*
X013841Y027568D01*
X013902Y027629D01*
X013964Y027568D01*
X013964Y027383D01*
X014086Y027383D02*
X014271Y027383D01*
X014332Y027444D01*
X014332Y027568D01*
X014271Y027629D01*
X014086Y027629D01*
X014086Y027259D01*
X013841Y027383D02*
X013841Y027568D01*
X014454Y027568D02*
X014454Y027444D01*
X014516Y027383D01*
X014639Y027383D01*
X014701Y027444D01*
X014701Y027568D01*
X014639Y027629D01*
X014516Y027629D01*
X014454Y027568D01*
X014822Y027629D02*
X015007Y027629D01*
X015069Y027568D01*
X015069Y027383D01*
X015191Y027444D02*
X015191Y027568D01*
X015252Y027629D01*
X015376Y027629D01*
X015437Y027568D01*
X015437Y027506D01*
X015191Y027506D01*
X015191Y027444D02*
X015252Y027383D01*
X015376Y027383D01*
X015559Y027383D02*
X015559Y027629D01*
X015744Y027629D01*
X015806Y027568D01*
X015806Y027383D01*
X015989Y027444D02*
X016051Y027383D01*
X015989Y027444D02*
X015989Y027691D01*
X015927Y027629D02*
X016051Y027629D01*
X016541Y027753D02*
X016788Y027753D01*
X016664Y027753D02*
X016664Y027383D01*
X016909Y027444D02*
X016909Y027568D01*
X016971Y027629D01*
X017095Y027629D01*
X017156Y027568D01*
X017156Y027506D01*
X016909Y027506D01*
X016909Y027444D02*
X016971Y027383D01*
X017095Y027383D01*
X017278Y027383D02*
X017463Y027383D01*
X017525Y027444D01*
X017463Y027506D01*
X017339Y027506D01*
X017278Y027568D01*
X017339Y027629D01*
X017525Y027629D01*
X017646Y027629D02*
X017769Y027629D01*
X017708Y027691D02*
X017708Y027444D01*
X017769Y027383D01*
X017892Y027444D02*
X017892Y027568D01*
X017953Y027629D01*
X018077Y027629D01*
X018138Y027568D01*
X018138Y027506D01*
X017892Y027506D01*
X017892Y027444D02*
X017953Y027383D01*
X018077Y027383D01*
X018260Y027383D02*
X018260Y027629D01*
X018260Y027506D02*
X018383Y027629D01*
X018445Y027629D01*
X018935Y027568D02*
X019182Y027568D01*
X019672Y027383D02*
X019672Y027753D01*
X019795Y027629D01*
X019919Y027753D01*
X019919Y027383D01*
X020040Y027383D02*
X020163Y027383D01*
X020102Y027383D02*
X020102Y027629D01*
X020040Y027629D01*
X020102Y027753D02*
X020102Y027815D01*
X020347Y027629D02*
X020286Y027568D01*
X020286Y027444D01*
X020347Y027383D01*
X020532Y027383D01*
X020654Y027383D02*
X020654Y027753D01*
X020532Y027629D02*
X020347Y027629D01*
X020654Y027506D02*
X020839Y027629D01*
X020961Y027753D02*
X021084Y027629D01*
X021208Y027753D01*
X021208Y027383D01*
X021329Y027383D02*
X021576Y027753D01*
X021697Y027753D02*
X021883Y027753D01*
X021944Y027691D01*
X021944Y027629D01*
X021883Y027568D01*
X021697Y027568D01*
X021697Y027383D02*
X021697Y027753D01*
X021883Y027568D02*
X021944Y027506D01*
X021944Y027444D01*
X021883Y027383D01*
X021697Y027383D01*
X022066Y027383D02*
X022066Y027629D01*
X022066Y027506D02*
X022189Y027629D01*
X022251Y027629D01*
X022373Y027568D02*
X022434Y027629D01*
X022558Y027629D01*
X022620Y027568D01*
X022620Y027506D01*
X022373Y027506D01*
X022373Y027444D02*
X022373Y027568D01*
X022373Y027444D02*
X022434Y027383D01*
X022558Y027383D01*
X022741Y027383D02*
X022741Y027629D01*
X022926Y027629D01*
X022988Y027568D01*
X022988Y027383D01*
X023171Y027444D02*
X023171Y027691D01*
X023109Y027629D02*
X023233Y027629D01*
X023355Y027568D02*
X023540Y027568D01*
X023602Y027506D01*
X023602Y027444D01*
X023540Y027383D01*
X023355Y027383D01*
X023355Y027753D01*
X023540Y027753D01*
X023602Y027691D01*
X023602Y027629D01*
X023540Y027568D01*
X023723Y027753D02*
X023970Y027383D01*
X024091Y027383D02*
X024091Y027753D01*
X024277Y027753D01*
X024338Y027691D01*
X024338Y027568D01*
X024277Y027506D01*
X024091Y027506D01*
X024215Y027506D02*
X024338Y027383D01*
X023970Y027753D02*
X023723Y027383D01*
X023233Y027383D02*
X023171Y027444D01*
X020961Y027383D02*
X020961Y027753D01*
X020839Y027383D02*
X020654Y027506D01*
X018415Y025683D02*
X018222Y025683D01*
X018222Y025538D01*
X018318Y025586D01*
X018367Y025586D01*
X018415Y025538D01*
X018415Y025441D01*
X018367Y025392D01*
X018270Y025392D01*
X018222Y025441D01*
X018121Y025392D02*
X017927Y025392D01*
X018121Y025586D01*
X018121Y025634D01*
X018072Y025683D01*
X017975Y025683D01*
X017927Y025634D01*
X017826Y025634D02*
X017826Y025538D01*
X017778Y025489D01*
X017632Y025489D01*
X017632Y025392D02*
X017632Y025683D01*
X017778Y025683D01*
X017826Y025634D01*
X017729Y025489D02*
X017826Y025392D01*
X019320Y024254D02*
X019443Y024378D01*
X019443Y024008D01*
X019320Y024008D02*
X019567Y024008D01*
X020631Y023804D02*
X020631Y023611D01*
X020679Y023563D01*
X020776Y023563D01*
X020824Y023611D01*
X020925Y023611D02*
X020925Y023659D01*
X020974Y023708D01*
X021070Y023708D01*
X021119Y023659D01*
X021119Y023611D01*
X021070Y023563D01*
X020974Y023563D01*
X020925Y023611D01*
X020974Y023708D02*
X020925Y023756D01*
X020925Y023804D01*
X020974Y023853D01*
X021070Y023853D01*
X021119Y023804D01*
X021119Y023756D01*
X021070Y023708D01*
X020824Y023804D02*
X020776Y023853D01*
X020679Y023853D01*
X020631Y023804D01*
X020757Y024580D02*
X020757Y024870D01*
X020903Y024870D01*
X020951Y024822D01*
X020951Y024725D01*
X020903Y024677D01*
X020757Y024677D01*
X020854Y024677D02*
X020951Y024580D01*
X021052Y024580D02*
X021246Y024773D01*
X021246Y024822D01*
X021197Y024870D01*
X021100Y024870D01*
X021052Y024822D01*
X021052Y024580D02*
X021246Y024580D01*
X021347Y024725D02*
X021540Y024725D01*
X021492Y024580D02*
X021492Y024870D01*
X021347Y024725D01*
X023399Y023242D02*
X023399Y023048D01*
X023447Y023000D01*
X023544Y023000D01*
X023592Y023048D01*
X023693Y023000D02*
X023887Y023000D01*
X023790Y023000D02*
X023790Y023290D01*
X023693Y023194D01*
X023592Y023242D02*
X023544Y023290D01*
X023447Y023290D01*
X023399Y023242D01*
X023988Y023242D02*
X024036Y023290D01*
X024133Y023290D01*
X024181Y023242D01*
X023988Y023048D01*
X024036Y023000D01*
X024133Y023000D01*
X024181Y023048D01*
X024181Y023242D01*
X023988Y023242D02*
X023988Y023048D01*
X024295Y022173D02*
X024440Y022173D01*
X024488Y022124D01*
X024488Y021931D01*
X024440Y021883D01*
X024295Y021883D01*
X024295Y022173D01*
X024590Y022124D02*
X024638Y022173D01*
X024735Y022173D01*
X024783Y022124D01*
X024783Y022076D01*
X024735Y022028D01*
X024783Y021979D01*
X024783Y021931D01*
X024735Y021883D01*
X024638Y021883D01*
X024590Y021931D01*
X024686Y022028D02*
X024735Y022028D01*
X025868Y023283D02*
X025965Y023283D01*
X026013Y023331D01*
X026115Y023283D02*
X026308Y023283D01*
X026211Y023283D02*
X026211Y023573D01*
X026115Y023476D01*
X026013Y023524D02*
X025965Y023573D01*
X025868Y023573D01*
X025820Y023524D01*
X025820Y023331D01*
X025868Y023283D01*
X026409Y023283D02*
X026603Y023476D01*
X026603Y023524D01*
X026554Y023573D01*
X026458Y023573D01*
X026409Y023524D01*
X026409Y023283D02*
X026603Y023283D01*
X027945Y023633D02*
X027945Y023923D01*
X028090Y023826D02*
X027945Y023729D01*
X028090Y023633D01*
X027844Y024663D02*
X027650Y024663D01*
X027844Y024856D01*
X027844Y024904D01*
X027795Y024953D01*
X027699Y024953D01*
X027650Y024904D01*
X027549Y024904D02*
X027549Y024856D01*
X027501Y024808D01*
X027549Y024759D01*
X027549Y024711D01*
X027501Y024663D01*
X027404Y024663D01*
X027356Y024711D01*
X027255Y024663D02*
X027158Y024759D01*
X027206Y024759D02*
X027061Y024759D01*
X027061Y024663D02*
X027061Y024953D01*
X027206Y024953D01*
X027255Y024904D01*
X027255Y024808D01*
X027206Y024759D01*
X027356Y024904D02*
X027404Y024953D01*
X027501Y024953D01*
X027549Y024904D01*
X027501Y024808D02*
X027452Y024808D01*
X025219Y025020D02*
X025025Y025020D01*
X025170Y025165D01*
X025170Y024875D01*
X024924Y024875D02*
X024827Y024972D01*
X024731Y024923D02*
X024779Y024875D01*
X024876Y024875D01*
X024924Y024923D01*
X024924Y025117D01*
X024876Y025165D01*
X024779Y025165D01*
X024731Y025117D01*
X024731Y024923D01*
X022382Y021423D02*
X022382Y021133D01*
X022382Y021229D02*
X022528Y021326D01*
X022382Y021229D02*
X022528Y021133D01*
X024382Y019073D02*
X024382Y018783D01*
X024576Y018783D01*
X024677Y018783D02*
X024677Y019073D01*
X024871Y019073D01*
X024972Y019073D02*
X024972Y018783D01*
X025117Y018783D01*
X025165Y018831D01*
X025165Y019024D01*
X025117Y019073D01*
X024972Y019073D01*
X024774Y018928D02*
X024677Y018928D01*
X024677Y018783D02*
X024871Y018783D01*
X025266Y018783D02*
X025460Y018976D01*
X025460Y019024D01*
X025412Y019073D01*
X025315Y019073D01*
X025266Y019024D01*
X025266Y018783D02*
X025460Y018783D01*
X025618Y018048D02*
X025570Y017999D01*
X025570Y017951D01*
X025618Y017903D01*
X025763Y017903D01*
X025763Y017999D02*
X025763Y017806D01*
X025715Y017758D01*
X025618Y017758D01*
X025570Y017806D01*
X025618Y018048D02*
X025715Y018048D01*
X025763Y017999D01*
X025865Y018048D02*
X025865Y017854D01*
X025961Y017758D01*
X026058Y017854D01*
X026058Y018048D01*
X025715Y019695D02*
X025570Y019792D01*
X025715Y019889D01*
X025570Y019985D02*
X025570Y019695D01*
X023423Y018129D02*
X023300Y018129D01*
X023362Y018191D02*
X023362Y017944D01*
X023423Y017883D01*
X023472Y017798D02*
X023472Y017508D01*
X023371Y017508D02*
X023226Y017508D01*
X023177Y017556D01*
X023177Y017653D01*
X023226Y017701D01*
X023371Y017701D01*
X023472Y017653D02*
X023520Y017701D01*
X023617Y017701D01*
X023665Y017653D01*
X023665Y017508D01*
X023077Y017508D02*
X023029Y017556D01*
X023029Y017749D01*
X022981Y017701D02*
X023077Y017701D01*
X023117Y017883D02*
X023178Y017944D01*
X023117Y018006D01*
X022993Y018006D01*
X022932Y018068D01*
X022993Y018129D01*
X023178Y018129D01*
X023117Y017883D02*
X022932Y017883D01*
X022833Y017846D02*
X022833Y017798D01*
X022833Y017701D02*
X022833Y017508D01*
X022881Y017508D02*
X022784Y017508D01*
X022683Y017556D02*
X022683Y017701D01*
X022784Y017701D02*
X022833Y017701D01*
X022748Y017883D02*
X022625Y017883D01*
X022563Y017944D01*
X022563Y018068D01*
X022625Y018129D01*
X022748Y018129D01*
X022810Y018068D01*
X022810Y018006D01*
X022563Y018006D01*
X022318Y017883D02*
X022318Y018253D01*
X022195Y018253D02*
X022442Y018253D01*
X022340Y017798D02*
X022243Y017798D01*
X022195Y017749D01*
X022195Y017701D01*
X022243Y017653D01*
X022340Y017653D01*
X022388Y017604D01*
X022388Y017556D01*
X022340Y017508D01*
X022243Y017508D01*
X022195Y017556D01*
X022388Y017749D02*
X022340Y017798D01*
X022490Y017701D02*
X022490Y017556D01*
X022538Y017508D01*
X022586Y017556D01*
X022635Y017508D01*
X022683Y017556D01*
X020519Y018258D02*
X020519Y018548D01*
X020374Y018403D01*
X020567Y018403D01*
X020272Y018499D02*
X020224Y018548D01*
X020127Y018548D01*
X020079Y018499D01*
X020079Y018306D01*
X020127Y018258D01*
X020224Y018258D01*
X020272Y018306D01*
X019979Y018258D02*
X019882Y018258D01*
X019931Y018258D02*
X019931Y018548D01*
X019979Y018548D02*
X019882Y018548D01*
X018344Y018353D02*
X018247Y018304D01*
X018150Y018208D01*
X018295Y018208D01*
X018344Y018159D01*
X018344Y018111D01*
X018295Y018063D01*
X018199Y018063D01*
X018150Y018111D01*
X018150Y018208D01*
X018049Y018304D02*
X018049Y018111D01*
X018001Y018063D01*
X017904Y018063D01*
X017856Y018111D01*
X017856Y018304D01*
X017904Y018353D01*
X018001Y018353D01*
X018049Y018304D01*
X017952Y018159D02*
X018049Y018063D01*
X017367Y021205D02*
X017270Y021205D01*
X017222Y021253D01*
X017222Y021350D01*
X017367Y021350D01*
X017415Y021302D01*
X017415Y021253D01*
X017367Y021205D01*
X017222Y021350D02*
X017318Y021447D01*
X017415Y021495D01*
X017121Y021447D02*
X017072Y021495D01*
X016975Y021495D01*
X016927Y021447D01*
X016826Y021447D02*
X016826Y021350D01*
X016778Y021302D01*
X016632Y021302D01*
X016632Y021205D02*
X016632Y021495D01*
X016778Y021495D01*
X016826Y021447D01*
X016729Y021302D02*
X016826Y021205D01*
X016927Y021205D02*
X017121Y021399D01*
X017121Y021447D01*
X017121Y021205D02*
X016927Y021205D01*
X016924Y022115D02*
X016731Y022115D01*
X016924Y022309D01*
X016924Y022357D01*
X016876Y022405D01*
X016779Y022405D01*
X016731Y022357D01*
X016630Y022357D02*
X016630Y022260D01*
X016581Y022212D01*
X016436Y022212D01*
X016533Y022212D02*
X016630Y022115D01*
X016436Y022115D02*
X016436Y022405D01*
X016581Y022405D01*
X016630Y022357D01*
X017025Y022357D02*
X017074Y022405D01*
X017170Y022405D01*
X017219Y022357D01*
X017219Y022309D01*
X017170Y022260D01*
X017219Y022212D01*
X017219Y022163D01*
X017170Y022115D01*
X017074Y022115D01*
X017025Y022163D01*
X017122Y022260D02*
X017170Y022260D01*
X017493Y023258D02*
X017590Y023258D01*
X017638Y023306D01*
X017638Y023548D01*
X017740Y023451D02*
X017836Y023548D01*
X017933Y023451D01*
X017933Y023258D01*
X018034Y023258D02*
X018034Y023548D01*
X018179Y023548D01*
X018228Y023499D01*
X018228Y023403D01*
X018179Y023354D01*
X018034Y023354D01*
X018131Y023354D02*
X018228Y023258D01*
X018426Y023258D02*
X018426Y023548D01*
X018522Y023548D02*
X018329Y023548D01*
X017933Y023403D02*
X017740Y023403D01*
X017740Y023451D02*
X017740Y023258D01*
X017493Y023258D02*
X017445Y023306D01*
X017445Y023548D01*
X015317Y025133D02*
X015070Y025133D01*
X015193Y025133D02*
X015193Y025503D01*
X015070Y025379D01*
X015106Y026365D02*
X015299Y026558D01*
X015299Y026607D01*
X015251Y026655D01*
X015154Y026655D01*
X015106Y026607D01*
X015004Y026607D02*
X015004Y026510D01*
X014956Y026462D01*
X014811Y026462D01*
X014908Y026462D02*
X015004Y026365D01*
X015106Y026365D02*
X015299Y026365D01*
X015400Y026365D02*
X015400Y026413D01*
X015594Y026607D01*
X015594Y026655D01*
X015400Y026655D01*
X015004Y026607D02*
X014956Y026655D01*
X014811Y026655D01*
X014811Y026365D01*
X014822Y027383D02*
X014822Y027629D01*
X010969Y028726D02*
X010920Y028678D01*
X010824Y028678D01*
X010775Y028726D01*
X010775Y028774D01*
X010824Y028823D01*
X010920Y028823D01*
X010969Y028774D01*
X010969Y028726D01*
X010920Y028823D02*
X010969Y028871D01*
X010969Y028919D01*
X010920Y028968D01*
X010824Y028968D01*
X010775Y028919D01*
X010775Y028871D01*
X010824Y028823D01*
X010674Y028871D02*
X010674Y028919D01*
X010626Y028968D01*
X010529Y028968D01*
X010481Y028919D01*
X010380Y028919D02*
X010380Y028823D01*
X010331Y028774D01*
X010186Y028774D01*
X010186Y028678D02*
X010186Y028968D01*
X010331Y028968D01*
X010380Y028919D01*
X010283Y028774D02*
X010380Y028678D01*
X010481Y028678D02*
X010674Y028871D01*
X010674Y028678D02*
X010481Y028678D01*
X013195Y023858D02*
X013292Y023858D01*
X013243Y023858D02*
X013243Y023568D01*
X013195Y023568D02*
X013292Y023568D01*
X013391Y023616D02*
X013440Y023568D01*
X013537Y023568D01*
X013585Y023616D01*
X013686Y023616D02*
X013734Y023568D01*
X013831Y023568D01*
X013880Y023616D01*
X013880Y023664D01*
X013831Y023713D01*
X013783Y023713D01*
X013831Y023713D02*
X013880Y023761D01*
X013880Y023809D01*
X013831Y023858D01*
X013734Y023858D01*
X013686Y023809D01*
X013585Y023809D02*
X013537Y023858D01*
X013440Y023858D01*
X013391Y023809D01*
X013391Y023616D01*
X028455Y019810D02*
X028745Y019810D01*
X028745Y019906D02*
X028745Y019713D01*
X028697Y019612D02*
X028745Y019563D01*
X028745Y019467D01*
X028697Y019418D01*
X028745Y019317D02*
X028648Y019220D01*
X028648Y019269D02*
X028648Y019124D01*
X028745Y019124D02*
X028455Y019124D01*
X028455Y019269D01*
X028503Y019317D01*
X028600Y019317D01*
X028648Y019269D01*
X028503Y019418D02*
X028455Y019467D01*
X028455Y019563D01*
X028503Y019612D01*
X028551Y019612D01*
X028600Y019563D01*
X028648Y019612D01*
X028697Y019612D01*
X028600Y019563D02*
X028600Y019515D01*
X028551Y019713D02*
X028455Y019810D01*
X028570Y017985D02*
X028570Y017840D01*
X028667Y017889D01*
X028715Y017889D01*
X028763Y017840D01*
X028763Y017743D01*
X028715Y017695D01*
X028618Y017695D01*
X028570Y017743D01*
X028570Y017985D02*
X028763Y017985D01*
X028865Y017985D02*
X028865Y017792D01*
X028961Y017695D01*
X029058Y017792D01*
X029058Y017985D01*
X030132Y019056D02*
X030181Y019008D01*
X030278Y019008D01*
X030326Y019056D01*
X030326Y019153D01*
X030229Y019153D01*
X030132Y019249D02*
X030132Y019056D01*
X030132Y019249D02*
X030181Y019298D01*
X030278Y019298D01*
X030326Y019249D01*
X030427Y019201D02*
X030572Y019201D01*
X030621Y019153D01*
X030621Y019008D01*
X030722Y019056D02*
X030722Y019153D01*
X030770Y019201D01*
X030915Y019201D01*
X030915Y019298D02*
X030915Y019008D01*
X030770Y019008D01*
X030722Y019056D01*
X030427Y019008D02*
X030427Y019201D01*
X030124Y022258D02*
X030124Y022451D01*
X030220Y022451D02*
X030269Y022451D01*
X030220Y022451D02*
X030124Y022354D01*
X030022Y022354D02*
X029829Y022354D01*
X029829Y022306D02*
X029829Y022403D01*
X029877Y022451D01*
X029974Y022451D01*
X030022Y022403D01*
X030022Y022354D01*
X029974Y022258D02*
X029877Y022258D01*
X029829Y022306D01*
X029728Y022306D02*
X029728Y022451D01*
X029728Y022306D02*
X029679Y022258D01*
X029631Y022306D01*
X029583Y022258D01*
X029534Y022306D01*
X029534Y022451D01*
X029433Y022403D02*
X029385Y022451D01*
X029288Y022451D01*
X029240Y022403D01*
X029240Y022306D01*
X029288Y022258D01*
X029385Y022258D01*
X029433Y022306D01*
X029433Y022403D01*
X029138Y022403D02*
X029090Y022354D01*
X028945Y022354D01*
X028945Y022258D02*
X028945Y022548D01*
X029090Y022548D01*
X029138Y022499D01*
X029138Y022403D01*
X029132Y028883D02*
X029379Y028883D01*
X029256Y028883D02*
X029256Y029253D01*
X029132Y029129D01*
X029256Y013628D02*
X029256Y013258D01*
X029379Y013258D02*
X029132Y013258D01*
X029132Y013504D02*
X029256Y013628D01*
D12*
X030030Y012693D02*
X026330Y012693D01*
X026307Y012691D01*
X026284Y012686D01*
X026262Y012677D01*
X026242Y012664D01*
X026224Y012649D01*
X026209Y012631D01*
X026196Y012611D01*
X026187Y012589D01*
X026182Y012566D01*
X026180Y012543D01*
X026180Y011343D01*
X027030Y010743D02*
X027230Y010743D01*
X027530Y010893D02*
X028030Y010893D01*
X028230Y011143D01*
X028330Y011143D01*
X028330Y010893D01*
X028830Y010893D01*
X028830Y010593D01*
X028330Y010593D01*
X028330Y010343D01*
X028230Y010343D01*
X028030Y010593D01*
X027530Y010593D01*
X027530Y010893D01*
X027480Y011443D02*
X027380Y011543D01*
X028180Y011693D02*
X028180Y011893D01*
X028780Y011343D02*
X028980Y011543D01*
X027030Y010743D02*
X027032Y010810D01*
X027038Y010878D01*
X027048Y010945D01*
X027062Y011011D01*
X027079Y011076D01*
X027101Y011140D01*
X027126Y011203D01*
X027155Y011264D01*
X027187Y011323D01*
X027223Y011380D01*
X027262Y011435D01*
X027304Y011488D01*
X027349Y011538D01*
X027397Y011585D01*
X027448Y011630D01*
X027501Y011671D01*
X027557Y011710D01*
X027615Y011745D01*
X027675Y011776D01*
X027736Y011804D01*
X027799Y011828D01*
X027863Y011849D01*
X027929Y011865D01*
X027995Y011878D01*
X028062Y011887D01*
X028129Y011892D01*
X028197Y011893D01*
X028264Y011890D01*
X028331Y011883D01*
X028398Y011872D01*
X028464Y011857D01*
X028529Y011839D01*
X028593Y011816D01*
X028655Y011790D01*
X028716Y011761D01*
X028774Y011727D01*
X028831Y011691D01*
X028886Y011651D01*
X028938Y011608D01*
X028987Y011562D01*
X029034Y011513D01*
X029078Y011462D01*
X029118Y011408D01*
X029156Y011352D01*
X029190Y011293D01*
X029220Y011233D01*
X029247Y011171D01*
X029271Y011108D01*
X029290Y011043D01*
X029306Y010978D01*
X029318Y010911D01*
X029326Y010844D01*
X029330Y010777D01*
X029330Y010709D01*
X029326Y010642D01*
X029318Y010575D01*
X029306Y010508D01*
X029290Y010443D01*
X029271Y010378D01*
X029247Y010315D01*
X029220Y010253D01*
X029190Y010193D01*
X029156Y010134D01*
X029118Y010078D01*
X029078Y010024D01*
X029034Y009973D01*
X028987Y009924D01*
X028938Y009878D01*
X028886Y009835D01*
X028831Y009795D01*
X028774Y009759D01*
X028716Y009725D01*
X028655Y009696D01*
X028593Y009670D01*
X028529Y009647D01*
X028464Y009629D01*
X028398Y009614D01*
X028331Y009603D01*
X028264Y009596D01*
X028197Y009593D01*
X028129Y009594D01*
X028062Y009599D01*
X027995Y009608D01*
X027929Y009621D01*
X027863Y009637D01*
X027799Y009658D01*
X027736Y009682D01*
X027675Y009710D01*
X027615Y009741D01*
X027557Y009776D01*
X027501Y009815D01*
X027448Y009856D01*
X027397Y009901D01*
X027349Y009948D01*
X027304Y009998D01*
X027262Y010051D01*
X027223Y010106D01*
X027187Y010163D01*
X027155Y010222D01*
X027126Y010283D01*
X027101Y010346D01*
X027079Y010410D01*
X027062Y010475D01*
X027048Y010541D01*
X027038Y010608D01*
X027032Y010676D01*
X027030Y010743D01*
X027480Y010043D02*
X027380Y009943D01*
X028180Y009793D02*
X028180Y009593D01*
X028780Y010143D02*
X028980Y009943D01*
X027380Y010743D02*
X027382Y010799D01*
X027388Y010856D01*
X027398Y010911D01*
X027412Y010966D01*
X027429Y011020D01*
X027451Y011072D01*
X027476Y011122D01*
X027504Y011171D01*
X027536Y011218D01*
X027571Y011262D01*
X027609Y011304D01*
X027650Y011343D01*
X027694Y011378D01*
X027740Y011411D01*
X027788Y011440D01*
X027838Y011466D01*
X027890Y011489D01*
X027944Y011507D01*
X027998Y011522D01*
X028053Y011533D01*
X028109Y011540D01*
X028166Y011543D01*
X028222Y011542D01*
X028279Y011537D01*
X028334Y011528D01*
X028389Y011515D01*
X028443Y011498D01*
X028496Y011478D01*
X028547Y011454D01*
X028596Y011426D01*
X028643Y011395D01*
X028688Y011361D01*
X028731Y011323D01*
X028770Y011283D01*
X028807Y011240D01*
X028840Y011195D01*
X028870Y011147D01*
X028897Y011097D01*
X028920Y011046D01*
X028940Y010993D01*
X028956Y010939D01*
X028968Y010883D01*
X028976Y010828D01*
X028980Y010771D01*
X028980Y010715D01*
X028976Y010658D01*
X028968Y010603D01*
X028956Y010547D01*
X028940Y010493D01*
X028920Y010440D01*
X028897Y010389D01*
X028870Y010339D01*
X028840Y010291D01*
X028807Y010246D01*
X028770Y010203D01*
X028731Y010163D01*
X028688Y010125D01*
X028643Y010091D01*
X028596Y010060D01*
X028547Y010032D01*
X028496Y010008D01*
X028443Y009988D01*
X028389Y009971D01*
X028334Y009958D01*
X028279Y009949D01*
X028222Y009944D01*
X028166Y009943D01*
X028109Y009946D01*
X028053Y009953D01*
X027998Y009964D01*
X027944Y009979D01*
X027890Y009997D01*
X027838Y010020D01*
X027788Y010046D01*
X027740Y010075D01*
X027694Y010108D01*
X027650Y010143D01*
X027609Y010182D01*
X027571Y010224D01*
X027536Y010268D01*
X027504Y010315D01*
X027476Y010364D01*
X027451Y010414D01*
X027429Y010466D01*
X027412Y010520D01*
X027398Y010575D01*
X027388Y010630D01*
X027382Y010687D01*
X027380Y010743D01*
X026180Y010143D02*
X026180Y008943D01*
X026182Y008920D01*
X026187Y008897D01*
X026196Y008875D01*
X026209Y008855D01*
X026224Y008837D01*
X026242Y008822D01*
X026262Y008809D01*
X026284Y008800D01*
X026307Y008795D01*
X026330Y008793D01*
X030030Y008793D01*
X030053Y008795D01*
X030076Y008800D01*
X030098Y008809D01*
X030118Y008822D01*
X030136Y008837D01*
X030151Y008855D01*
X030164Y008875D01*
X030173Y008897D01*
X030178Y008920D01*
X030180Y008943D01*
X030180Y009193D01*
X030905Y008593D02*
X029205Y008593D01*
X029188Y008591D01*
X029171Y008587D01*
X029155Y008580D01*
X029141Y008570D01*
X029128Y008557D01*
X029118Y008543D01*
X029111Y008527D01*
X029107Y008510D01*
X029105Y008493D01*
X029105Y007493D01*
X029107Y007476D01*
X029111Y007459D01*
X029118Y007443D01*
X029128Y007429D01*
X029141Y007416D01*
X029155Y007406D01*
X029171Y007399D01*
X029188Y007395D01*
X029205Y007393D01*
X030905Y007393D01*
X030922Y007395D01*
X030939Y007399D01*
X030955Y007406D01*
X030969Y007416D01*
X030982Y007429D01*
X030992Y007443D01*
X030999Y007459D01*
X031003Y007476D01*
X031005Y007493D01*
X031005Y008493D01*
X031003Y008510D01*
X030999Y008527D01*
X030992Y008543D01*
X030982Y008557D01*
X030969Y008570D01*
X030955Y008580D01*
X030939Y008587D01*
X030922Y008591D01*
X030905Y008593D01*
X030205Y007993D02*
X030155Y007993D01*
X029955Y007993D02*
X029905Y007993D01*
X028655Y007055D02*
X028653Y007010D01*
X028648Y006964D01*
X028640Y006920D01*
X028628Y006876D01*
X028612Y006833D01*
X028594Y006791D01*
X028572Y006751D01*
X028548Y006713D01*
X028521Y006677D01*
X028491Y006642D01*
X028458Y006611D01*
X028423Y006581D01*
X027455Y007055D02*
X027457Y007102D01*
X027463Y007150D01*
X027472Y007196D01*
X027485Y007242D01*
X027501Y007286D01*
X027522Y007330D01*
X027545Y007371D01*
X027571Y007410D01*
X027601Y007447D01*
X027634Y007482D01*
X027669Y007514D01*
X027706Y007543D01*
X027455Y007055D02*
X027457Y007009D01*
X027462Y006963D01*
X027471Y006917D01*
X027483Y006872D01*
X027499Y006829D01*
X027518Y006787D01*
X027541Y006746D01*
X027566Y006707D01*
X027594Y006671D01*
X027625Y006636D01*
X027659Y006604D01*
X027695Y006575D01*
X028655Y007055D02*
X028653Y007100D01*
X028648Y007146D01*
X028640Y007190D01*
X028628Y007234D01*
X028612Y007277D01*
X028594Y007319D01*
X028572Y007359D01*
X028548Y007397D01*
X028521Y007433D01*
X028491Y007468D01*
X028458Y007499D01*
X028423Y007529D01*
X030242Y005868D02*
X029992Y005618D01*
X029992Y005118D01*
X030242Y004868D01*
X030742Y004868D01*
X030992Y005118D01*
X030992Y005618D01*
X030742Y005868D01*
X030242Y005868D01*
X030242Y004868D02*
X029992Y004618D01*
X029992Y004118D01*
X030242Y003868D01*
X030742Y003868D01*
X030992Y004118D01*
X030992Y004618D01*
X030742Y004868D01*
X028955Y005118D02*
X028955Y005268D01*
X028953Y005285D01*
X028949Y005302D01*
X028942Y005318D01*
X028932Y005332D01*
X028919Y005345D01*
X028905Y005355D01*
X028889Y005362D01*
X028872Y005366D01*
X028855Y005368D01*
X028255Y005368D01*
X028238Y005366D01*
X028221Y005362D01*
X028205Y005355D01*
X028191Y005345D01*
X028178Y005332D01*
X028168Y005318D01*
X028161Y005302D01*
X028157Y005285D01*
X028155Y005268D01*
X028155Y005118D01*
X028205Y005068D01*
X028205Y003668D01*
X028155Y003618D01*
X028155Y003468D01*
X028157Y003451D01*
X028161Y003434D01*
X028168Y003418D01*
X028178Y003404D01*
X028191Y003391D01*
X028205Y003381D01*
X028221Y003374D01*
X028238Y003370D01*
X028255Y003368D01*
X028855Y003368D01*
X028872Y003370D01*
X028889Y003374D01*
X028905Y003381D01*
X028919Y003391D01*
X028932Y003404D01*
X028942Y003418D01*
X028949Y003434D01*
X028953Y003451D01*
X028955Y003468D01*
X028955Y003618D01*
X028905Y003668D01*
X028905Y005068D01*
X028955Y005118D01*
X028298Y002056D02*
X028298Y001629D01*
X028055Y001618D02*
X027805Y001368D01*
X027805Y000868D01*
X028055Y000618D01*
X028555Y000618D01*
X028805Y000868D01*
X029055Y000618D01*
X029555Y000618D01*
X029805Y000868D01*
X029805Y001368D01*
X029555Y001618D01*
X029055Y001618D01*
X028805Y001368D01*
X028805Y000868D01*
X028805Y001368D02*
X028555Y001618D01*
X028055Y001618D01*
X028085Y001843D02*
X028512Y001843D01*
X026930Y001368D02*
X026930Y000868D01*
X026680Y000618D01*
X026180Y000618D01*
X025930Y000868D01*
X025680Y000618D01*
X025180Y000618D01*
X024930Y000868D01*
X024930Y001368D01*
X025180Y001618D01*
X025680Y001618D01*
X025930Y001368D01*
X026180Y001618D01*
X026680Y001618D01*
X026930Y001368D01*
X025930Y001368D02*
X025930Y000868D01*
X025361Y001754D02*
X025361Y002181D01*
X025147Y001968D02*
X025575Y001968D01*
X023930Y001368D02*
X023930Y000868D01*
X023680Y000618D01*
X023180Y000618D01*
X022930Y000868D01*
X022680Y000618D01*
X022180Y000618D01*
X021930Y000868D01*
X021930Y001368D01*
X022180Y001618D01*
X022680Y001618D01*
X022930Y001368D01*
X023180Y001618D01*
X023680Y001618D01*
X023930Y001368D01*
X022930Y001368D02*
X022930Y000868D01*
X021350Y002468D02*
X021192Y002468D01*
X021130Y003018D02*
X019480Y003018D01*
X019418Y002468D02*
X019260Y002468D01*
X019480Y003018D02*
X019443Y002967D01*
X019408Y002914D01*
X019376Y002858D01*
X019348Y002801D01*
X019324Y002742D01*
X019303Y002682D01*
X019286Y002621D01*
X019272Y002559D01*
X019263Y002496D01*
X019257Y002433D01*
X019255Y002369D01*
X019257Y002305D01*
X019263Y002242D01*
X019272Y002179D01*
X019285Y002117D01*
X019303Y002056D01*
X019323Y001996D01*
X019348Y001937D01*
X019375Y001880D01*
X019407Y001824D01*
X019441Y001771D01*
X019479Y001720D01*
X019520Y001671D01*
X019564Y001625D01*
X019610Y001581D01*
X019659Y001540D01*
X019710Y001503D01*
X019764Y001468D01*
X019819Y001437D01*
X019876Y001409D01*
X019935Y001385D01*
X019995Y001365D01*
X020615Y001365D02*
X020675Y001385D01*
X020734Y001409D01*
X020791Y001437D01*
X020846Y001468D01*
X020900Y001503D01*
X020951Y001540D01*
X021000Y001581D01*
X021046Y001625D01*
X021090Y001671D01*
X021131Y001720D01*
X021169Y001771D01*
X021203Y001824D01*
X021234Y001880D01*
X021262Y001937D01*
X021287Y001996D01*
X021307Y002056D01*
X021325Y002117D01*
X021338Y002179D01*
X021347Y002242D01*
X021353Y002305D01*
X021355Y002369D01*
X021353Y002433D01*
X021347Y002496D01*
X021338Y002559D01*
X021324Y002621D01*
X021307Y002682D01*
X021286Y002742D01*
X021262Y002801D01*
X021234Y002858D01*
X021202Y002914D01*
X021167Y002967D01*
X021130Y003018D01*
X021050Y004874D02*
X021024Y004928D01*
X020994Y004982D01*
X020961Y005033D01*
X020925Y005082D01*
X020886Y005128D01*
X020843Y005172D01*
X020799Y005213D01*
X020751Y005251D01*
X020701Y005286D01*
X020649Y005318D01*
X020596Y005346D01*
X020540Y005371D01*
X020483Y005392D01*
X020425Y005410D01*
X020366Y005424D01*
X020306Y005434D01*
X020245Y005440D01*
X020184Y005442D01*
X020123Y005440D01*
X020063Y005435D01*
X020003Y005425D01*
X019943Y005412D01*
X019885Y005395D01*
X019828Y005374D01*
X019772Y005350D01*
X019718Y005322D01*
X019666Y005291D01*
X019616Y005256D01*
X019568Y005218D01*
X019523Y005178D01*
X019480Y005134D01*
X019480Y005135D02*
X019480Y003850D01*
X019480Y003851D02*
X019523Y003807D01*
X019568Y003767D01*
X019616Y003729D01*
X019666Y003694D01*
X019718Y003663D01*
X019772Y003635D01*
X019828Y003611D01*
X019885Y003590D01*
X019943Y003573D01*
X020003Y003560D01*
X020063Y003550D01*
X020123Y003545D01*
X020184Y003543D01*
X020245Y003545D01*
X020306Y003551D01*
X020366Y003561D01*
X020425Y003575D01*
X020483Y003593D01*
X020540Y003614D01*
X020596Y003639D01*
X020649Y003667D01*
X020701Y003699D01*
X020751Y003734D01*
X020799Y003772D01*
X020843Y003813D01*
X020886Y003857D01*
X020925Y003903D01*
X020961Y003952D01*
X020994Y004003D01*
X021024Y004057D01*
X021050Y004111D01*
X022680Y006418D02*
X023680Y006418D01*
X023697Y006420D01*
X023714Y006424D01*
X023730Y006431D01*
X023744Y006441D01*
X023757Y006454D01*
X023767Y006468D01*
X023774Y006484D01*
X023778Y006501D01*
X023780Y006518D01*
X023780Y008218D01*
X023778Y008235D01*
X023774Y008252D01*
X023767Y008268D01*
X023757Y008282D01*
X023744Y008295D01*
X023730Y008305D01*
X023714Y008312D01*
X023697Y008316D01*
X023680Y008318D01*
X022680Y008318D01*
X022663Y008316D01*
X022646Y008312D01*
X022630Y008305D01*
X022616Y008295D01*
X022603Y008282D01*
X022593Y008268D01*
X022586Y008252D01*
X022582Y008235D01*
X022580Y008218D01*
X022580Y006518D01*
X022582Y006501D01*
X022586Y006484D01*
X022593Y006468D01*
X022603Y006454D01*
X022616Y006441D01*
X022630Y006431D01*
X022646Y006424D01*
X022663Y006420D01*
X022680Y006418D01*
X021755Y006618D02*
X021755Y007618D01*
X021753Y007635D01*
X021749Y007652D01*
X021742Y007668D01*
X021732Y007682D01*
X021719Y007695D01*
X021705Y007705D01*
X021689Y007712D01*
X021672Y007716D01*
X021655Y007718D01*
X019955Y007718D01*
X019938Y007716D01*
X019921Y007712D01*
X019905Y007705D01*
X019891Y007695D01*
X019878Y007682D01*
X019868Y007668D01*
X019861Y007652D01*
X019857Y007635D01*
X019855Y007618D01*
X019855Y006618D01*
X019857Y006601D01*
X019861Y006584D01*
X019868Y006568D01*
X019878Y006554D01*
X019891Y006541D01*
X019905Y006531D01*
X019921Y006524D01*
X019938Y006520D01*
X019955Y006518D01*
X021655Y006518D01*
X021672Y006520D01*
X021689Y006524D01*
X021705Y006531D01*
X021719Y006541D01*
X021732Y006554D01*
X021742Y006568D01*
X021749Y006584D01*
X021753Y006601D01*
X021755Y006618D01*
X020955Y007118D02*
X020905Y007118D01*
X020705Y007118D02*
X020655Y007118D01*
X019243Y008430D02*
X018993Y008180D01*
X018493Y008180D01*
X018243Y008430D01*
X017993Y008180D01*
X017493Y008180D01*
X017243Y008430D01*
X016993Y008180D01*
X016493Y008180D01*
X016243Y008430D01*
X016243Y008930D01*
X016493Y009180D01*
X016993Y009180D01*
X017243Y008930D01*
X017493Y009180D01*
X017993Y009180D01*
X018243Y008930D01*
X018493Y009180D01*
X018993Y009180D01*
X019243Y008930D01*
X019243Y008430D01*
X018243Y008430D02*
X018243Y008930D01*
X017680Y009530D02*
X017730Y009580D01*
X019130Y009580D01*
X019180Y009530D01*
X019330Y009530D01*
X019347Y009532D01*
X019364Y009536D01*
X019380Y009543D01*
X019394Y009553D01*
X019407Y009566D01*
X019417Y009580D01*
X019424Y009596D01*
X019428Y009613D01*
X019430Y009630D01*
X019430Y010230D01*
X019428Y010247D01*
X019424Y010264D01*
X019417Y010280D01*
X019407Y010294D01*
X019394Y010307D01*
X019380Y010317D01*
X019364Y010324D01*
X019347Y010328D01*
X019330Y010330D01*
X019180Y010330D01*
X019130Y010280D01*
X017730Y010280D01*
X017680Y010330D01*
X017530Y010330D01*
X017513Y010328D01*
X017496Y010324D01*
X017480Y010317D01*
X017466Y010307D01*
X017453Y010294D01*
X017443Y010280D01*
X017436Y010264D01*
X017432Y010247D01*
X017430Y010230D01*
X017430Y009630D01*
X017432Y009613D01*
X017436Y009596D01*
X017443Y009580D01*
X017453Y009566D01*
X017466Y009553D01*
X017480Y009543D01*
X017496Y009536D01*
X017513Y009532D01*
X017530Y009530D01*
X017680Y009530D01*
X017243Y008930D02*
X017243Y008430D01*
X016805Y007018D02*
X016655Y007018D01*
X016638Y007016D01*
X016621Y007012D01*
X016605Y007005D01*
X016591Y006995D01*
X016578Y006982D01*
X016568Y006968D01*
X016561Y006952D01*
X016557Y006935D01*
X016555Y006918D01*
X016555Y006318D01*
X016557Y006301D01*
X016561Y006284D01*
X016568Y006268D01*
X016578Y006254D01*
X016591Y006241D01*
X016605Y006231D01*
X016621Y006224D01*
X016638Y006220D01*
X016655Y006218D01*
X016805Y006218D01*
X016855Y006268D01*
X018255Y006268D01*
X018305Y006218D01*
X018455Y006218D01*
X018472Y006220D01*
X018489Y006224D01*
X018505Y006231D01*
X018519Y006241D01*
X018532Y006254D01*
X018542Y006268D01*
X018549Y006284D01*
X018553Y006301D01*
X018555Y006318D01*
X018555Y006918D01*
X018553Y006935D01*
X018549Y006952D01*
X018542Y006968D01*
X018532Y006982D01*
X018519Y006995D01*
X018505Y007005D01*
X018489Y007012D01*
X018472Y007016D01*
X018455Y007018D01*
X018305Y007018D01*
X018255Y006968D01*
X016855Y006968D01*
X016805Y007018D01*
X016555Y006018D02*
X016605Y005968D01*
X018005Y005968D01*
X018055Y006018D01*
X018205Y006018D01*
X018222Y006016D01*
X018239Y006012D01*
X018255Y006005D01*
X018269Y005995D01*
X018282Y005982D01*
X018292Y005968D01*
X018299Y005952D01*
X018303Y005935D01*
X018305Y005918D01*
X018305Y005318D01*
X018303Y005301D01*
X018299Y005284D01*
X018292Y005268D01*
X018282Y005254D01*
X018269Y005241D01*
X018255Y005231D01*
X018239Y005224D01*
X018222Y005220D01*
X018205Y005218D01*
X018055Y005218D01*
X018005Y005268D01*
X016605Y005268D01*
X016555Y005218D01*
X016405Y005218D01*
X016388Y005220D01*
X016371Y005224D01*
X016355Y005231D01*
X016341Y005241D01*
X016328Y005254D01*
X016318Y005268D01*
X016311Y005284D01*
X016307Y005301D01*
X016305Y005318D01*
X016305Y005918D01*
X016307Y005935D01*
X016311Y005952D01*
X016318Y005968D01*
X016328Y005982D01*
X016341Y005995D01*
X016355Y006005D01*
X016371Y006012D01*
X016388Y006016D01*
X016405Y006018D01*
X016555Y006018D01*
X015230Y007018D02*
X000630Y007018D01*
X000630Y009218D01*
X015230Y009218D01*
X015230Y008368D01*
X015200Y008366D01*
X015170Y008361D01*
X015141Y008352D01*
X015114Y008339D01*
X015088Y008324D01*
X015064Y008305D01*
X015043Y008284D01*
X015024Y008260D01*
X015009Y008234D01*
X014996Y008207D01*
X014987Y008178D01*
X014982Y008148D01*
X014980Y008118D01*
X014982Y008088D01*
X014987Y008058D01*
X014996Y008029D01*
X015009Y008002D01*
X015024Y007976D01*
X015043Y007952D01*
X015064Y007931D01*
X015088Y007912D01*
X015114Y007897D01*
X015141Y007884D01*
X015170Y007875D01*
X015200Y007870D01*
X015230Y007868D01*
X015230Y007018D01*
X012242Y005242D02*
X012242Y004742D01*
X011992Y004492D01*
X012242Y004242D01*
X012242Y003742D01*
X011992Y003492D01*
X012242Y003242D01*
X012242Y002742D01*
X011992Y002492D01*
X011492Y002492D01*
X011242Y002742D01*
X011242Y003242D01*
X011492Y003492D01*
X011242Y003742D01*
X011242Y004242D01*
X011492Y004492D01*
X011242Y004742D01*
X011242Y005242D01*
X011492Y005492D01*
X011992Y005492D01*
X012242Y005242D01*
X011992Y004492D02*
X011492Y004492D01*
X011492Y003492D02*
X011992Y003492D01*
X013655Y003918D02*
X013655Y002318D01*
X013657Y002301D01*
X013661Y002284D01*
X013668Y002268D01*
X013678Y002254D01*
X013691Y002241D01*
X013705Y002231D01*
X013721Y002224D01*
X013738Y002220D01*
X013755Y002218D01*
X014355Y002218D01*
X014372Y002220D01*
X014389Y002224D01*
X014405Y002231D01*
X014419Y002241D01*
X014432Y002254D01*
X014442Y002268D01*
X014449Y002284D01*
X014453Y002301D01*
X014455Y002318D01*
X014455Y003918D01*
X014453Y003935D01*
X014449Y003952D01*
X014442Y003968D01*
X014432Y003982D01*
X014419Y003995D01*
X014405Y004005D01*
X014389Y004012D01*
X014372Y004016D01*
X014355Y004018D01*
X013755Y004018D01*
X013738Y004016D01*
X013721Y004012D01*
X013705Y004005D01*
X013691Y003995D01*
X013678Y003982D01*
X013668Y003968D01*
X013661Y003952D01*
X013657Y003935D01*
X013655Y003918D01*
X014055Y003368D02*
X014055Y003118D01*
X014305Y003118D01*
X014305Y003018D01*
X014055Y003118D02*
X014055Y002518D01*
X014305Y002718D02*
X013805Y002718D01*
X014055Y003118D01*
X013805Y003118D01*
X014055Y003118D02*
X014305Y002718D01*
X014705Y002168D02*
X014705Y003568D01*
X014655Y003618D01*
X014655Y003768D01*
X014657Y003785D01*
X014661Y003802D01*
X014668Y003818D01*
X014678Y003832D01*
X014691Y003845D01*
X014705Y003855D01*
X014721Y003862D01*
X014738Y003866D01*
X014755Y003868D01*
X015355Y003868D01*
X015372Y003866D01*
X015389Y003862D01*
X015405Y003855D01*
X015419Y003845D01*
X015432Y003832D01*
X015442Y003818D01*
X015449Y003802D01*
X015453Y003785D01*
X015455Y003768D01*
X015455Y003618D01*
X015405Y003568D01*
X015405Y002168D01*
X015455Y002118D01*
X015455Y001968D01*
X015530Y001968D02*
X015530Y002118D01*
X015580Y002168D01*
X015580Y003568D01*
X015530Y003618D01*
X015530Y003768D01*
X015532Y003785D01*
X015536Y003802D01*
X015543Y003818D01*
X015553Y003832D01*
X015566Y003845D01*
X015580Y003855D01*
X015596Y003862D01*
X015613Y003866D01*
X015630Y003868D01*
X016230Y003868D01*
X016247Y003866D01*
X016264Y003862D01*
X016280Y003855D01*
X016294Y003845D01*
X016307Y003832D01*
X016317Y003818D01*
X016324Y003802D01*
X016328Y003785D01*
X016330Y003768D01*
X016330Y003618D01*
X016280Y003568D01*
X016280Y002168D01*
X016330Y002118D01*
X016330Y001968D01*
X016328Y001951D01*
X016324Y001934D01*
X016317Y001918D01*
X016307Y001904D01*
X016294Y001891D01*
X016280Y001881D01*
X016264Y001874D01*
X016247Y001870D01*
X016230Y001868D01*
X015630Y001868D01*
X015613Y001870D01*
X015596Y001874D01*
X015580Y001881D01*
X015566Y001891D01*
X015553Y001904D01*
X015543Y001918D01*
X015536Y001934D01*
X015532Y001951D01*
X015530Y001968D01*
X015455Y001968D02*
X015453Y001951D01*
X015449Y001934D01*
X015442Y001918D01*
X015432Y001904D01*
X015419Y001891D01*
X015405Y001881D01*
X015389Y001874D01*
X015372Y001870D01*
X015355Y001868D01*
X014755Y001868D01*
X014738Y001870D01*
X014721Y001874D01*
X014705Y001881D01*
X014691Y001891D01*
X014678Y001904D01*
X014668Y001918D01*
X014661Y001934D01*
X014657Y001951D01*
X014655Y001968D01*
X014655Y002118D01*
X014705Y002168D01*
X016552Y002308D02*
X016572Y002248D01*
X016596Y002189D01*
X016624Y002132D01*
X016655Y002077D01*
X016690Y002023D01*
X016727Y001972D01*
X016768Y001923D01*
X016812Y001877D01*
X016858Y001833D01*
X016907Y001792D01*
X016958Y001754D01*
X017011Y001720D01*
X017067Y001689D01*
X017124Y001661D01*
X017183Y001636D01*
X017243Y001616D01*
X017304Y001598D01*
X017366Y001585D01*
X017429Y001576D01*
X017492Y001570D01*
X017556Y001568D01*
X017620Y001570D01*
X017683Y001576D01*
X017746Y001585D01*
X017808Y001599D01*
X017869Y001616D01*
X017929Y001637D01*
X017988Y001661D01*
X018045Y001689D01*
X018101Y001721D01*
X018154Y001756D01*
X018205Y001793D01*
X018205Y003442D01*
X017655Y003505D02*
X017655Y003663D01*
X017655Y002730D02*
X017655Y002505D01*
X018205Y003443D02*
X018154Y003480D01*
X018101Y003515D01*
X018045Y003547D01*
X017988Y003575D01*
X017929Y003599D01*
X017869Y003620D01*
X017808Y003637D01*
X017746Y003651D01*
X017683Y003660D01*
X017620Y003666D01*
X017556Y003668D01*
X017492Y003666D01*
X017429Y003660D01*
X017366Y003651D01*
X017304Y003638D01*
X017243Y003620D01*
X017183Y003600D01*
X017124Y003575D01*
X017067Y003548D01*
X017011Y003516D01*
X016958Y003482D01*
X016907Y003444D01*
X016858Y003403D01*
X016812Y003359D01*
X016768Y003313D01*
X016727Y003264D01*
X016690Y003213D01*
X016655Y003159D01*
X016624Y003104D01*
X016596Y003047D01*
X016572Y002988D01*
X016552Y002928D01*
X017655Y001730D02*
X017655Y001572D01*
X023180Y007218D02*
X023180Y007268D01*
X023180Y007468D02*
X023180Y007518D01*
X022455Y008718D02*
X022305Y008718D01*
X022255Y008768D01*
X020855Y008768D01*
X020805Y008718D01*
X020655Y008718D01*
X020638Y008720D01*
X020621Y008724D01*
X020605Y008731D01*
X020591Y008741D01*
X020578Y008754D01*
X020568Y008768D01*
X020561Y008784D01*
X020557Y008801D01*
X020555Y008818D01*
X020555Y009418D01*
X020557Y009435D01*
X020561Y009452D01*
X020568Y009468D01*
X020578Y009482D01*
X020591Y009495D01*
X020605Y009505D01*
X020621Y009512D01*
X020638Y009516D01*
X020655Y009518D01*
X020805Y009518D01*
X020855Y009468D01*
X022255Y009468D01*
X022305Y009518D01*
X022455Y009518D01*
X022472Y009516D01*
X022489Y009512D01*
X022505Y009505D01*
X022519Y009495D01*
X022532Y009482D01*
X022542Y009468D01*
X022549Y009452D01*
X022553Y009435D01*
X022555Y009418D01*
X022555Y008818D01*
X022553Y008801D01*
X022549Y008784D01*
X022542Y008768D01*
X022532Y008754D01*
X022519Y008741D01*
X022505Y008731D01*
X022489Y008724D01*
X022472Y008720D01*
X022455Y008718D01*
X023685Y009749D02*
X023711Y009803D01*
X023741Y009857D01*
X023774Y009908D01*
X023810Y009957D01*
X023849Y010003D01*
X023892Y010047D01*
X023936Y010088D01*
X023984Y010126D01*
X024034Y010161D01*
X024086Y010193D01*
X024139Y010221D01*
X024195Y010246D01*
X024252Y010267D01*
X024310Y010285D01*
X024369Y010299D01*
X024429Y010309D01*
X024490Y010315D01*
X024551Y010317D01*
X024612Y010315D01*
X024672Y010310D01*
X024732Y010300D01*
X024792Y010287D01*
X024850Y010270D01*
X024907Y010249D01*
X024963Y010225D01*
X025017Y010197D01*
X025069Y010166D01*
X025119Y010131D01*
X025167Y010093D01*
X025212Y010053D01*
X025255Y010009D01*
X025255Y010010D02*
X025255Y008725D01*
X025255Y008726D02*
X025212Y008682D01*
X025167Y008642D01*
X025119Y008604D01*
X025069Y008569D01*
X025017Y008538D01*
X024963Y008510D01*
X024907Y008486D01*
X024850Y008465D01*
X024792Y008448D01*
X024732Y008435D01*
X024672Y008425D01*
X024612Y008420D01*
X024551Y008418D01*
X024490Y008420D01*
X024429Y008426D01*
X024369Y008436D01*
X024310Y008450D01*
X024252Y008468D01*
X024195Y008489D01*
X024139Y008514D01*
X024086Y008542D01*
X024034Y008574D01*
X023984Y008609D01*
X023936Y008647D01*
X023892Y008688D01*
X023849Y008732D01*
X023810Y008778D01*
X023774Y008827D01*
X023741Y008878D01*
X023711Y008932D01*
X023685Y008986D01*
X025305Y007943D02*
X025505Y007943D01*
X025405Y007843D02*
X025405Y008043D01*
X024805Y007243D02*
X024807Y007306D01*
X024813Y007368D01*
X024823Y007430D01*
X024836Y007492D01*
X024854Y007552D01*
X024875Y007611D01*
X024900Y007669D01*
X024929Y007725D01*
X024961Y007779D01*
X024996Y007831D01*
X025034Y007880D01*
X025076Y007928D01*
X025120Y007972D01*
X025168Y008014D01*
X025217Y008052D01*
X025269Y008087D01*
X025323Y008119D01*
X025379Y008148D01*
X025437Y008173D01*
X025496Y008194D01*
X025556Y008212D01*
X025618Y008225D01*
X025680Y008235D01*
X025742Y008241D01*
X025805Y008243D01*
X025868Y008241D01*
X025930Y008235D01*
X025992Y008225D01*
X026054Y008212D01*
X026114Y008194D01*
X026173Y008173D01*
X026231Y008148D01*
X026287Y008119D01*
X026341Y008087D01*
X026393Y008052D01*
X026442Y008014D01*
X026490Y007972D01*
X026534Y007928D01*
X026576Y007880D01*
X026614Y007831D01*
X026649Y007779D01*
X026681Y007725D01*
X026710Y007669D01*
X026735Y007611D01*
X026756Y007552D01*
X026774Y007492D01*
X026787Y007430D01*
X026797Y007368D01*
X026803Y007306D01*
X026805Y007243D01*
X026803Y007180D01*
X026797Y007118D01*
X026787Y007056D01*
X026774Y006994D01*
X026756Y006934D01*
X026735Y006875D01*
X026710Y006817D01*
X026681Y006761D01*
X026649Y006707D01*
X026614Y006655D01*
X026576Y006606D01*
X026534Y006558D01*
X026490Y006514D01*
X026442Y006472D01*
X026393Y006434D01*
X026341Y006399D01*
X026287Y006367D01*
X026231Y006338D01*
X026173Y006313D01*
X026114Y006292D01*
X026054Y006274D01*
X025992Y006261D01*
X025930Y006251D01*
X025868Y006245D01*
X025805Y006243D01*
X025742Y006245D01*
X025680Y006251D01*
X025618Y006261D01*
X025556Y006274D01*
X025496Y006292D01*
X025437Y006313D01*
X025379Y006338D01*
X025323Y006367D01*
X025269Y006399D01*
X025217Y006434D01*
X025168Y006472D01*
X025120Y006514D01*
X025076Y006558D01*
X025034Y006606D01*
X024996Y006655D01*
X024961Y006707D01*
X024929Y006761D01*
X024900Y006817D01*
X024875Y006875D01*
X024854Y006934D01*
X024836Y006994D01*
X024823Y007056D01*
X024813Y007118D01*
X024807Y007180D01*
X024805Y007243D01*
X024955Y005993D02*
X024555Y005743D01*
X024555Y005493D01*
X024555Y005743D02*
X024305Y005743D01*
X024555Y005743D02*
X024555Y005993D01*
X024555Y005743D02*
X025155Y005743D01*
X024955Y005993D02*
X024955Y005493D01*
X024555Y005743D01*
X023735Y006105D02*
X025375Y006105D01*
X025375Y005380D01*
X023735Y005380D01*
X023735Y006105D01*
X024742Y004968D02*
X024789Y004966D01*
X024837Y004960D01*
X024883Y004951D01*
X024929Y004938D01*
X024973Y004922D01*
X025017Y004901D01*
X025058Y004878D01*
X025097Y004852D01*
X025134Y004822D01*
X025169Y004789D01*
X025201Y004754D01*
X025230Y004717D01*
X024742Y003768D02*
X024697Y003770D01*
X024651Y003775D01*
X024607Y003783D01*
X024563Y003795D01*
X024520Y003811D01*
X024478Y003829D01*
X024438Y003851D01*
X024400Y003875D01*
X024364Y003902D01*
X024329Y003932D01*
X024298Y003965D01*
X024268Y004000D01*
X024742Y003768D02*
X024787Y003770D01*
X024833Y003775D01*
X024877Y003783D01*
X024921Y003795D01*
X024964Y003811D01*
X025006Y003829D01*
X025046Y003851D01*
X025084Y003875D01*
X025120Y003902D01*
X025155Y003932D01*
X025186Y003965D01*
X025216Y004000D01*
X024742Y004968D02*
X024696Y004966D01*
X024650Y004961D01*
X024604Y004952D01*
X024559Y004940D01*
X024516Y004924D01*
X024474Y004905D01*
X024433Y004882D01*
X024394Y004857D01*
X024358Y004829D01*
X024323Y004798D01*
X024291Y004764D01*
X024262Y004728D01*
X030180Y010293D02*
X030180Y011193D01*
X030180Y012293D02*
X030180Y012543D01*
X030178Y012566D01*
X030173Y012589D01*
X030164Y012611D01*
X030151Y012631D01*
X030136Y012649D01*
X030118Y012664D01*
X030098Y012677D01*
X030076Y012686D01*
X030053Y012691D01*
X030030Y012693D01*
X030063Y015023D02*
X030063Y015283D01*
X030063Y015153D02*
X030194Y015283D01*
X030259Y015283D01*
X029909Y015218D02*
X029909Y015153D01*
X029649Y015153D01*
X029649Y015088D02*
X029649Y015218D01*
X029714Y015283D01*
X029844Y015283D01*
X029909Y015218D01*
X029844Y015023D02*
X029714Y015023D01*
X029649Y015088D01*
X029495Y015088D02*
X029430Y015023D01*
X029235Y015023D01*
X029235Y014892D02*
X029235Y015283D01*
X029430Y015283D01*
X029495Y015218D01*
X029495Y015088D01*
X029081Y015153D02*
X028885Y015153D01*
X028820Y015088D01*
X028885Y015023D01*
X029081Y015023D01*
X029081Y015218D01*
X029016Y015283D01*
X028885Y015283D01*
X028666Y015218D02*
X028666Y015088D01*
X028601Y015023D01*
X028406Y015023D01*
X028406Y014892D02*
X028406Y015283D01*
X028601Y015283D01*
X028666Y015218D01*
X028252Y015283D02*
X028057Y015283D01*
X027992Y015218D01*
X027992Y015088D01*
X028057Y015023D01*
X028252Y015023D01*
X028252Y015413D01*
X027838Y015218D02*
X027838Y015023D01*
X027838Y015218D02*
X027773Y015283D01*
X027577Y015283D01*
X027577Y015023D01*
X027423Y015023D02*
X027423Y015218D01*
X027358Y015283D01*
X027228Y015283D01*
X027228Y015153D02*
X027163Y015088D01*
X027228Y015023D01*
X027423Y015023D01*
X027423Y015153D02*
X027228Y015153D01*
X027009Y015088D02*
X026944Y015153D01*
X026814Y015153D01*
X026749Y015218D01*
X026814Y015283D01*
X027009Y015283D01*
X027009Y015088D02*
X026944Y015023D01*
X026749Y015023D01*
X026180Y015023D02*
X025985Y015023D01*
X025920Y015088D01*
X025920Y015283D01*
X025766Y015218D02*
X025766Y015088D01*
X025701Y015023D01*
X025506Y015023D01*
X025506Y015413D01*
X025506Y015283D02*
X025701Y015283D01*
X025766Y015218D01*
X026180Y015283D02*
X026180Y014957D01*
X026115Y014892D01*
X026050Y014892D01*
X024937Y015153D02*
X024677Y015153D01*
X024677Y015088D02*
X024677Y015218D01*
X024742Y015283D01*
X024872Y015283D01*
X024937Y015218D01*
X024937Y015153D01*
X024872Y015023D02*
X024742Y015023D01*
X024677Y015088D01*
X024531Y015023D02*
X024401Y015023D01*
X024466Y015023D02*
X024466Y015413D01*
X024401Y015413D01*
X024247Y015283D02*
X024247Y014957D01*
X024181Y014892D01*
X024116Y014892D01*
X024051Y015023D02*
X024247Y015023D01*
X024051Y015023D02*
X023986Y015088D01*
X023986Y015218D01*
X024051Y015283D01*
X024247Y015283D01*
X023832Y015218D02*
X023832Y015023D01*
X023832Y015218D02*
X023767Y015283D01*
X023572Y015283D01*
X023572Y015023D01*
X023418Y015023D02*
X023223Y015023D01*
X023158Y015088D01*
X023223Y015153D01*
X023418Y015153D01*
X023418Y015218D02*
X023418Y015023D01*
X023418Y015218D02*
X023353Y015283D01*
X023223Y015283D01*
X023011Y015283D02*
X022881Y015283D01*
X022946Y015348D02*
X022946Y015088D01*
X023011Y015023D01*
X022727Y015023D02*
X022532Y015023D01*
X022467Y015088D01*
X022467Y015218D01*
X022532Y015283D01*
X022727Y015283D01*
X022313Y015218D02*
X022313Y015153D01*
X022053Y015153D01*
X022053Y015088D02*
X022053Y015218D01*
X022118Y015283D01*
X022248Y015283D01*
X022313Y015218D01*
X022248Y015023D02*
X022118Y015023D01*
X022053Y015088D01*
X021903Y015283D02*
X021837Y015283D01*
X021707Y015153D01*
X021707Y015023D02*
X021707Y015283D01*
X021147Y015218D02*
X021017Y015218D01*
X021082Y015348D02*
X021147Y015413D01*
X021082Y015348D02*
X021082Y015023D01*
X020863Y015088D02*
X020863Y015218D01*
X020798Y015283D01*
X020667Y015283D01*
X020602Y015218D01*
X020602Y015088D01*
X020667Y015023D01*
X020798Y015023D01*
X020863Y015088D01*
X020034Y015153D02*
X019774Y015153D01*
X019774Y015088D02*
X019774Y015218D01*
X019839Y015283D01*
X019969Y015283D01*
X020034Y015218D01*
X020034Y015153D01*
X019969Y015023D02*
X019839Y015023D01*
X019774Y015088D01*
X019620Y015023D02*
X019424Y015023D01*
X019359Y015088D01*
X019359Y015218D01*
X019424Y015283D01*
X019620Y015283D01*
X019620Y014957D01*
X019555Y014892D01*
X019489Y014892D01*
X019205Y015023D02*
X019010Y015023D01*
X018945Y015088D01*
X018945Y015218D01*
X019010Y015283D01*
X019205Y015283D01*
X019205Y015413D02*
X019205Y015023D01*
X018791Y015153D02*
X018531Y015153D01*
X018531Y015088D02*
X018531Y015218D01*
X018596Y015283D01*
X018726Y015283D01*
X018791Y015218D01*
X018791Y015153D01*
X018726Y015023D02*
X018596Y015023D01*
X018531Y015088D01*
X017962Y015153D02*
X017962Y015218D01*
X017897Y015283D01*
X017767Y015283D01*
X017702Y015218D01*
X017702Y015088D01*
X017767Y015023D01*
X017897Y015023D01*
X017962Y015153D02*
X017702Y015153D01*
X017548Y015218D02*
X017548Y015023D01*
X017548Y015218D02*
X017483Y015283D01*
X017353Y015283D01*
X017288Y015218D01*
X017141Y015283D02*
X017011Y015283D01*
X017076Y015348D02*
X017076Y015088D01*
X017141Y015023D01*
X017288Y015023D02*
X017288Y015413D01*
X016443Y015218D02*
X016443Y015088D01*
X016378Y015023D01*
X016248Y015023D01*
X016183Y015088D01*
X016183Y015218D01*
X016248Y015283D01*
X016378Y015283D01*
X016443Y015218D01*
X016037Y015283D02*
X015906Y015283D01*
X015971Y015348D02*
X015971Y015088D01*
X016037Y015023D01*
X015338Y015023D02*
X015338Y015218D01*
X015273Y015283D01*
X015143Y015283D01*
X015078Y015218D01*
X014924Y015283D02*
X014728Y015283D01*
X014663Y015218D01*
X014728Y015153D01*
X014859Y015153D01*
X014924Y015088D01*
X014859Y015023D01*
X014663Y015023D01*
X014517Y015023D02*
X014387Y015023D01*
X014452Y015023D02*
X014452Y015283D01*
X014387Y015283D01*
X014452Y015413D02*
X014452Y015478D01*
X014176Y015413D02*
X014176Y015023D01*
X014111Y015023D02*
X014241Y015023D01*
X013957Y015088D02*
X013957Y015218D01*
X013892Y015283D01*
X013762Y015283D01*
X013697Y015218D01*
X013697Y015088D01*
X013762Y015023D01*
X013892Y015023D01*
X013957Y015088D01*
X014111Y015413D02*
X014176Y015413D01*
X013542Y015218D02*
X013542Y015088D01*
X013477Y015023D01*
X013282Y015023D01*
X013282Y014892D02*
X013282Y015283D01*
X013477Y015283D01*
X013542Y015218D01*
X012714Y015218D02*
X012714Y015023D01*
X012714Y015218D02*
X012649Y015283D01*
X012453Y015283D01*
X012453Y015023D01*
X012299Y015153D02*
X012039Y015153D01*
X012039Y015088D02*
X012039Y015218D01*
X012104Y015283D01*
X012234Y015283D01*
X012299Y015218D01*
X012299Y015153D01*
X012234Y015023D02*
X012104Y015023D01*
X012039Y015088D01*
X011885Y015023D02*
X011885Y015218D01*
X011820Y015283D01*
X011690Y015283D01*
X011625Y015218D01*
X011479Y015283D02*
X011349Y015283D01*
X011414Y015348D02*
X011414Y015088D01*
X011479Y015023D01*
X011625Y015023D02*
X011625Y015413D01*
X010780Y015283D02*
X010780Y015088D01*
X010715Y015023D01*
X010650Y015088D01*
X010585Y015023D01*
X010520Y015088D01*
X010520Y015283D01*
X010366Y015218D02*
X010366Y015023D01*
X010171Y015023D01*
X010105Y015088D01*
X010171Y015153D01*
X010366Y015153D01*
X010366Y015218D02*
X010301Y015283D01*
X010171Y015283D01*
X009951Y015348D02*
X009886Y015413D01*
X009756Y015413D01*
X009691Y015348D01*
X009691Y015283D01*
X009756Y015218D01*
X009886Y015218D01*
X009951Y015153D01*
X009951Y015088D01*
X009886Y015023D01*
X009756Y015023D01*
X009691Y015088D01*
X009123Y015023D02*
X008927Y015023D01*
X008862Y015088D01*
X008862Y015283D01*
X008708Y015218D02*
X008643Y015283D01*
X008448Y015283D01*
X008448Y015413D02*
X008448Y015023D01*
X008643Y015023D01*
X008708Y015088D01*
X008708Y015218D01*
X009123Y015283D02*
X009123Y014957D01*
X009058Y014892D01*
X008992Y014892D01*
X007880Y015153D02*
X007619Y015153D01*
X007619Y015088D02*
X007619Y015218D01*
X007684Y015283D01*
X007814Y015283D01*
X007880Y015218D01*
X007880Y015153D01*
X007814Y015023D02*
X007684Y015023D01*
X007619Y015088D01*
X007473Y015023D02*
X007343Y015023D01*
X007408Y015023D02*
X007408Y015413D01*
X007343Y015413D01*
X007189Y015283D02*
X006994Y015283D01*
X006929Y015218D01*
X006929Y015088D01*
X006994Y015023D01*
X007189Y015023D01*
X007189Y014957D02*
X007189Y015283D01*
X007189Y014957D02*
X007124Y014892D01*
X007059Y014892D01*
X006775Y015023D02*
X006775Y015218D01*
X006710Y015283D01*
X006514Y015283D01*
X006514Y015023D01*
X006360Y015023D02*
X006360Y015218D01*
X006295Y015283D01*
X006165Y015283D01*
X006165Y015153D02*
X006360Y015153D01*
X006360Y015023D02*
X006165Y015023D01*
X006100Y015088D01*
X006165Y015153D01*
X005954Y015283D02*
X005824Y015283D01*
X005889Y015348D02*
X005889Y015088D01*
X005954Y015023D01*
X005670Y015023D02*
X005474Y015023D01*
X005409Y015088D01*
X005409Y015218D01*
X005474Y015283D01*
X005670Y015283D01*
X005255Y015218D02*
X005255Y015153D01*
X004995Y015153D01*
X004995Y015088D02*
X004995Y015218D01*
X005060Y015283D01*
X005190Y015283D01*
X005255Y015218D01*
X005190Y015023D02*
X005060Y015023D01*
X004995Y015088D01*
X004845Y015283D02*
X004780Y015283D01*
X004650Y015153D01*
X004650Y015023D02*
X004650Y015283D01*
X004081Y015283D02*
X003886Y015283D01*
X003821Y015218D01*
X003886Y015153D01*
X004016Y015153D01*
X004081Y015088D01*
X004016Y015023D01*
X003821Y015023D01*
X003675Y015023D02*
X003545Y015023D01*
X003610Y015023D02*
X003610Y015283D01*
X003545Y015283D01*
X003610Y015413D02*
X003610Y015478D01*
X003391Y015218D02*
X003391Y015023D01*
X003391Y015218D02*
X003326Y015283D01*
X003196Y015283D01*
X003130Y015218D01*
X002984Y015283D02*
X002854Y015283D01*
X002919Y015348D02*
X002919Y015088D01*
X002984Y015023D01*
X003130Y015023D02*
X003130Y015413D01*
X002294Y015283D02*
X002164Y015283D01*
X002229Y015348D02*
X002229Y015088D01*
X002294Y015023D01*
X002010Y015023D02*
X002010Y015283D01*
X002010Y015023D02*
X001814Y015023D01*
X001749Y015088D01*
X001749Y015283D01*
X001595Y015348D02*
X001530Y015413D01*
X001400Y015413D01*
X001335Y015348D01*
X001335Y015088D01*
X001400Y015023D01*
X001530Y015023D01*
X001595Y015088D01*
X002492Y013805D02*
X002992Y013805D01*
X003242Y013555D01*
X003242Y012055D01*
X003492Y011805D01*
X003992Y011805D01*
X004242Y012055D01*
X004492Y011805D01*
X004992Y011805D01*
X005242Y012055D01*
X005242Y013555D01*
X004992Y013805D01*
X004492Y013805D01*
X004242Y013555D01*
X004242Y012055D01*
X003242Y012055D02*
X002992Y011805D01*
X002492Y011805D01*
X002242Y012055D01*
X002242Y013555D01*
X002492Y013805D01*
X003242Y013555D02*
X003492Y013805D01*
X003992Y013805D01*
X004242Y013555D01*
X005855Y013680D02*
X005855Y012680D01*
X005857Y012663D01*
X005861Y012646D01*
X005868Y012630D01*
X005878Y012616D01*
X005891Y012603D01*
X005905Y012593D01*
X005921Y012586D01*
X005938Y012582D01*
X005955Y012580D01*
X007655Y012580D01*
X007672Y012582D01*
X007689Y012586D01*
X007705Y012593D01*
X007719Y012603D01*
X007732Y012616D01*
X007742Y012630D01*
X007749Y012646D01*
X007753Y012663D01*
X007755Y012680D01*
X007755Y013680D01*
X007753Y013697D01*
X007749Y013714D01*
X007742Y013730D01*
X007732Y013744D01*
X007719Y013757D01*
X007705Y013767D01*
X007689Y013774D01*
X007672Y013778D01*
X007655Y013780D01*
X005955Y013780D01*
X005938Y013778D01*
X005921Y013774D01*
X005905Y013767D01*
X005891Y013757D01*
X005878Y013744D01*
X005868Y013730D01*
X005861Y013714D01*
X005857Y013697D01*
X005855Y013680D01*
X006655Y013180D02*
X006705Y013180D01*
X006905Y013180D02*
X006955Y013180D01*
X007055Y011493D02*
X006555Y011493D01*
X006305Y011243D01*
X006305Y010743D01*
X006555Y010493D01*
X007055Y010493D01*
X007305Y010743D01*
X007555Y010493D01*
X008055Y010493D01*
X008305Y010743D01*
X008305Y011243D01*
X008055Y011493D01*
X007555Y011493D01*
X007305Y011243D01*
X007305Y010743D01*
X007305Y011243D02*
X007055Y011493D01*
X006305Y011243D02*
X006055Y011493D01*
X005555Y011493D01*
X005305Y011243D01*
X005305Y010743D01*
X005555Y010493D01*
X006055Y010493D01*
X006305Y010743D01*
X009555Y012818D02*
X009555Y013418D01*
X009557Y013435D01*
X009561Y013452D01*
X009568Y013468D01*
X009578Y013482D01*
X009591Y013495D01*
X009605Y013505D01*
X009621Y013512D01*
X009638Y013516D01*
X009655Y013518D01*
X009805Y013518D01*
X009855Y013468D01*
X011255Y013468D01*
X011305Y013518D01*
X011455Y013518D01*
X011472Y013516D01*
X011489Y013512D01*
X011505Y013505D01*
X011519Y013495D01*
X011532Y013482D01*
X011542Y013468D01*
X011549Y013452D01*
X011553Y013435D01*
X011555Y013418D01*
X011555Y012818D01*
X011553Y012801D01*
X011549Y012784D01*
X011542Y012768D01*
X011532Y012754D01*
X011519Y012741D01*
X011505Y012731D01*
X011489Y012724D01*
X011472Y012720D01*
X011455Y012718D01*
X011305Y012718D01*
X011255Y012768D01*
X009855Y012768D01*
X009805Y012718D01*
X009655Y012718D01*
X009638Y012720D01*
X009621Y012724D01*
X009605Y012731D01*
X009591Y012741D01*
X009578Y012754D01*
X009568Y012768D01*
X009561Y012784D01*
X009557Y012801D01*
X009555Y012818D01*
X006055Y016243D02*
X005555Y016243D01*
X005305Y016493D01*
X005055Y016243D01*
X004555Y016243D01*
X004305Y016493D01*
X004055Y016243D01*
X003555Y016243D01*
X003305Y016493D01*
X003305Y016993D01*
X003555Y017243D01*
X004055Y017243D01*
X004305Y016993D01*
X004555Y017243D01*
X005055Y017243D01*
X005305Y016993D01*
X005555Y017243D01*
X006055Y017243D01*
X006305Y016993D01*
X006305Y016493D01*
X006055Y016243D01*
X005305Y016493D02*
X005305Y016993D01*
X004305Y016993D02*
X004305Y016493D01*
X004130Y018743D02*
X004730Y018743D01*
X004747Y018745D01*
X004764Y018749D01*
X004780Y018756D01*
X004794Y018766D01*
X004807Y018779D01*
X004817Y018793D01*
X004824Y018809D01*
X004828Y018826D01*
X004830Y018843D01*
X004830Y018993D01*
X004780Y019043D01*
X004780Y020443D01*
X004830Y020493D01*
X004830Y020643D01*
X004828Y020660D01*
X004824Y020677D01*
X004817Y020693D01*
X004807Y020707D01*
X004794Y020720D01*
X004780Y020730D01*
X004764Y020737D01*
X004747Y020741D01*
X004730Y020743D01*
X004130Y020743D01*
X004113Y020741D01*
X004096Y020737D01*
X004080Y020730D01*
X004066Y020720D01*
X004053Y020707D01*
X004043Y020693D01*
X004036Y020677D01*
X004032Y020660D01*
X004030Y020643D01*
X004030Y020493D01*
X004080Y020443D01*
X004080Y019043D01*
X004030Y018993D01*
X004030Y018843D01*
X004032Y018826D01*
X004036Y018809D01*
X004043Y018793D01*
X004053Y018779D01*
X004066Y018766D01*
X004080Y018756D01*
X004096Y018749D01*
X004113Y018745D01*
X004130Y018743D01*
X003830Y018843D02*
X003830Y018993D01*
X003780Y019043D01*
X003780Y020443D01*
X003830Y020493D01*
X003830Y020643D01*
X003828Y020660D01*
X003824Y020677D01*
X003817Y020693D01*
X003807Y020707D01*
X003794Y020720D01*
X003780Y020730D01*
X003764Y020737D01*
X003747Y020741D01*
X003730Y020743D01*
X003130Y020743D01*
X003113Y020741D01*
X003096Y020737D01*
X003080Y020730D01*
X003066Y020720D01*
X003053Y020707D01*
X003043Y020693D01*
X003036Y020677D01*
X003032Y020660D01*
X003030Y020643D01*
X003030Y020493D01*
X003080Y020443D01*
X003080Y019043D01*
X003030Y018993D01*
X003030Y018843D01*
X003032Y018826D01*
X003036Y018809D01*
X003043Y018793D01*
X003053Y018779D01*
X003066Y018766D01*
X003080Y018756D01*
X003096Y018749D01*
X003113Y018745D01*
X003130Y018743D01*
X003730Y018743D01*
X003747Y018745D01*
X003764Y018749D01*
X003780Y018756D01*
X003794Y018766D01*
X003807Y018779D01*
X003817Y018793D01*
X003824Y018809D01*
X003828Y018826D01*
X003830Y018843D01*
X002830Y018843D02*
X002830Y018993D01*
X002780Y019043D01*
X002780Y020443D01*
X002830Y020493D01*
X002830Y020643D01*
X002828Y020660D01*
X002824Y020677D01*
X002817Y020693D01*
X002807Y020707D01*
X002794Y020720D01*
X002780Y020730D01*
X002764Y020737D01*
X002747Y020741D01*
X002730Y020743D01*
X002130Y020743D01*
X002113Y020741D01*
X002096Y020737D01*
X002080Y020730D01*
X002066Y020720D01*
X002053Y020707D01*
X002043Y020693D01*
X002036Y020677D01*
X002032Y020660D01*
X002030Y020643D01*
X002030Y020493D01*
X002080Y020443D01*
X002080Y019043D01*
X002030Y018993D01*
X002030Y018843D01*
X002032Y018826D01*
X002036Y018809D01*
X002043Y018793D01*
X002053Y018779D01*
X002066Y018766D01*
X002080Y018756D01*
X002096Y018749D01*
X002113Y018745D01*
X002130Y018743D01*
X002730Y018743D01*
X002747Y018745D01*
X002764Y018749D01*
X002780Y018756D01*
X002794Y018766D01*
X002807Y018779D01*
X002817Y018793D01*
X002824Y018809D01*
X002828Y018826D01*
X002830Y018843D01*
X005030Y018843D02*
X005030Y018993D01*
X005080Y019043D01*
X005080Y020443D01*
X005030Y020493D01*
X005030Y020643D01*
X005032Y020660D01*
X005036Y020677D01*
X005043Y020693D01*
X005053Y020707D01*
X005066Y020720D01*
X005080Y020730D01*
X005096Y020737D01*
X005113Y020741D01*
X005130Y020743D01*
X005730Y020743D01*
X005747Y020741D01*
X005764Y020737D01*
X005780Y020730D01*
X005794Y020720D01*
X005807Y020707D01*
X005817Y020693D01*
X005824Y020677D01*
X005828Y020660D01*
X005830Y020643D01*
X005830Y020493D01*
X005780Y020443D01*
X005780Y019043D01*
X005830Y018993D01*
X005830Y018843D01*
X005828Y018826D01*
X005824Y018809D01*
X005817Y018793D01*
X005807Y018779D01*
X005794Y018766D01*
X005780Y018756D01*
X005764Y018749D01*
X005747Y018745D01*
X005730Y018743D01*
X005130Y018743D01*
X005113Y018745D01*
X005096Y018749D01*
X005080Y018756D01*
X005066Y018766D01*
X005053Y018779D01*
X005043Y018793D01*
X005036Y018809D01*
X005032Y018826D01*
X005030Y018843D01*
X006030Y018843D02*
X006030Y018993D01*
X006080Y019043D01*
X006080Y020443D01*
X006030Y020493D01*
X006030Y020643D01*
X006032Y020660D01*
X006036Y020677D01*
X006043Y020693D01*
X006053Y020707D01*
X006066Y020720D01*
X006080Y020730D01*
X006096Y020737D01*
X006113Y020741D01*
X006130Y020743D01*
X006730Y020743D01*
X006747Y020741D01*
X006764Y020737D01*
X006780Y020730D01*
X006794Y020720D01*
X006807Y020707D01*
X006817Y020693D01*
X006824Y020677D01*
X006828Y020660D01*
X006830Y020643D01*
X006830Y020493D01*
X006780Y020443D01*
X006780Y019043D01*
X006830Y018993D01*
X006830Y018843D01*
X006828Y018826D01*
X006824Y018809D01*
X006817Y018793D01*
X006807Y018779D01*
X006794Y018766D01*
X006780Y018756D01*
X006764Y018749D01*
X006747Y018745D01*
X006730Y018743D01*
X006130Y018743D01*
X006113Y018745D01*
X006096Y018749D01*
X006080Y018756D01*
X006066Y018766D01*
X006053Y018779D01*
X006043Y018793D01*
X006036Y018809D01*
X006032Y018826D01*
X006030Y018843D01*
X007030Y018843D02*
X007030Y018993D01*
X007080Y019043D01*
X007080Y020443D01*
X007030Y020493D01*
X007030Y020643D01*
X007032Y020660D01*
X007036Y020677D01*
X007043Y020693D01*
X007053Y020707D01*
X007066Y020720D01*
X007080Y020730D01*
X007096Y020737D01*
X007113Y020741D01*
X007130Y020743D01*
X007730Y020743D01*
X007747Y020741D01*
X007764Y020737D01*
X007780Y020730D01*
X007794Y020720D01*
X007807Y020707D01*
X007817Y020693D01*
X007824Y020677D01*
X007828Y020660D01*
X007830Y020643D01*
X007830Y020493D01*
X007780Y020443D01*
X007780Y019043D01*
X007830Y018993D01*
X007830Y018843D01*
X007828Y018826D01*
X007824Y018809D01*
X007817Y018793D01*
X007807Y018779D01*
X007794Y018766D01*
X007780Y018756D01*
X007764Y018749D01*
X007747Y018745D01*
X007730Y018743D01*
X007130Y018743D01*
X007113Y018745D01*
X007096Y018749D01*
X007080Y018756D01*
X007066Y018766D01*
X007053Y018779D01*
X007043Y018793D01*
X007036Y018809D01*
X007032Y018826D01*
X007030Y018843D01*
X007955Y019518D02*
X007955Y021218D01*
X007957Y021235D01*
X007961Y021252D01*
X007968Y021268D01*
X007978Y021282D01*
X007991Y021295D01*
X008005Y021305D01*
X008021Y021312D01*
X008038Y021316D01*
X008055Y021318D01*
X009055Y021318D01*
X009072Y021316D01*
X009089Y021312D01*
X009105Y021305D01*
X009119Y021295D01*
X009132Y021282D01*
X009142Y021268D01*
X009149Y021252D01*
X009153Y021235D01*
X009155Y021218D01*
X009155Y019518D01*
X009153Y019501D01*
X009149Y019484D01*
X009142Y019468D01*
X009132Y019454D01*
X009119Y019441D01*
X009105Y019431D01*
X009089Y019424D01*
X009072Y019420D01*
X009055Y019418D01*
X008055Y019418D01*
X008038Y019420D01*
X008021Y019424D01*
X008005Y019431D01*
X007991Y019441D01*
X007978Y019454D01*
X007968Y019468D01*
X007961Y019484D01*
X007957Y019501D01*
X007955Y019518D01*
X008555Y020218D02*
X008555Y020268D01*
X008555Y020468D02*
X008555Y020518D01*
X011242Y020367D02*
X011492Y020117D01*
X011992Y020117D01*
X012242Y020367D01*
X012242Y020867D01*
X011992Y021117D01*
X011492Y021117D01*
X011242Y020867D01*
X011242Y020367D01*
X011492Y020117D02*
X011242Y019867D01*
X011242Y019367D01*
X011492Y019117D01*
X011992Y019117D01*
X012242Y019367D01*
X012242Y019867D01*
X011992Y020117D01*
X011992Y019117D02*
X012242Y018867D01*
X012242Y018367D01*
X011992Y018117D01*
X011492Y018117D01*
X011242Y018367D01*
X011242Y018867D01*
X011492Y019117D01*
X013655Y019543D02*
X013655Y017943D01*
X013657Y017926D01*
X013661Y017909D01*
X013668Y017893D01*
X013678Y017879D01*
X013691Y017866D01*
X013705Y017856D01*
X013721Y017849D01*
X013738Y017845D01*
X013755Y017843D01*
X014355Y017843D01*
X014372Y017845D01*
X014389Y017849D01*
X014405Y017856D01*
X014419Y017866D01*
X014432Y017879D01*
X014442Y017893D01*
X014449Y017909D01*
X014453Y017926D01*
X014455Y017943D01*
X014455Y019543D01*
X014453Y019560D01*
X014449Y019577D01*
X014442Y019593D01*
X014432Y019607D01*
X014419Y019620D01*
X014405Y019630D01*
X014389Y019637D01*
X014372Y019641D01*
X014355Y019643D01*
X013755Y019643D01*
X013738Y019641D01*
X013721Y019637D01*
X013705Y019630D01*
X013691Y019620D01*
X013678Y019607D01*
X013668Y019593D01*
X013661Y019577D01*
X013657Y019560D01*
X013655Y019543D01*
X014055Y018993D02*
X014055Y018743D01*
X014305Y018743D01*
X014305Y018643D01*
X014055Y018743D02*
X013805Y018343D01*
X014305Y018343D01*
X014055Y018743D01*
X013805Y018743D01*
X014055Y018743D02*
X014055Y018143D01*
X014655Y017743D02*
X014655Y017593D01*
X014657Y017576D01*
X014661Y017559D01*
X014668Y017543D01*
X014678Y017529D01*
X014691Y017516D01*
X014705Y017506D01*
X014721Y017499D01*
X014738Y017495D01*
X014755Y017493D01*
X015355Y017493D01*
X015372Y017495D01*
X015389Y017499D01*
X015405Y017506D01*
X015419Y017516D01*
X015432Y017529D01*
X015442Y017543D01*
X015449Y017559D01*
X015453Y017576D01*
X015455Y017593D01*
X015455Y017743D01*
X015405Y017793D01*
X015405Y019193D01*
X015455Y019243D01*
X015455Y019393D01*
X015530Y019393D02*
X015530Y019243D01*
X015580Y019193D01*
X015580Y017793D01*
X015530Y017743D01*
X015530Y017593D01*
X015532Y017576D01*
X015536Y017559D01*
X015543Y017543D01*
X015553Y017529D01*
X015566Y017516D01*
X015580Y017506D01*
X015596Y017499D01*
X015613Y017495D01*
X015630Y017493D01*
X016230Y017493D01*
X016247Y017495D01*
X016264Y017499D01*
X016280Y017506D01*
X016294Y017516D01*
X016307Y017529D01*
X016317Y017543D01*
X016324Y017559D01*
X016328Y017576D01*
X016330Y017593D01*
X016330Y017743D01*
X016280Y017793D01*
X016280Y019193D01*
X016330Y019243D01*
X016330Y019393D01*
X016328Y019410D01*
X016324Y019427D01*
X016317Y019443D01*
X016307Y019457D01*
X016294Y019470D01*
X016280Y019480D01*
X016264Y019487D01*
X016247Y019491D01*
X016230Y019493D01*
X015630Y019493D01*
X015613Y019491D01*
X015596Y019487D01*
X015580Y019480D01*
X015566Y019470D01*
X015553Y019457D01*
X015543Y019443D01*
X015536Y019427D01*
X015532Y019410D01*
X015530Y019393D01*
X015455Y019393D02*
X015453Y019410D01*
X015449Y019427D01*
X015442Y019443D01*
X015432Y019457D01*
X015419Y019470D01*
X015405Y019480D01*
X015389Y019487D01*
X015372Y019491D01*
X015355Y019493D01*
X014755Y019493D01*
X014738Y019491D01*
X014721Y019487D01*
X014705Y019480D01*
X014691Y019470D01*
X014678Y019457D01*
X014668Y019443D01*
X014661Y019427D01*
X014657Y019410D01*
X014655Y019393D01*
X014655Y019243D01*
X014705Y019193D01*
X014705Y017793D01*
X014655Y017743D01*
X015078Y015413D02*
X015078Y015023D01*
X017655Y017197D02*
X017655Y017355D01*
X018205Y017418D02*
X018205Y019067D01*
X017655Y019130D02*
X017655Y019288D01*
X017655Y018355D02*
X017655Y018130D01*
X018205Y017418D02*
X018154Y017381D01*
X018101Y017346D01*
X018045Y017314D01*
X017988Y017286D01*
X017929Y017262D01*
X017869Y017241D01*
X017808Y017224D01*
X017746Y017210D01*
X017683Y017201D01*
X017620Y017195D01*
X017556Y017193D01*
X017492Y017195D01*
X017429Y017201D01*
X017366Y017210D01*
X017304Y017223D01*
X017243Y017241D01*
X017183Y017261D01*
X017124Y017286D01*
X017067Y017314D01*
X017011Y017345D01*
X016958Y017379D01*
X016907Y017417D01*
X016858Y017458D01*
X016812Y017502D01*
X016768Y017548D01*
X016727Y017597D01*
X016690Y017648D01*
X016655Y017702D01*
X016624Y017757D01*
X016596Y017814D01*
X016572Y017873D01*
X016552Y017933D01*
X016552Y018553D02*
X016572Y018613D01*
X016596Y018672D01*
X016624Y018729D01*
X016655Y018784D01*
X016690Y018838D01*
X016727Y018889D01*
X016768Y018938D01*
X016812Y018984D01*
X016858Y019028D01*
X016907Y019069D01*
X016958Y019107D01*
X017011Y019141D01*
X017067Y019173D01*
X017124Y019200D01*
X017183Y019225D01*
X017243Y019245D01*
X017304Y019263D01*
X017366Y019276D01*
X017429Y019285D01*
X017492Y019291D01*
X017556Y019293D01*
X017620Y019291D01*
X017683Y019285D01*
X017746Y019276D01*
X017808Y019262D01*
X017869Y019245D01*
X017929Y019224D01*
X017988Y019200D01*
X018045Y019172D01*
X018101Y019140D01*
X018154Y019105D01*
X018205Y019068D01*
X019480Y019475D02*
X019480Y020760D01*
X019480Y019476D02*
X019523Y019432D01*
X019568Y019392D01*
X019616Y019354D01*
X019666Y019319D01*
X019718Y019288D01*
X019772Y019260D01*
X019828Y019236D01*
X019885Y019215D01*
X019943Y019198D01*
X020003Y019185D01*
X020063Y019175D01*
X020123Y019170D01*
X020184Y019168D01*
X020245Y019170D01*
X020306Y019176D01*
X020366Y019186D01*
X020425Y019200D01*
X020483Y019218D01*
X020540Y019239D01*
X020596Y019264D01*
X020649Y019292D01*
X020701Y019324D01*
X020751Y019359D01*
X020799Y019397D01*
X020843Y019438D01*
X020886Y019482D01*
X020925Y019528D01*
X020961Y019577D01*
X020994Y019628D01*
X021024Y019682D01*
X021050Y019736D01*
X021050Y020499D02*
X021024Y020553D01*
X020994Y020607D01*
X020961Y020658D01*
X020925Y020707D01*
X020886Y020753D01*
X020843Y020797D01*
X020799Y020838D01*
X020751Y020876D01*
X020701Y020911D01*
X020649Y020943D01*
X020596Y020971D01*
X020540Y020996D01*
X020483Y021017D01*
X020425Y021035D01*
X020366Y021049D01*
X020306Y021059D01*
X020245Y021065D01*
X020184Y021067D01*
X020123Y021065D01*
X020063Y021060D01*
X020003Y021050D01*
X019943Y021037D01*
X019885Y021020D01*
X019828Y020999D01*
X019772Y020975D01*
X019718Y020947D01*
X019666Y020916D01*
X019616Y020881D01*
X019568Y020843D01*
X019523Y020803D01*
X019480Y020759D01*
X018305Y020943D02*
X018305Y021543D01*
X018303Y021560D01*
X018299Y021577D01*
X018292Y021593D01*
X018282Y021607D01*
X018269Y021620D01*
X018255Y021630D01*
X018239Y021637D01*
X018222Y021641D01*
X018205Y021643D01*
X018055Y021643D01*
X018005Y021593D01*
X016605Y021593D01*
X016555Y021643D01*
X016405Y021643D01*
X016388Y021641D01*
X016371Y021637D01*
X016355Y021630D01*
X016341Y021620D01*
X016328Y021607D01*
X016318Y021593D01*
X016311Y021577D01*
X016307Y021560D01*
X016305Y021543D01*
X016305Y020943D01*
X016307Y020926D01*
X016311Y020909D01*
X016318Y020893D01*
X016328Y020879D01*
X016341Y020866D01*
X016355Y020856D01*
X016371Y020849D01*
X016388Y020845D01*
X016405Y020843D01*
X016555Y020843D01*
X016605Y020893D01*
X018005Y020893D01*
X018055Y020843D01*
X018205Y020843D01*
X018222Y020845D01*
X018239Y020849D01*
X018255Y020856D01*
X018269Y020866D01*
X018282Y020879D01*
X018292Y020893D01*
X018299Y020909D01*
X018303Y020926D01*
X018305Y020943D01*
X018305Y021843D02*
X018255Y021893D01*
X016855Y021893D01*
X016805Y021843D01*
X016655Y021843D01*
X016638Y021845D01*
X016621Y021849D01*
X016605Y021856D01*
X016591Y021866D01*
X016578Y021879D01*
X016568Y021893D01*
X016561Y021909D01*
X016557Y021926D01*
X016555Y021943D01*
X016555Y022543D01*
X016557Y022560D01*
X016561Y022577D01*
X016568Y022593D01*
X016578Y022607D01*
X016591Y022620D01*
X016605Y022630D01*
X016621Y022637D01*
X016638Y022641D01*
X016655Y022643D01*
X016805Y022643D01*
X016855Y022593D01*
X018255Y022593D01*
X018305Y022643D01*
X018455Y022643D01*
X018472Y022641D01*
X018489Y022637D01*
X018505Y022630D01*
X018519Y022620D01*
X018532Y022607D01*
X018542Y022593D01*
X018549Y022577D01*
X018553Y022560D01*
X018555Y022543D01*
X018555Y021943D01*
X018553Y021926D01*
X018549Y021909D01*
X018542Y021893D01*
X018532Y021879D01*
X018519Y021866D01*
X018505Y021856D01*
X018489Y021849D01*
X018472Y021845D01*
X018455Y021843D01*
X018305Y021843D01*
X019855Y022243D02*
X019855Y023243D01*
X019857Y023260D01*
X019861Y023277D01*
X019868Y023293D01*
X019878Y023307D01*
X019891Y023320D01*
X019905Y023330D01*
X019921Y023337D01*
X019938Y023341D01*
X019955Y023343D01*
X021655Y023343D01*
X021672Y023341D01*
X021689Y023337D01*
X021705Y023330D01*
X021719Y023320D01*
X021732Y023307D01*
X021742Y023293D01*
X021749Y023277D01*
X021753Y023260D01*
X021755Y023243D01*
X021755Y022243D01*
X021753Y022226D01*
X021749Y022209D01*
X021742Y022193D01*
X021732Y022179D01*
X021719Y022166D01*
X021705Y022156D01*
X021689Y022149D01*
X021672Y022145D01*
X021655Y022143D01*
X019955Y022143D01*
X019938Y022145D01*
X019921Y022149D01*
X019905Y022156D01*
X019891Y022166D01*
X019878Y022179D01*
X019868Y022193D01*
X019861Y022209D01*
X019857Y022226D01*
X019855Y022243D01*
X020655Y022743D02*
X020705Y022743D01*
X020905Y022743D02*
X020955Y022743D01*
X020805Y024343D02*
X020655Y024343D01*
X020638Y024345D01*
X020621Y024349D01*
X020605Y024356D01*
X020591Y024366D01*
X020578Y024379D01*
X020568Y024393D01*
X020561Y024409D01*
X020557Y024426D01*
X020555Y024443D01*
X020555Y025043D01*
X020557Y025060D01*
X020561Y025077D01*
X020568Y025093D01*
X020578Y025107D01*
X020591Y025120D01*
X020605Y025130D01*
X020621Y025137D01*
X020638Y025141D01*
X020655Y025143D01*
X020805Y025143D01*
X020855Y025093D01*
X022255Y025093D01*
X022305Y025143D01*
X022455Y025143D01*
X022472Y025141D01*
X022489Y025137D01*
X022505Y025130D01*
X022519Y025120D01*
X022532Y025107D01*
X022542Y025093D01*
X022549Y025077D01*
X022553Y025060D01*
X022555Y025043D01*
X022555Y024443D01*
X022553Y024426D01*
X022549Y024409D01*
X022542Y024393D01*
X022532Y024379D01*
X022519Y024366D01*
X022505Y024356D01*
X022489Y024349D01*
X022472Y024345D01*
X022455Y024343D01*
X022305Y024343D01*
X022255Y024393D01*
X020855Y024393D01*
X020805Y024343D01*
X019243Y024555D02*
X019243Y024055D01*
X018993Y023805D01*
X018493Y023805D01*
X018243Y024055D01*
X017993Y023805D01*
X017493Y023805D01*
X017243Y024055D01*
X016993Y023805D01*
X016493Y023805D01*
X016243Y024055D01*
X016243Y024555D01*
X016493Y024805D01*
X016993Y024805D01*
X017243Y024555D01*
X017493Y024805D01*
X017993Y024805D01*
X018243Y024555D01*
X018493Y024805D01*
X018993Y024805D01*
X019243Y024555D01*
X019180Y025155D02*
X019330Y025155D01*
X019347Y025157D01*
X019364Y025161D01*
X019380Y025168D01*
X019394Y025178D01*
X019407Y025191D01*
X019417Y025205D01*
X019424Y025221D01*
X019428Y025238D01*
X019430Y025255D01*
X019430Y025855D01*
X019428Y025872D01*
X019424Y025889D01*
X019417Y025905D01*
X019407Y025919D01*
X019394Y025932D01*
X019380Y025942D01*
X019364Y025949D01*
X019347Y025953D01*
X019330Y025955D01*
X019180Y025955D01*
X019130Y025905D01*
X017730Y025905D01*
X017680Y025955D01*
X017530Y025955D01*
X017513Y025953D01*
X017496Y025949D01*
X017480Y025942D01*
X017466Y025932D01*
X017453Y025919D01*
X017443Y025905D01*
X017436Y025889D01*
X017432Y025872D01*
X017430Y025855D01*
X017430Y025255D01*
X017432Y025238D01*
X017436Y025221D01*
X017443Y025205D01*
X017453Y025191D01*
X017466Y025178D01*
X017480Y025168D01*
X017496Y025161D01*
X017513Y025157D01*
X017530Y025155D01*
X017680Y025155D01*
X017730Y025205D01*
X019130Y025205D01*
X019180Y025155D01*
X018243Y024555D02*
X018243Y024055D01*
X017243Y024055D02*
X017243Y024555D01*
X016580Y026155D02*
X016430Y026155D01*
X016380Y026205D01*
X014980Y026205D01*
X014930Y026155D01*
X014780Y026155D01*
X014763Y026157D01*
X014746Y026161D01*
X014730Y026168D01*
X014716Y026178D01*
X014703Y026191D01*
X014693Y026205D01*
X014686Y026221D01*
X014682Y026238D01*
X014680Y026255D01*
X014680Y026855D01*
X014682Y026872D01*
X014686Y026889D01*
X014693Y026905D01*
X014703Y026919D01*
X014716Y026932D01*
X014730Y026942D01*
X014746Y026949D01*
X014763Y026953D01*
X014780Y026955D01*
X014930Y026955D01*
X014980Y026905D01*
X016380Y026905D01*
X016430Y026955D01*
X016580Y026955D01*
X016597Y026953D01*
X016614Y026949D01*
X016630Y026942D01*
X016644Y026932D01*
X016657Y026919D01*
X016667Y026905D01*
X016674Y026889D01*
X016678Y026872D01*
X016680Y026855D01*
X016680Y026255D01*
X016678Y026238D01*
X016674Y026221D01*
X016667Y026205D01*
X016657Y026191D01*
X016644Y026178D01*
X016630Y026168D01*
X016614Y026161D01*
X016597Y026157D01*
X016580Y026155D01*
X015230Y024843D02*
X000630Y024843D01*
X000630Y022643D01*
X015230Y022643D01*
X015230Y023493D01*
X015200Y023495D01*
X015170Y023500D01*
X015141Y023509D01*
X015114Y023522D01*
X015088Y023537D01*
X015064Y023556D01*
X015043Y023577D01*
X015024Y023601D01*
X015009Y023627D01*
X014996Y023654D01*
X014987Y023683D01*
X014982Y023713D01*
X014980Y023743D01*
X014982Y023773D01*
X014987Y023803D01*
X014996Y023832D01*
X015009Y023859D01*
X015024Y023885D01*
X015043Y023909D01*
X015064Y023930D01*
X015088Y023949D01*
X015114Y023964D01*
X015141Y023977D01*
X015170Y023986D01*
X015200Y023991D01*
X015230Y023993D01*
X015230Y024843D01*
X011555Y028443D02*
X011555Y029043D01*
X011553Y029060D01*
X011549Y029077D01*
X011542Y029093D01*
X011532Y029107D01*
X011519Y029120D01*
X011505Y029130D01*
X011489Y029137D01*
X011472Y029141D01*
X011455Y029143D01*
X011305Y029143D01*
X011255Y029093D01*
X009855Y029093D01*
X009805Y029143D01*
X009655Y029143D01*
X009638Y029141D01*
X009621Y029137D01*
X009605Y029130D01*
X009591Y029120D01*
X009578Y029107D01*
X009568Y029093D01*
X009561Y029077D01*
X009557Y029060D01*
X009555Y029043D01*
X009555Y028443D01*
X009557Y028426D01*
X009561Y028409D01*
X009568Y028393D01*
X009578Y028379D01*
X009591Y028366D01*
X009605Y028356D01*
X009621Y028349D01*
X009638Y028345D01*
X009655Y028343D01*
X009805Y028343D01*
X009855Y028393D01*
X011255Y028393D01*
X011305Y028343D01*
X011455Y028343D01*
X011472Y028345D01*
X011489Y028349D01*
X011505Y028356D01*
X011519Y028366D01*
X011532Y028379D01*
X011542Y028393D01*
X011549Y028409D01*
X011553Y028426D01*
X011555Y028443D01*
X008305Y026868D02*
X008305Y026368D01*
X008055Y026118D01*
X007555Y026118D01*
X007305Y026368D01*
X007055Y026118D01*
X006555Y026118D01*
X006305Y026368D01*
X006055Y026118D01*
X005555Y026118D01*
X005305Y026368D01*
X005305Y026868D01*
X005555Y027118D01*
X006055Y027118D01*
X006305Y026868D01*
X006555Y027118D01*
X007055Y027118D01*
X007305Y026868D01*
X007555Y027118D01*
X008055Y027118D01*
X008305Y026868D01*
X007305Y026868D02*
X007305Y026368D01*
X006305Y026368D02*
X006305Y026868D01*
X005242Y027680D02*
X005242Y029180D01*
X004992Y029430D01*
X004492Y029430D01*
X004242Y029180D01*
X004242Y027680D01*
X004492Y027430D01*
X004992Y027430D01*
X005242Y027680D01*
X005855Y028305D02*
X005855Y029305D01*
X005857Y029322D01*
X005861Y029339D01*
X005868Y029355D01*
X005878Y029369D01*
X005891Y029382D01*
X005905Y029392D01*
X005921Y029399D01*
X005938Y029403D01*
X005955Y029405D01*
X007655Y029405D01*
X007672Y029403D01*
X007689Y029399D01*
X007705Y029392D01*
X007719Y029382D01*
X007732Y029369D01*
X007742Y029355D01*
X007749Y029339D01*
X007753Y029322D01*
X007755Y029305D01*
X007755Y028305D01*
X007753Y028288D01*
X007749Y028271D01*
X007742Y028255D01*
X007732Y028241D01*
X007719Y028228D01*
X007705Y028218D01*
X007689Y028211D01*
X007672Y028207D01*
X007655Y028205D01*
X005955Y028205D01*
X005938Y028207D01*
X005921Y028211D01*
X005905Y028218D01*
X005891Y028228D01*
X005878Y028241D01*
X005868Y028255D01*
X005861Y028271D01*
X005857Y028288D01*
X005855Y028305D01*
X006655Y028805D02*
X006705Y028805D01*
X006905Y028805D02*
X006955Y028805D01*
X004242Y029180D02*
X003992Y029430D01*
X003492Y029430D01*
X003242Y029180D01*
X003242Y027680D01*
X003492Y027430D01*
X003992Y027430D01*
X004242Y027680D01*
X003242Y027680D02*
X002992Y027430D01*
X002492Y027430D01*
X002242Y027680D01*
X002242Y029180D01*
X002492Y029430D01*
X002992Y029430D01*
X003242Y029180D01*
X019480Y018643D02*
X021130Y018643D01*
X021192Y018093D02*
X021350Y018093D01*
X021130Y018643D02*
X021167Y018592D01*
X021202Y018539D01*
X021234Y018483D01*
X021262Y018426D01*
X021286Y018367D01*
X021307Y018307D01*
X021324Y018246D01*
X021338Y018184D01*
X021347Y018121D01*
X021353Y018058D01*
X021355Y017994D01*
X021353Y017930D01*
X021347Y017867D01*
X021338Y017804D01*
X021325Y017742D01*
X021307Y017681D01*
X021287Y017621D01*
X021262Y017562D01*
X021234Y017505D01*
X021203Y017449D01*
X021169Y017396D01*
X021131Y017345D01*
X021090Y017296D01*
X021046Y017250D01*
X021000Y017206D01*
X020951Y017165D01*
X020900Y017128D01*
X020846Y017093D01*
X020791Y017062D01*
X020734Y017034D01*
X020675Y017010D01*
X020615Y016990D01*
X019995Y016990D02*
X019935Y017010D01*
X019876Y017034D01*
X019819Y017062D01*
X019764Y017093D01*
X019710Y017128D01*
X019659Y017165D01*
X019610Y017206D01*
X019564Y017250D01*
X019520Y017296D01*
X019479Y017345D01*
X019441Y017396D01*
X019407Y017449D01*
X019375Y017505D01*
X019348Y017562D01*
X019323Y017621D01*
X019303Y017681D01*
X019285Y017742D01*
X019272Y017804D01*
X019263Y017867D01*
X019257Y017930D01*
X019255Y017994D01*
X019257Y018058D01*
X019263Y018121D01*
X019272Y018184D01*
X019286Y018246D01*
X019303Y018307D01*
X019324Y018367D01*
X019348Y018426D01*
X019376Y018483D01*
X019408Y018539D01*
X019443Y018592D01*
X019480Y018643D01*
X019418Y018093D02*
X019260Y018093D01*
X021930Y016993D02*
X021930Y016493D01*
X022180Y016243D01*
X022680Y016243D01*
X022930Y016493D01*
X023180Y016243D01*
X023680Y016243D01*
X023930Y016493D01*
X023930Y016993D01*
X023680Y017243D01*
X023180Y017243D01*
X022930Y016993D01*
X022930Y016493D01*
X022930Y016993D02*
X022680Y017243D01*
X022180Y017243D01*
X021930Y016993D01*
X024930Y016993D02*
X024930Y016493D01*
X025180Y016243D01*
X025680Y016243D01*
X025930Y016493D01*
X026180Y016243D01*
X026680Y016243D01*
X026930Y016493D01*
X026930Y016993D01*
X026680Y017243D01*
X026180Y017243D01*
X025930Y016993D01*
X025930Y016493D01*
X025930Y016993D02*
X025680Y017243D01*
X025180Y017243D01*
X024930Y016993D01*
X025361Y017379D02*
X025361Y017806D01*
X025147Y017593D02*
X025575Y017593D01*
X027805Y016993D02*
X027805Y016493D01*
X028055Y016243D01*
X028555Y016243D01*
X028805Y016493D01*
X029055Y016243D01*
X029555Y016243D01*
X029805Y016493D01*
X029805Y016993D01*
X029555Y017243D01*
X029055Y017243D01*
X028805Y016993D01*
X028805Y016493D01*
X028805Y016993D02*
X028555Y017243D01*
X028055Y017243D01*
X027805Y016993D01*
X028085Y017468D02*
X028512Y017468D01*
X028298Y017681D02*
X028298Y017254D01*
X028255Y018993D02*
X028855Y018993D01*
X028872Y018995D01*
X028889Y018999D01*
X028905Y019006D01*
X028919Y019016D01*
X028932Y019029D01*
X028942Y019043D01*
X028949Y019059D01*
X028953Y019076D01*
X028955Y019093D01*
X028955Y019243D01*
X028905Y019293D01*
X028905Y020693D01*
X028955Y020743D01*
X028955Y020893D01*
X028953Y020910D01*
X028949Y020927D01*
X028942Y020943D01*
X028932Y020957D01*
X028919Y020970D01*
X028905Y020980D01*
X028889Y020987D01*
X028872Y020991D01*
X028855Y020993D01*
X028255Y020993D01*
X028238Y020991D01*
X028221Y020987D01*
X028205Y020980D01*
X028191Y020970D01*
X028178Y020957D01*
X028168Y020943D01*
X028161Y020927D01*
X028157Y020910D01*
X028155Y020893D01*
X028155Y020743D01*
X028205Y020693D01*
X028205Y019293D01*
X028155Y019243D01*
X028155Y019093D01*
X028157Y019076D01*
X028161Y019059D01*
X028168Y019043D01*
X028178Y019029D01*
X028191Y019016D01*
X028205Y019006D01*
X028221Y018999D01*
X028238Y018995D01*
X028255Y018993D01*
X029992Y019743D02*
X030242Y019493D01*
X030742Y019493D01*
X030992Y019743D01*
X030992Y020243D01*
X030742Y020493D01*
X030992Y020743D01*
X030992Y021243D01*
X030742Y021493D01*
X030242Y021493D01*
X029992Y021243D01*
X029992Y020743D01*
X030242Y020493D01*
X030742Y020493D01*
X030242Y020493D02*
X029992Y020243D01*
X029992Y019743D01*
X027455Y022680D02*
X027457Y022727D01*
X027463Y022775D01*
X027472Y022821D01*
X027485Y022867D01*
X027501Y022911D01*
X027522Y022955D01*
X027545Y022996D01*
X027571Y023035D01*
X027601Y023072D01*
X027634Y023107D01*
X027669Y023139D01*
X027706Y023168D01*
X028655Y022680D02*
X028653Y022635D01*
X028648Y022589D01*
X028640Y022545D01*
X028628Y022501D01*
X028612Y022458D01*
X028594Y022416D01*
X028572Y022376D01*
X028548Y022338D01*
X028521Y022302D01*
X028491Y022267D01*
X028458Y022236D01*
X028423Y022206D01*
X028655Y022680D02*
X028653Y022725D01*
X028648Y022771D01*
X028640Y022815D01*
X028628Y022859D01*
X028612Y022902D01*
X028594Y022944D01*
X028572Y022984D01*
X028548Y023022D01*
X028521Y023058D01*
X028491Y023093D01*
X028458Y023124D01*
X028423Y023154D01*
X027455Y022680D02*
X027457Y022634D01*
X027462Y022588D01*
X027471Y022542D01*
X027483Y022497D01*
X027499Y022454D01*
X027518Y022412D01*
X027541Y022371D01*
X027566Y022332D01*
X027594Y022296D01*
X027625Y022261D01*
X027659Y022229D01*
X027695Y022200D01*
X029105Y023118D02*
X029105Y024118D01*
X029107Y024135D01*
X029111Y024152D01*
X029118Y024168D01*
X029128Y024182D01*
X029141Y024195D01*
X029155Y024205D01*
X029171Y024212D01*
X029188Y024216D01*
X029205Y024218D01*
X030905Y024218D01*
X030922Y024216D01*
X030939Y024212D01*
X030955Y024205D01*
X030969Y024195D01*
X030982Y024182D01*
X030992Y024168D01*
X030999Y024152D01*
X031003Y024135D01*
X031005Y024118D01*
X031005Y023118D01*
X031003Y023101D01*
X030999Y023084D01*
X030992Y023068D01*
X030982Y023054D01*
X030969Y023041D01*
X030955Y023031D01*
X030939Y023024D01*
X030922Y023020D01*
X030905Y023018D01*
X029205Y023018D01*
X029188Y023020D01*
X029171Y023024D01*
X029155Y023031D01*
X029141Y023041D01*
X029128Y023054D01*
X029118Y023068D01*
X029111Y023084D01*
X029107Y023101D01*
X029105Y023118D01*
X029905Y023618D02*
X029955Y023618D01*
X030155Y023618D02*
X030205Y023618D01*
X030030Y024418D02*
X026330Y024418D01*
X026307Y024420D01*
X026284Y024425D01*
X026262Y024434D01*
X026242Y024447D01*
X026224Y024462D01*
X026209Y024480D01*
X026196Y024500D01*
X026187Y024522D01*
X026182Y024545D01*
X026180Y024568D01*
X026180Y025768D01*
X025255Y025635D02*
X025255Y024350D01*
X025405Y023668D02*
X025405Y023468D01*
X025305Y023568D02*
X025505Y023568D01*
X024805Y022868D02*
X024807Y022931D01*
X024813Y022993D01*
X024823Y023055D01*
X024836Y023117D01*
X024854Y023177D01*
X024875Y023236D01*
X024900Y023294D01*
X024929Y023350D01*
X024961Y023404D01*
X024996Y023456D01*
X025034Y023505D01*
X025076Y023553D01*
X025120Y023597D01*
X025168Y023639D01*
X025217Y023677D01*
X025269Y023712D01*
X025323Y023744D01*
X025379Y023773D01*
X025437Y023798D01*
X025496Y023819D01*
X025556Y023837D01*
X025618Y023850D01*
X025680Y023860D01*
X025742Y023866D01*
X025805Y023868D01*
X025868Y023866D01*
X025930Y023860D01*
X025992Y023850D01*
X026054Y023837D01*
X026114Y023819D01*
X026173Y023798D01*
X026231Y023773D01*
X026287Y023744D01*
X026341Y023712D01*
X026393Y023677D01*
X026442Y023639D01*
X026490Y023597D01*
X026534Y023553D01*
X026576Y023505D01*
X026614Y023456D01*
X026649Y023404D01*
X026681Y023350D01*
X026710Y023294D01*
X026735Y023236D01*
X026756Y023177D01*
X026774Y023117D01*
X026787Y023055D01*
X026797Y022993D01*
X026803Y022931D01*
X026805Y022868D01*
X026803Y022805D01*
X026797Y022743D01*
X026787Y022681D01*
X026774Y022619D01*
X026756Y022559D01*
X026735Y022500D01*
X026710Y022442D01*
X026681Y022386D01*
X026649Y022332D01*
X026614Y022280D01*
X026576Y022231D01*
X026534Y022183D01*
X026490Y022139D01*
X026442Y022097D01*
X026393Y022059D01*
X026341Y022024D01*
X026287Y021992D01*
X026231Y021963D01*
X026173Y021938D01*
X026114Y021917D01*
X026054Y021899D01*
X025992Y021886D01*
X025930Y021876D01*
X025868Y021870D01*
X025805Y021868D01*
X025742Y021870D01*
X025680Y021876D01*
X025618Y021886D01*
X025556Y021899D01*
X025496Y021917D01*
X025437Y021938D01*
X025379Y021963D01*
X025323Y021992D01*
X025269Y022024D01*
X025217Y022059D01*
X025168Y022097D01*
X025120Y022139D01*
X025076Y022183D01*
X025034Y022231D01*
X024996Y022280D01*
X024961Y022332D01*
X024929Y022386D01*
X024900Y022442D01*
X024875Y022500D01*
X024854Y022559D01*
X024836Y022619D01*
X024823Y022681D01*
X024813Y022743D01*
X024807Y022805D01*
X024805Y022868D01*
X023780Y022143D02*
X023780Y023843D01*
X023778Y023860D01*
X023774Y023877D01*
X023767Y023893D01*
X023757Y023907D01*
X023744Y023920D01*
X023730Y023930D01*
X023714Y023937D01*
X023697Y023941D01*
X023680Y023943D01*
X022680Y023943D01*
X022663Y023941D01*
X022646Y023937D01*
X022630Y023930D01*
X022616Y023920D01*
X022603Y023907D01*
X022593Y023893D01*
X022586Y023877D01*
X022582Y023860D01*
X022580Y023843D01*
X022580Y022143D01*
X022582Y022126D01*
X022586Y022109D01*
X022593Y022093D01*
X022603Y022079D01*
X022616Y022066D01*
X022630Y022056D01*
X022646Y022049D01*
X022663Y022045D01*
X022680Y022043D01*
X023680Y022043D01*
X023697Y022045D01*
X023714Y022049D01*
X023730Y022056D01*
X023744Y022066D01*
X023757Y022079D01*
X023767Y022093D01*
X023774Y022109D01*
X023778Y022126D01*
X023780Y022143D01*
X023735Y021730D02*
X023735Y021005D01*
X025375Y021005D01*
X025375Y021730D01*
X023735Y021730D01*
X024305Y021368D02*
X024555Y021368D01*
X024555Y021118D01*
X024555Y021368D02*
X024555Y021618D01*
X024555Y021368D02*
X024955Y021618D01*
X024955Y021118D01*
X024555Y021368D01*
X025155Y021368D01*
X024268Y019625D02*
X024298Y019590D01*
X024329Y019557D01*
X024364Y019527D01*
X024400Y019500D01*
X024438Y019476D01*
X024478Y019454D01*
X024520Y019436D01*
X024563Y019420D01*
X024607Y019408D01*
X024651Y019400D01*
X024697Y019395D01*
X024742Y019393D01*
X024262Y020353D02*
X024291Y020389D01*
X024323Y020423D01*
X024358Y020454D01*
X024394Y020482D01*
X024433Y020507D01*
X024474Y020530D01*
X024516Y020549D01*
X024559Y020565D01*
X024604Y020577D01*
X024650Y020586D01*
X024696Y020591D01*
X024742Y020593D01*
X025216Y019625D02*
X025186Y019590D01*
X025155Y019557D01*
X025120Y019527D01*
X025084Y019500D01*
X025046Y019476D01*
X025006Y019454D01*
X024964Y019436D01*
X024921Y019420D01*
X024877Y019408D01*
X024833Y019400D01*
X024787Y019395D01*
X024742Y019393D01*
X025230Y020342D02*
X025201Y020379D01*
X025169Y020414D01*
X025134Y020447D01*
X025097Y020477D01*
X025058Y020503D01*
X025017Y020526D01*
X024973Y020547D01*
X024929Y020563D01*
X024883Y020576D01*
X024837Y020585D01*
X024789Y020591D01*
X024742Y020593D01*
X023180Y022843D02*
X023180Y022893D01*
X023180Y023093D02*
X023180Y023143D01*
X023685Y025374D02*
X023711Y025428D01*
X023741Y025482D01*
X023774Y025533D01*
X023810Y025582D01*
X023849Y025628D01*
X023892Y025672D01*
X023936Y025713D01*
X023984Y025751D01*
X024034Y025786D01*
X024086Y025818D01*
X024139Y025846D01*
X024195Y025871D01*
X024252Y025892D01*
X024310Y025910D01*
X024369Y025924D01*
X024429Y025934D01*
X024490Y025940D01*
X024551Y025942D01*
X024612Y025940D01*
X024672Y025935D01*
X024732Y025925D01*
X024792Y025912D01*
X024850Y025895D01*
X024907Y025874D01*
X024963Y025850D01*
X025017Y025822D01*
X025069Y025791D01*
X025119Y025756D01*
X025167Y025718D01*
X025212Y025678D01*
X025255Y025634D01*
X025255Y024351D02*
X025212Y024307D01*
X025167Y024267D01*
X025119Y024229D01*
X025069Y024194D01*
X025017Y024163D01*
X024963Y024135D01*
X024907Y024111D01*
X024850Y024090D01*
X024792Y024073D01*
X024732Y024060D01*
X024672Y024050D01*
X024612Y024045D01*
X024551Y024043D01*
X024490Y024045D01*
X024429Y024051D01*
X024369Y024061D01*
X024310Y024075D01*
X024252Y024093D01*
X024195Y024114D01*
X024139Y024139D01*
X024086Y024167D01*
X024034Y024199D01*
X023984Y024234D01*
X023936Y024272D01*
X023892Y024313D01*
X023849Y024357D01*
X023810Y024403D01*
X023774Y024452D01*
X023741Y024503D01*
X023711Y024557D01*
X023685Y024611D01*
X026180Y026968D02*
X026180Y028168D01*
X026182Y028191D01*
X026187Y028214D01*
X026196Y028236D01*
X026209Y028256D01*
X026224Y028274D01*
X026242Y028289D01*
X026262Y028302D01*
X026284Y028311D01*
X026307Y028316D01*
X026330Y028318D01*
X030030Y028318D01*
X030053Y028316D01*
X030076Y028311D01*
X030098Y028302D01*
X030118Y028289D01*
X030136Y028274D01*
X030151Y028256D01*
X030164Y028236D01*
X030173Y028214D01*
X030178Y028191D01*
X030180Y028168D01*
X030180Y027918D01*
X030180Y026818D02*
X030180Y025918D01*
X030180Y024818D02*
X030180Y024568D01*
X030178Y024545D01*
X030173Y024522D01*
X030164Y024500D01*
X030151Y024480D01*
X030136Y024462D01*
X030118Y024447D01*
X030098Y024434D01*
X030076Y024425D01*
X030053Y024420D01*
X030030Y024418D01*
X028980Y025568D02*
X028780Y025768D01*
X028830Y026218D02*
X028330Y026218D01*
X028330Y025968D01*
X028230Y025968D01*
X028030Y026218D01*
X027530Y026218D01*
X027530Y026518D01*
X028030Y026518D01*
X028230Y026768D01*
X028330Y026768D01*
X028330Y026518D01*
X028830Y026518D01*
X028830Y026218D01*
X027030Y026368D02*
X027032Y026435D01*
X027038Y026503D01*
X027048Y026570D01*
X027062Y026636D01*
X027079Y026701D01*
X027101Y026765D01*
X027126Y026828D01*
X027155Y026889D01*
X027187Y026948D01*
X027223Y027005D01*
X027262Y027060D01*
X027304Y027113D01*
X027349Y027163D01*
X027397Y027210D01*
X027448Y027255D01*
X027501Y027296D01*
X027557Y027335D01*
X027615Y027370D01*
X027675Y027401D01*
X027736Y027429D01*
X027799Y027453D01*
X027863Y027474D01*
X027929Y027490D01*
X027995Y027503D01*
X028062Y027512D01*
X028129Y027517D01*
X028197Y027518D01*
X028264Y027515D01*
X028331Y027508D01*
X028398Y027497D01*
X028464Y027482D01*
X028529Y027464D01*
X028593Y027441D01*
X028655Y027415D01*
X028716Y027386D01*
X028774Y027352D01*
X028831Y027316D01*
X028886Y027276D01*
X028938Y027233D01*
X028987Y027187D01*
X029034Y027138D01*
X029078Y027087D01*
X029118Y027033D01*
X029156Y026977D01*
X029190Y026918D01*
X029220Y026858D01*
X029247Y026796D01*
X029271Y026733D01*
X029290Y026668D01*
X029306Y026603D01*
X029318Y026536D01*
X029326Y026469D01*
X029330Y026402D01*
X029330Y026334D01*
X029326Y026267D01*
X029318Y026200D01*
X029306Y026133D01*
X029290Y026068D01*
X029271Y026003D01*
X029247Y025940D01*
X029220Y025878D01*
X029190Y025818D01*
X029156Y025759D01*
X029118Y025703D01*
X029078Y025649D01*
X029034Y025598D01*
X028987Y025549D01*
X028938Y025503D01*
X028886Y025460D01*
X028831Y025420D01*
X028774Y025384D01*
X028716Y025350D01*
X028655Y025321D01*
X028593Y025295D01*
X028529Y025272D01*
X028464Y025254D01*
X028398Y025239D01*
X028331Y025228D01*
X028264Y025221D01*
X028197Y025218D01*
X028129Y025219D01*
X028062Y025224D01*
X027995Y025233D01*
X027929Y025246D01*
X027863Y025262D01*
X027799Y025283D01*
X027736Y025307D01*
X027675Y025335D01*
X027615Y025366D01*
X027557Y025401D01*
X027501Y025440D01*
X027448Y025481D01*
X027397Y025526D01*
X027349Y025573D01*
X027304Y025623D01*
X027262Y025676D01*
X027223Y025731D01*
X027187Y025788D01*
X027155Y025847D01*
X027126Y025908D01*
X027101Y025971D01*
X027079Y026035D01*
X027062Y026100D01*
X027048Y026166D01*
X027038Y026233D01*
X027032Y026301D01*
X027030Y026368D01*
X027230Y026368D01*
X027480Y027068D02*
X027380Y027168D01*
X028180Y027318D02*
X028180Y027518D01*
X028780Y026968D02*
X028980Y027168D01*
X027380Y026368D02*
X027382Y026424D01*
X027388Y026481D01*
X027398Y026536D01*
X027412Y026591D01*
X027429Y026645D01*
X027451Y026697D01*
X027476Y026747D01*
X027504Y026796D01*
X027536Y026843D01*
X027571Y026887D01*
X027609Y026929D01*
X027650Y026968D01*
X027694Y027003D01*
X027740Y027036D01*
X027788Y027065D01*
X027838Y027091D01*
X027890Y027114D01*
X027944Y027132D01*
X027998Y027147D01*
X028053Y027158D01*
X028109Y027165D01*
X028166Y027168D01*
X028222Y027167D01*
X028279Y027162D01*
X028334Y027153D01*
X028389Y027140D01*
X028443Y027123D01*
X028496Y027103D01*
X028547Y027079D01*
X028596Y027051D01*
X028643Y027020D01*
X028688Y026986D01*
X028731Y026948D01*
X028770Y026908D01*
X028807Y026865D01*
X028840Y026820D01*
X028870Y026772D01*
X028897Y026722D01*
X028920Y026671D01*
X028940Y026618D01*
X028956Y026564D01*
X028968Y026508D01*
X028976Y026453D01*
X028980Y026396D01*
X028980Y026340D01*
X028976Y026283D01*
X028968Y026228D01*
X028956Y026172D01*
X028940Y026118D01*
X028920Y026065D01*
X028897Y026014D01*
X028870Y025964D01*
X028840Y025916D01*
X028807Y025871D01*
X028770Y025828D01*
X028731Y025788D01*
X028688Y025750D01*
X028643Y025716D01*
X028596Y025685D01*
X028547Y025657D01*
X028496Y025633D01*
X028443Y025613D01*
X028389Y025596D01*
X028334Y025583D01*
X028279Y025574D01*
X028222Y025569D01*
X028166Y025568D01*
X028109Y025571D01*
X028053Y025578D01*
X027998Y025589D01*
X027944Y025604D01*
X027890Y025622D01*
X027838Y025645D01*
X027788Y025671D01*
X027740Y025700D01*
X027694Y025733D01*
X027650Y025768D01*
X027609Y025807D01*
X027571Y025849D01*
X027536Y025893D01*
X027504Y025940D01*
X027476Y025989D01*
X027451Y026039D01*
X027429Y026091D01*
X027412Y026145D01*
X027398Y026200D01*
X027388Y026255D01*
X027382Y026312D01*
X027380Y026368D01*
X027480Y025668D02*
X027380Y025568D01*
X028180Y025418D02*
X028180Y025218D01*
X016580Y011330D02*
X016430Y011330D01*
X016380Y011280D01*
X014980Y011280D01*
X014930Y011330D01*
X014780Y011330D01*
X014763Y011328D01*
X014746Y011324D01*
X014730Y011317D01*
X014716Y011307D01*
X014703Y011294D01*
X014693Y011280D01*
X014686Y011264D01*
X014682Y011247D01*
X014680Y011230D01*
X014680Y010630D01*
X014682Y010613D01*
X014686Y010596D01*
X014693Y010580D01*
X014703Y010566D01*
X014716Y010553D01*
X014730Y010543D01*
X014746Y010536D01*
X014763Y010532D01*
X014780Y010530D01*
X014930Y010530D01*
X014980Y010580D01*
X016380Y010580D01*
X016430Y010530D01*
X016580Y010530D01*
X016597Y010532D01*
X016614Y010536D01*
X016630Y010543D01*
X016644Y010553D01*
X016657Y010566D01*
X016667Y010580D01*
X016674Y010596D01*
X016678Y010613D01*
X016680Y010630D01*
X016680Y011230D01*
X016678Y011247D01*
X016674Y011264D01*
X016667Y011280D01*
X016657Y011294D01*
X016644Y011307D01*
X016630Y011317D01*
X016614Y011324D01*
X016597Y011328D01*
X016580Y011330D01*
X009155Y005593D02*
X009155Y003893D01*
X009153Y003876D01*
X009149Y003859D01*
X009142Y003843D01*
X009132Y003829D01*
X009119Y003816D01*
X009105Y003806D01*
X009089Y003799D01*
X009072Y003795D01*
X009055Y003793D01*
X008055Y003793D01*
X008038Y003795D01*
X008021Y003799D01*
X008005Y003806D01*
X007991Y003816D01*
X007978Y003829D01*
X007968Y003843D01*
X007961Y003859D01*
X007957Y003876D01*
X007955Y003893D01*
X007955Y005593D01*
X007957Y005610D01*
X007961Y005627D01*
X007968Y005643D01*
X007978Y005657D01*
X007991Y005670D01*
X008005Y005680D01*
X008021Y005687D01*
X008038Y005691D01*
X008055Y005693D01*
X009055Y005693D01*
X009072Y005691D01*
X009089Y005687D01*
X009105Y005680D01*
X009119Y005670D01*
X009132Y005657D01*
X009142Y005643D01*
X009149Y005627D01*
X009153Y005610D01*
X009155Y005593D01*
X008555Y004893D02*
X008555Y004843D01*
X008555Y004643D02*
X008555Y004593D01*
X007830Y004868D02*
X007830Y005018D01*
X007828Y005035D01*
X007824Y005052D01*
X007817Y005068D01*
X007807Y005082D01*
X007794Y005095D01*
X007780Y005105D01*
X007764Y005112D01*
X007747Y005116D01*
X007730Y005118D01*
X007130Y005118D01*
X007113Y005116D01*
X007096Y005112D01*
X007080Y005105D01*
X007066Y005095D01*
X007053Y005082D01*
X007043Y005068D01*
X007036Y005052D01*
X007032Y005035D01*
X007030Y005018D01*
X007030Y004868D01*
X007080Y004818D01*
X007080Y003418D01*
X007030Y003368D01*
X007030Y003218D01*
X007032Y003201D01*
X007036Y003184D01*
X007043Y003168D01*
X007053Y003154D01*
X007066Y003141D01*
X007080Y003131D01*
X007096Y003124D01*
X007113Y003120D01*
X007130Y003118D01*
X007730Y003118D01*
X007747Y003120D01*
X007764Y003124D01*
X007780Y003131D01*
X007794Y003141D01*
X007807Y003154D01*
X007817Y003168D01*
X007824Y003184D01*
X007828Y003201D01*
X007830Y003218D01*
X007830Y003368D01*
X007780Y003418D01*
X007780Y004818D01*
X007830Y004868D01*
X006830Y004868D02*
X006780Y004818D01*
X006780Y003418D01*
X006830Y003368D01*
X006830Y003218D01*
X006828Y003201D01*
X006824Y003184D01*
X006817Y003168D01*
X006807Y003154D01*
X006794Y003141D01*
X006780Y003131D01*
X006764Y003124D01*
X006747Y003120D01*
X006730Y003118D01*
X006130Y003118D01*
X006113Y003120D01*
X006096Y003124D01*
X006080Y003131D01*
X006066Y003141D01*
X006053Y003154D01*
X006043Y003168D01*
X006036Y003184D01*
X006032Y003201D01*
X006030Y003218D01*
X006030Y003368D01*
X006080Y003418D01*
X006080Y004818D01*
X006030Y004868D01*
X006030Y005018D01*
X006032Y005035D01*
X006036Y005052D01*
X006043Y005068D01*
X006053Y005082D01*
X006066Y005095D01*
X006080Y005105D01*
X006096Y005112D01*
X006113Y005116D01*
X006130Y005118D01*
X006730Y005118D01*
X006747Y005116D01*
X006764Y005112D01*
X006780Y005105D01*
X006794Y005095D01*
X006807Y005082D01*
X006817Y005068D01*
X006824Y005052D01*
X006828Y005035D01*
X006830Y005018D01*
X006830Y004868D01*
X005830Y004868D02*
X005780Y004818D01*
X005780Y003418D01*
X005830Y003368D01*
X005830Y003218D01*
X005828Y003201D01*
X005824Y003184D01*
X005817Y003168D01*
X005807Y003154D01*
X005794Y003141D01*
X005780Y003131D01*
X005764Y003124D01*
X005747Y003120D01*
X005730Y003118D01*
X005130Y003118D01*
X005113Y003120D01*
X005096Y003124D01*
X005080Y003131D01*
X005066Y003141D01*
X005053Y003154D01*
X005043Y003168D01*
X005036Y003184D01*
X005032Y003201D01*
X005030Y003218D01*
X005030Y003368D01*
X005080Y003418D01*
X005080Y004818D01*
X005030Y004868D01*
X005030Y005018D01*
X005032Y005035D01*
X005036Y005052D01*
X005043Y005068D01*
X005053Y005082D01*
X005066Y005095D01*
X005080Y005105D01*
X005096Y005112D01*
X005113Y005116D01*
X005130Y005118D01*
X005730Y005118D01*
X005747Y005116D01*
X005764Y005112D01*
X005780Y005105D01*
X005794Y005095D01*
X005807Y005082D01*
X005817Y005068D01*
X005824Y005052D01*
X005828Y005035D01*
X005830Y005018D01*
X005830Y004868D01*
X004830Y004868D02*
X004780Y004818D01*
X004780Y003418D01*
X004830Y003368D01*
X004830Y003218D01*
X004828Y003201D01*
X004824Y003184D01*
X004817Y003168D01*
X004807Y003154D01*
X004794Y003141D01*
X004780Y003131D01*
X004764Y003124D01*
X004747Y003120D01*
X004730Y003118D01*
X004130Y003118D01*
X004113Y003120D01*
X004096Y003124D01*
X004080Y003131D01*
X004066Y003141D01*
X004053Y003154D01*
X004043Y003168D01*
X004036Y003184D01*
X004032Y003201D01*
X004030Y003218D01*
X004030Y003368D01*
X004080Y003418D01*
X004080Y004818D01*
X004030Y004868D01*
X004030Y005018D01*
X004032Y005035D01*
X004036Y005052D01*
X004043Y005068D01*
X004053Y005082D01*
X004066Y005095D01*
X004080Y005105D01*
X004096Y005112D01*
X004113Y005116D01*
X004130Y005118D01*
X004730Y005118D01*
X004747Y005116D01*
X004764Y005112D01*
X004780Y005105D01*
X004794Y005095D01*
X004807Y005082D01*
X004817Y005068D01*
X004824Y005052D01*
X004828Y005035D01*
X004830Y005018D01*
X004830Y004868D01*
X003830Y004868D02*
X003780Y004818D01*
X003780Y003418D01*
X003830Y003368D01*
X003830Y003218D01*
X003828Y003201D01*
X003824Y003184D01*
X003817Y003168D01*
X003807Y003154D01*
X003794Y003141D01*
X003780Y003131D01*
X003764Y003124D01*
X003747Y003120D01*
X003730Y003118D01*
X003130Y003118D01*
X003113Y003120D01*
X003096Y003124D01*
X003080Y003131D01*
X003066Y003141D01*
X003053Y003154D01*
X003043Y003168D01*
X003036Y003184D01*
X003032Y003201D01*
X003030Y003218D01*
X003030Y003368D01*
X003080Y003418D01*
X003080Y004818D01*
X003030Y004868D01*
X003030Y005018D01*
X003032Y005035D01*
X003036Y005052D01*
X003043Y005068D01*
X003053Y005082D01*
X003066Y005095D01*
X003080Y005105D01*
X003096Y005112D01*
X003113Y005116D01*
X003130Y005118D01*
X003730Y005118D01*
X003747Y005116D01*
X003764Y005112D01*
X003780Y005105D01*
X003794Y005095D01*
X003807Y005082D01*
X003817Y005068D01*
X003824Y005052D01*
X003828Y005035D01*
X003830Y005018D01*
X003830Y004868D01*
X002830Y004868D02*
X002780Y004818D01*
X002780Y003418D01*
X002830Y003368D01*
X002830Y003218D01*
X002828Y003201D01*
X002824Y003184D01*
X002817Y003168D01*
X002807Y003154D01*
X002794Y003141D01*
X002780Y003131D01*
X002764Y003124D01*
X002747Y003120D01*
X002730Y003118D01*
X002130Y003118D01*
X002113Y003120D01*
X002096Y003124D01*
X002080Y003131D01*
X002066Y003141D01*
X002053Y003154D01*
X002043Y003168D01*
X002036Y003184D01*
X002032Y003201D01*
X002030Y003218D01*
X002030Y003368D01*
X002080Y003418D01*
X002080Y004818D01*
X002030Y004868D01*
X002030Y005018D01*
X002032Y005035D01*
X002036Y005052D01*
X002043Y005068D01*
X002053Y005082D01*
X002066Y005095D01*
X002080Y005105D01*
X002096Y005112D01*
X002113Y005116D01*
X002130Y005118D01*
X002730Y005118D01*
X002747Y005116D01*
X002764Y005112D01*
X002780Y005105D01*
X002794Y005095D01*
X002807Y005082D01*
X002817Y005068D01*
X002824Y005052D01*
X002828Y005035D01*
X002830Y005018D01*
X002830Y004868D01*
X003555Y001618D02*
X003305Y001368D01*
X003305Y000868D01*
X003555Y000618D01*
X004055Y000618D01*
X004305Y000868D01*
X004555Y000618D01*
X005055Y000618D01*
X005305Y000868D01*
X005555Y000618D01*
X006055Y000618D01*
X006305Y000868D01*
X006305Y001368D01*
X006055Y001618D01*
X005555Y001618D01*
X005305Y001368D01*
X005305Y000868D01*
X005305Y001368D02*
X005055Y001618D01*
X004555Y001618D01*
X004305Y001368D01*
X004305Y000868D01*
X004305Y001368D02*
X004055Y001618D01*
X003555Y001618D01*
D13*
X000305Y014743D02*
X000305Y015743D01*
X000430Y015618D02*
X031680Y015618D01*
X031680Y014743D01*
X000305Y014743D01*
D14*
X019450Y019948D02*
X019510Y019888D01*
X019630Y019888D01*
X019690Y019948D01*
X019690Y020188D01*
X019630Y020248D01*
X019510Y020248D01*
X019450Y020188D01*
X019450Y019948D01*
X019570Y020008D02*
X019690Y019888D01*
X019818Y019948D02*
X019878Y019888D01*
X019998Y019888D01*
X020058Y019948D01*
X020058Y020068D01*
X019998Y020128D01*
X019938Y020128D01*
X019818Y020068D01*
X019818Y020248D01*
X020058Y020248D01*
X027995Y023673D02*
X028055Y023613D01*
X028175Y023613D01*
X028235Y023673D01*
X028363Y023613D02*
X028604Y023613D01*
X028483Y023613D02*
X028483Y023973D01*
X028363Y023853D01*
X028235Y023913D02*
X028175Y023973D01*
X028055Y023973D01*
X027995Y023913D01*
X027995Y023673D01*
X028732Y023613D02*
X028972Y023613D01*
X028852Y023613D02*
X028852Y023973D01*
X028732Y023853D01*
X028732Y008348D02*
X028732Y008168D01*
X028852Y008228D01*
X028912Y008228D01*
X028972Y008168D01*
X028972Y008048D01*
X028912Y007988D01*
X028792Y007988D01*
X028732Y008048D01*
X028604Y008048D02*
X028544Y007988D01*
X028423Y007988D01*
X028363Y008048D01*
X028363Y008288D01*
X028423Y008348D01*
X028544Y008348D01*
X028604Y008288D01*
X028732Y008348D02*
X028972Y008348D01*
X020058Y004563D02*
X019998Y004623D01*
X019878Y004623D01*
X019818Y004563D01*
X019690Y004563D02*
X019690Y004323D01*
X019630Y004263D01*
X019510Y004263D01*
X019450Y004323D01*
X019450Y004563D01*
X019510Y004623D01*
X019630Y004623D01*
X019690Y004563D01*
X019570Y004383D02*
X019690Y004263D01*
X019818Y004263D02*
X020058Y004503D01*
X020058Y004563D01*
X020058Y004263D02*
X019818Y004263D01*
D15*
X015930Y003943D03*
X015055Y003943D03*
X015055Y001793D03*
X015930Y001793D03*
X007430Y003043D03*
X006430Y003043D03*
X005430Y003043D03*
X004430Y003043D03*
X003430Y003043D03*
X002430Y003043D03*
X002430Y005193D03*
X003430Y005193D03*
X004430Y005193D03*
X005430Y005193D03*
X006430Y005193D03*
X007430Y005193D03*
X015055Y017418D03*
X015930Y017418D03*
X015930Y019568D03*
X015055Y019568D03*
X007430Y018668D03*
X006430Y018668D03*
X005430Y018668D03*
X004430Y018668D03*
X003430Y018668D03*
X002430Y018668D03*
X002430Y020818D03*
X003430Y020818D03*
X004430Y020818D03*
X005430Y020818D03*
X006430Y020818D03*
X007430Y020818D03*
X028555Y021068D03*
X028555Y018918D03*
X028555Y005443D03*
X028555Y003293D03*
D16*
X022630Y009118D03*
X020480Y009118D03*
X019505Y009930D03*
X017355Y009930D03*
X016755Y010930D03*
X014605Y010930D03*
X011630Y013118D03*
X009480Y013118D03*
X016480Y006618D03*
X016230Y005618D03*
X018380Y005618D03*
X018630Y006618D03*
X018380Y021243D03*
X018630Y022243D03*
X016480Y022243D03*
X016230Y021243D03*
X017355Y025555D03*
X016755Y026555D03*
X014605Y026555D03*
X011630Y028743D03*
X009480Y028743D03*
X019505Y025555D03*
X020480Y024743D03*
X022630Y024743D03*
D17*
X022880Y023093D02*
X023180Y023093D01*
X023480Y023093D01*
X023480Y022893D02*
X023180Y022893D01*
X022880Y022893D01*
X020905Y022743D02*
X020905Y023043D01*
X020705Y023043D02*
X020705Y022743D01*
X020705Y022443D01*
X020905Y022443D02*
X020905Y022743D01*
X024047Y019596D02*
X024077Y019548D01*
X024110Y019503D01*
X024146Y019460D01*
X024184Y019419D01*
X024226Y019382D01*
X024270Y019347D01*
X024316Y019316D01*
X024365Y019287D01*
X024415Y019263D01*
X024467Y019242D01*
X024521Y019224D01*
X024575Y019211D01*
X024630Y019201D01*
X024686Y019195D01*
X024742Y019193D01*
X024036Y020369D02*
X024063Y020416D01*
X024093Y020461D01*
X024126Y020504D01*
X024162Y020544D01*
X024201Y020582D01*
X024242Y020617D01*
X024285Y020650D01*
X024330Y020679D01*
X024378Y020705D01*
X024427Y020728D01*
X024477Y020748D01*
X024528Y020764D01*
X024581Y020777D01*
X024634Y020786D01*
X024688Y020791D01*
X024742Y020793D01*
X025353Y019476D02*
X025317Y019437D01*
X025278Y019399D01*
X025238Y019365D01*
X025195Y019333D01*
X025150Y019305D01*
X025103Y019279D01*
X025054Y019256D01*
X025004Y019237D01*
X024953Y019221D01*
X024901Y019209D01*
X024849Y019200D01*
X024795Y019195D01*
X024742Y019193D01*
X025357Y020505D02*
X025321Y020545D01*
X025282Y020583D01*
X025241Y020618D01*
X025198Y020650D01*
X025153Y020680D01*
X025106Y020706D01*
X025057Y020728D01*
X025006Y020748D01*
X024955Y020764D01*
X024903Y020777D01*
X024849Y020786D01*
X024796Y020791D01*
X024742Y020793D01*
X028452Y021985D02*
X028500Y022015D01*
X028545Y022048D01*
X028588Y022084D01*
X028629Y022122D01*
X028666Y022164D01*
X028701Y022208D01*
X028732Y022254D01*
X028761Y022303D01*
X028785Y022353D01*
X028806Y022405D01*
X028824Y022459D01*
X028837Y022513D01*
X028847Y022568D01*
X028853Y022624D01*
X028855Y022680D01*
X027679Y021974D02*
X027632Y022001D01*
X027587Y022031D01*
X027544Y022064D01*
X027504Y022100D01*
X027466Y022139D01*
X027431Y022180D01*
X027398Y022223D01*
X027369Y022268D01*
X027343Y022316D01*
X027320Y022365D01*
X027300Y022415D01*
X027284Y022466D01*
X027271Y022519D01*
X027262Y022572D01*
X027257Y022626D01*
X027255Y022680D01*
X028572Y023291D02*
X028611Y023255D01*
X028649Y023216D01*
X028683Y023176D01*
X028715Y023133D01*
X028743Y023088D01*
X028769Y023041D01*
X028792Y022992D01*
X028811Y022942D01*
X028827Y022891D01*
X028839Y022839D01*
X028848Y022787D01*
X028853Y022733D01*
X028855Y022680D01*
X027543Y023295D02*
X027503Y023259D01*
X027465Y023220D01*
X027430Y023179D01*
X027398Y023136D01*
X027368Y023091D01*
X027342Y023044D01*
X027320Y022995D01*
X027300Y022944D01*
X027284Y022893D01*
X027271Y022841D01*
X027262Y022787D01*
X027257Y022734D01*
X027255Y022680D01*
X029955Y023318D02*
X029955Y023618D01*
X029955Y023918D01*
X030155Y023918D02*
X030155Y023618D01*
X030155Y023318D01*
X030155Y008293D02*
X030155Y007993D01*
X030155Y007693D01*
X029955Y007693D02*
X029955Y007993D01*
X029955Y008293D01*
X027255Y007055D02*
X027257Y007001D01*
X027262Y006947D01*
X027271Y006894D01*
X027284Y006841D01*
X027300Y006790D01*
X027320Y006740D01*
X027343Y006691D01*
X027369Y006643D01*
X027398Y006598D01*
X027431Y006555D01*
X027466Y006514D01*
X027504Y006475D01*
X027544Y006439D01*
X027587Y006406D01*
X027632Y006376D01*
X027679Y006349D01*
X028452Y006360D02*
X028500Y006390D01*
X028545Y006423D01*
X028588Y006459D01*
X028629Y006497D01*
X028666Y006539D01*
X028701Y006583D01*
X028732Y006629D01*
X028761Y006678D01*
X028785Y006728D01*
X028806Y006780D01*
X028824Y006834D01*
X028837Y006888D01*
X028847Y006943D01*
X028853Y006999D01*
X028855Y007055D01*
X028853Y007108D01*
X028848Y007162D01*
X028839Y007214D01*
X028827Y007266D01*
X028811Y007317D01*
X028792Y007367D01*
X028769Y007416D01*
X028743Y007463D01*
X028715Y007508D01*
X028683Y007551D01*
X028649Y007591D01*
X028611Y007630D01*
X028572Y007666D01*
X027543Y007670D02*
X027503Y007634D01*
X027465Y007595D01*
X027430Y007554D01*
X027398Y007511D01*
X027368Y007466D01*
X027342Y007419D01*
X027320Y007370D01*
X027300Y007319D01*
X027284Y007268D01*
X027271Y007216D01*
X027262Y007162D01*
X027257Y007109D01*
X027255Y007055D01*
X024742Y005168D02*
X024688Y005166D01*
X024634Y005161D01*
X024581Y005152D01*
X024528Y005139D01*
X024477Y005123D01*
X024427Y005103D01*
X024378Y005080D01*
X024330Y005054D01*
X024285Y005025D01*
X024242Y004992D01*
X024201Y004957D01*
X024162Y004919D01*
X024126Y004879D01*
X024093Y004836D01*
X024063Y004791D01*
X024036Y004744D01*
X024047Y003971D02*
X024077Y003923D01*
X024110Y003878D01*
X024146Y003835D01*
X024184Y003794D01*
X024226Y003757D01*
X024270Y003722D01*
X024316Y003691D01*
X024365Y003662D01*
X024415Y003638D01*
X024467Y003617D01*
X024521Y003599D01*
X024575Y003586D01*
X024630Y003576D01*
X024686Y003570D01*
X024742Y003568D01*
X024795Y003570D01*
X024849Y003575D01*
X024901Y003584D01*
X024953Y003596D01*
X025004Y003612D01*
X025054Y003631D01*
X025103Y003654D01*
X025150Y003680D01*
X025195Y003708D01*
X025238Y003740D01*
X025278Y003774D01*
X025317Y003812D01*
X025353Y003851D01*
X025357Y004880D02*
X025321Y004920D01*
X025282Y004958D01*
X025241Y004993D01*
X025198Y005025D01*
X025153Y005055D01*
X025106Y005081D01*
X025057Y005103D01*
X025006Y005123D01*
X024955Y005139D01*
X024903Y005152D01*
X024849Y005161D01*
X024796Y005166D01*
X024742Y005168D01*
X023480Y007268D02*
X023180Y007268D01*
X022880Y007268D01*
X022880Y007468D02*
X023180Y007468D01*
X023480Y007468D01*
X020905Y007418D02*
X020905Y007118D01*
X020905Y006818D01*
X020705Y006818D02*
X020705Y007118D01*
X020705Y007418D01*
X008855Y004843D02*
X008555Y004843D01*
X008255Y004843D01*
X008255Y004643D02*
X008555Y004643D01*
X008855Y004643D01*
X006905Y012880D02*
X006905Y013180D01*
X006905Y013480D01*
X006705Y013480D02*
X006705Y013180D01*
X006705Y012880D01*
X008255Y020268D02*
X008555Y020268D01*
X008855Y020268D01*
X008855Y020468D02*
X008555Y020468D01*
X008255Y020468D01*
X006905Y028505D02*
X006905Y028805D01*
X006905Y029105D01*
X006705Y029105D02*
X006705Y028805D01*
X006705Y028505D01*
D18*
X024005Y021362D03*
X024005Y005737D03*
D19*
X023610Y005743D03*
X025500Y005743D03*
X025500Y021368D03*
X023610Y021368D03*
D20*
X014055Y019393D03*
X014055Y003768D03*
D21*
X014055Y004393D03*
X014055Y001843D03*
X014055Y017468D03*
X014055Y020018D03*
D22*
X013905Y021143D02*
X013680Y021143D01*
X013680Y021593D01*
X013905Y021593D01*
X013980Y021518D01*
X013980Y021218D01*
X013905Y021143D01*
X014140Y021368D02*
X014366Y021593D01*
X014366Y021143D01*
X014441Y021368D02*
X014140Y021368D01*
X014215Y005968D02*
X014140Y005893D01*
X014215Y005968D02*
X014366Y005968D01*
X014441Y005893D01*
X014441Y005818D01*
X014140Y005518D01*
X014441Y005518D01*
X013980Y005593D02*
X013980Y005893D01*
X013905Y005968D01*
X013680Y005968D01*
X013680Y005518D01*
X013905Y005518D01*
X013980Y005593D01*
D23*
X029430Y009568D03*
X029430Y011918D03*
X029430Y025193D03*
X029430Y027543D03*
D24*
X028705Y027868D03*
X028705Y024868D03*
X028705Y012243D03*
X028705Y009243D03*
M02*
